<?xml version="1.0" encoding="UTF-8"?>
<svg xmlns="http://www.w3.org/2000/svg" xmlns:xlink="http://www.w3.org/1999/xlink" width="40pt" height="40pt" viewBox="0 0 40 40" version="1.1">
<g id="surface1">
<path style=" stroke:none;fill-rule:nonzero;fill:rgb(0%,0%,0%);fill-opacity:1;" d="M 35.265625 5.171875 C 34.921875 5.386719 33.585938 6.761719 29.464844 11.105469 L 28.734375 11.878906 L 28.066406 11.558594 C 27.464844 11.265625 26.601562 10.972656 25.332031 10.640625 C 23.828125 10.238281 22.640625 10.105469 20.332031 10.039062 C 17.785156 9.972656 17.039062 10.054688 14.132812 10.652344 C 12.238281 11.054688 8.800781 12.625 7.105469 13.878906 C 5.972656 14.71875 4.480469 16.199219 3.746094 17.1875 C 3.105469 18.066406 2.292969 19.640625 2.027344 20.535156 C 1.546875 22.121094 1.507812 24.1875 1.933594 25.800781 C 2.453125 27.8125 4.238281 30.535156 5.828125 31.746094 C 8.332031 33.667969 12.253906 35.238281 15.894531 35.800781 C 19.398438 36.347656 22.921875 35.691406 23.8125 34.332031 C 23.972656 34.078125 24.011719 33.785156 23.972656 33.132812 C 23.933594 32.425781 23.839844 32.171875 23.464844 31.640625 C 23.226562 31.292969 22.867188 30.851562 22.691406 30.667969 C 22.519531 30.492188 22.226562 30.078125 22.039062 29.761719 C 21.625 29.066406 21.746094 28.613281 22.359375 28.492188 C 22.558594 28.453125 23.8125 28.558594 25.132812 28.746094 C 27.28125 29.039062 27.679688 29.066406 28.933594 28.933594 C 30.480469 28.773438 30.625 28.746094 31.398438 28.441406 C 33.945312 27.441406 35.214844 26.265625 36.105469 24.105469 C 36.894531 22.214844 36.933594 20.292969 36.253906 18.480469 C 35.667969 16.90625 34.054688 14.921875 32.535156 13.921875 L 31.972656 13.546875 L 32.480469 13.078125 C 33.960938 11.761719 37.441406 8.425781 37.707031 8.078125 C 38.121094 7.535156 38.132812 6.199219 37.71875 5.679688 C 37.132812 4.933594 36.039062 4.707031 35.265625 5.171875 Z M 23.734375 12.90625 C 24.878906 13.160156 26.652344 13.679688 26.785156 13.8125 C 26.851562 13.878906 26.105469 14.691406 23.707031 17.171875 C 22.625 18.292969 21.867188 19.1875 21.867188 19.347656 C 21.867188 19.519531 21.773438 19.601562 21.558594 19.601562 C 20.972656 19.601562 19.933594 20 19.425781 20.414062 C 19.148438 20.640625 18.574219 21.347656 18.132812 21.988281 C 17 23.652344 16.828125 23.8125 15.785156 24.039062 C 14.453125 24.347656 14.332031 24.71875 15.265625 25.71875 C 15.988281 26.480469 16.507812 26.667969 17.972656 26.667969 C 19.425781 26.667969 20.253906 26.292969 21.386719 25.171875 C 22.292969 24.265625 23.09375 22.8125 23.265625 21.761719 C 23.332031 21.332031 23.414062 21.199219 23.613281 21.199219 C 23.761719 21.199219 25.160156 19.988281 26.960938 18.28125 L 30.066406 15.375 L 30.652344 15.734375 C 31.640625 16.347656 33.121094 17.933594 33.601562 18.878906 C 34.558594 20.746094 34.1875 23.214844 32.71875 24.71875 C 32.011719 25.441406 30.558594 26.09375 29.105469 26.347656 C 28.011719 26.535156 27.773438 26.535156 26.386719 26.332031 C 23.332031 25.894531 22.519531 25.828125 21.785156 25.988281 C 20.878906 26.1875 20.121094 26.761719 19.652344 27.558594 C 19.332031 28.078125 19.28125 28.347656 19.28125 29.121094 C 19.28125 30.226562 19.574219 30.894531 20.640625 32.226562 L 21.320312 33.039062 L 20.625 33.226562 C 19.507812 33.507812 16.851562 33.441406 15.199219 33.078125 C 12.625 32.519531 9.398438 31.148438 7.734375 29.933594 C 6.105469 28.71875 4.734375 26.601562 4.308594 24.625 C 3.972656 23.066406 4.171875 21.839844 5.078125 20.027344 C 5.652344 18.851562 5.933594 18.464844 6.90625 17.480469 C 9.121094 15.265625 11.921875 13.8125 15.480469 13.011719 C 17.535156 12.558594 17.613281 12.558594 20.199219 12.601562 C 21.894531 12.625 22.785156 12.707031 23.734375 12.90625 Z M 23.734375 12.90625 "/>
<path style=" stroke:none;fill-rule:nonzero;fill:rgb(0%,0%,0%);fill-opacity:1;" d="M 15.160156 13.625 C 14.878906 13.707031 14.414062 13.988281 14.121094 14.265625 C 13.667969 14.691406 13.601562 14.839844 13.601562 15.347656 C 13.601562 16.121094 13.972656 16.691406 14.691406 17.039062 C 16.585938 17.945312 19.078125 17.199219 19.292969 15.652344 C 19.453125 14.425781 18.414062 13.585938 16.679688 13.519531 C 16.121094 13.492188 15.441406 13.546875 15.160156 13.625 Z M 17.746094 15.160156 C 18.09375 15.492188 18 15.691406 17.386719 15.945312 C 16.464844 16.332031 14.933594 15.988281 14.933594 15.398438 C 14.933594 14.785156 17.1875 14.601562 17.746094 15.160156 Z M 17.746094 15.160156 "/>
<path style=" stroke:none;fill-rule:nonzero;fill:rgb(0%,0%,0%);fill-opacity:1;" d="M 9.8125 17.28125 C 9.027344 17.535156 8.214844 18.148438 7.988281 18.679688 C 7.90625 18.90625 7.867188 19.347656 7.90625 19.707031 C 7.960938 20.238281 8.066406 20.414062 8.585938 20.878906 C 9.28125 21.519531 9.972656 21.734375 11.292969 21.734375 C 12.347656 21.734375 13.292969 21.359375 13.921875 20.679688 C 14.226562 20.359375 14.320312 20.121094 14.375 19.546875 C 14.425781 18.839844 14.414062 18.8125 13.8125 18.160156 C 13.320312 17.640625 13.039062 17.453125 12.425781 17.28125 C 11.480469 17.011719 10.679688 17.027344 9.8125 17.28125 Z M 12.359375 18.667969 C 13.347656 19.105469 13.253906 19.921875 12.171875 20.28125 C 11.480469 20.507812 10.078125 20.375 9.640625 20.054688 C 8.960938 19.546875 9.132812 18.933594 10.066406 18.601562 C 10.8125 18.332031 11.691406 18.359375 12.359375 18.667969 Z M 12.359375 18.667969 "/>
<path style=" stroke:none;fill-rule:nonzero;fill:rgb(0%,0%,0%);fill-opacity:1;" d="M 7.492188 22.933594 C 6.28125 23.480469 5.601562 24.332031 5.601562 25.292969 C 5.601562 26.027344 5.746094 26.386719 6.28125 26.921875 C 7.253906 27.878906 8.933594 28.320312 10.464844 28 C 11.441406 27.800781 11.933594 27.558594 12.507812 27.011719 C 13.105469 26.453125 13.332031 25.988281 13.332031 25.332031 C 13.332031 24.359375 12.601562 23.441406 11.425781 22.945312 C 10.519531 22.558594 8.332031 22.546875 7.492188 22.933594 Z M 11.078125 24.28125 C 12.09375 24.785156 12.265625 25.492188 11.519531 26.105469 C 10.359375 27.066406 8.519531 27.039062 7.347656 26.054688 C 6.945312 25.71875 6.839844 25.332031 7.011719 24.867188 C 7.105469 24.640625 7.972656 24.148438 8.601562 23.988281 C 9.199219 23.828125 10.507812 23.988281 11.078125 24.28125 Z M 11.078125 24.28125 "/>
</g>
</svg>
