<?xml version="1.0" encoding="UTF-8"?>
<svg xmlns="http://www.w3.org/2000/svg" xmlns:xlink="http://www.w3.org/1999/xlink" width="35pt" height="35pt" viewBox="0 0 35 35" version="1.1">
<g id="surface1">
<path style=" stroke:none;fill-rule:nonzero;fill:rgb(0%,0%,0%);fill-opacity:1;" d="M 1.089844 6.726562 C 0.773438 6.851562 0.554688 7.058594 0.414062 7.355469 C 0.292969 7.617188 0.285156 8.011719 0.394531 8.308594 C 0.503906 8.589844 0.769531 8.855469 1.046875 8.960938 L 1.253906 9.035156 L 17.535156 9.035156 C 33.753906 9.035156 33.816406 9.035156 34.011719 8.964844 C 34.265625 8.867188 34.515625 8.628906 34.644531 8.347656 C 34.777344 8.0625 34.789062 7.71875 34.675781 7.410156 C 34.585938 7.164062 34.3125 6.882812 34.058594 6.765625 L 33.875 6.679688 L 17.535156 6.683594 C 5.101562 6.683594 1.171875 6.691406 1.089844 6.726562 Z M 1.089844 6.726562 "/>
<path style=" stroke:none;fill-rule:nonzero;fill:rgb(0%,0%,0%);fill-opacity:1;" d="M 1.089844 16.402344 C 0.773438 16.527344 0.554688 16.734375 0.414062 17.035156 C 0.292969 17.296875 0.285156 17.6875 0.394531 17.984375 C 0.503906 18.269531 0.769531 18.535156 1.046875 18.640625 L 1.253906 18.714844 L 17.535156 18.714844 C 33.753906 18.714844 33.816406 18.714844 34.011719 18.644531 C 34.265625 18.546875 34.515625 18.308594 34.644531 18.023438 C 34.777344 17.742188 34.789062 17.394531 34.675781 17.089844 C 34.585938 16.84375 34.3125 16.5625 34.058594 16.441406 L 33.875 16.355469 L 17.535156 16.359375 C 5.101562 16.359375 1.171875 16.371094 1.089844 16.402344 Z M 1.089844 16.402344 "/>
<path style=" stroke:none;fill-rule:nonzero;fill:rgb(0%,0%,0%);fill-opacity:1;" d="M 1.089844 26.082031 C 0.773438 26.207031 0.554688 26.414062 0.414062 26.714844 C 0.292969 26.976562 0.285156 27.367188 0.394531 27.664062 C 0.503906 27.945312 0.769531 28.214844 1.046875 28.316406 L 1.253906 28.394531 L 17.535156 28.394531 C 33.753906 28.394531 33.816406 28.394531 34.011719 28.320312 C 34.265625 28.226562 34.515625 27.984375 34.644531 27.703125 C 34.777344 27.421875 34.789062 27.074219 34.675781 26.769531 C 34.585938 26.519531 34.3125 26.238281 34.058594 26.121094 L 33.875 26.035156 L 17.535156 26.039062 C 5.101562 26.039062 1.171875 26.050781 1.089844 26.082031 Z M 1.089844 26.082031 "/>
</g>
</svg>
