<?xml version="1.0" encoding="UTF-8"?>
<svg xmlns="http://www.w3.org/2000/svg" xmlns:xlink="http://www.w3.org/1999/xlink" width="30pt" height="30pt" viewBox="0 0 30 30" version="1.1">
<g id="surface1">
<path style=" stroke:none;fill-rule:nonzero;fill:rgb(0%,0%,0%);fill-opacity:1;" d="M 12.21875 0.140625 C 11.84375 0.3125 11.5625 0.59375 11.390625 0.96875 C 11.257812 1.242188 11.25 1.324219 11.25 2.496094 C 11.25 3.386719 11.234375 3.757812 11.179688 3.828125 C 11.101562 3.925781 10.007812 4.394531 9.851562 4.394531 C 9.804688 4.394531 9.375 4.015625 8.898438 3.546875 C 7.90625 2.5625 7.703125 2.4375 7.0625 2.4375 C 6.339844 2.429688 6.269531 2.484375 4.382812 4.382812 C 3.273438 5.496094 2.664062 6.152344 2.578125 6.328125 C 2.378906 6.71875 2.359375 7.210938 2.523438 7.648438 C 2.636719 7.953125 2.765625 8.109375 3.527344 8.882812 C 4 9.367188 4.394531 9.804688 4.394531 9.855469 C 4.394531 9.953125 3.9375 11.070312 3.855469 11.171875 C 3.808594 11.234375 3.46875 11.25 2.523438 11.25 C 1.324219 11.25 1.25 11.257812 0.96875 11.390625 C 0.59375 11.5625 0.3125 11.84375 0.140625 12.21875 L 0 12.507812 L 0.0078125 15 C 0.0078125 16.75 0.03125 17.542969 0.078125 17.679688 C 0.199219 18.007812 0.507812 18.382812 0.804688 18.554688 L 1.085938 18.71875 L 2.445312 18.75 C 3.234375 18.765625 3.828125 18.804688 3.859375 18.835938 C 3.929688 18.914062 4.394531 20.050781 4.394531 20.15625 C 4.394531 20.195312 4.007812 20.625 3.539062 21.105469 C 2.964844 21.691406 2.648438 22.0625 2.570312 22.242188 C 2.398438 22.628906 2.367188 23.054688 2.492188 23.472656 C 2.585938 23.8125 2.632812 23.859375 4.324219 25.5625 C 5.328125 26.570312 6.164062 27.363281 6.296875 27.433594 C 6.632812 27.609375 7.226562 27.640625 7.625 27.507812 C 7.898438 27.414062 8.054688 27.289062 8.851562 26.507812 C 9.351562 26.007812 9.808594 25.605469 9.867188 25.605469 C 9.921875 25.605469 10.066406 25.65625 10.195312 25.722656 C 10.320312 25.789062 10.578125 25.890625 10.765625 25.960938 C 10.953125 26.03125 11.140625 26.125 11.179688 26.179688 C 11.234375 26.242188 11.25 26.613281 11.257812 27.503906 C 11.257812 28.296875 11.285156 28.804688 11.328125 28.929688 C 11.449219 29.257812 11.757812 29.632812 12.054688 29.804688 L 12.335938 29.96875 L 14.929688 29.988281 C 17.359375 30.007812 17.539062 30 17.773438 29.894531 C 18.109375 29.742188 18.367188 29.507812 18.5625 29.1875 C 18.71875 28.914062 18.71875 28.910156 18.75 27.554688 C 18.765625 26.8125 18.796875 26.1875 18.8125 26.164062 C 18.859375 26.121094 19.765625 25.734375 20.027344 25.648438 L 20.21875 25.582031 L 21.082031 26.4375 C 22.125 27.46875 22.28125 27.570312 22.96875 27.570312 C 23.378906 27.570312 23.515625 27.546875 23.730469 27.429688 C 24.101562 27.242188 27.246094 24.085938 27.429688 23.730469 C 27.507812 23.5625 27.570312 23.320312 27.585938 23.050781 C 27.625 22.382812 27.484375 22.132812 26.445312 21.082031 L 25.582031 20.21875 L 25.648438 20.027344 C 25.734375 19.765625 26.121094 18.859375 26.164062 18.8125 C 26.1875 18.796875 26.8125 18.765625 27.554688 18.75 C 28.910156 18.71875 28.914062 18.71875 29.1875 18.5625 C 29.507812 18.367188 29.742188 18.109375 29.894531 17.773438 C 30 17.539062 30.007812 17.359375 29.988281 14.917969 L 29.96875 12.316406 L 29.734375 11.976562 C 29.554688 11.707031 29.425781 11.59375 29.132812 11.445312 L 28.757812 11.25 L 27.480469 11.25 C 26.53125 11.25 26.191406 11.234375 26.144531 11.171875 C 26.074219 11.085938 25.671875 10.101562 25.625 9.914062 C 25.59375 9.796875 25.726562 9.640625 26.445312 8.917969 C 27.414062 7.933594 27.597656 7.648438 27.597656 7.078125 C 27.597656 6.375 27.546875 6.304688 25.625 4.390625 C 23.679688 2.453125 23.640625 2.425781 22.910156 2.4375 C 22.300781 2.445312 22.089844 2.570312 21.105469 3.539062 C 20.625 4.007812 20.191406 4.394531 20.144531 4.394531 C 20.039062 4.394531 18.921875 3.9375 18.835938 3.855469 C 18.804688 3.828125 18.765625 3.226562 18.75 2.429688 L 18.71875 1.066406 L 18.484375 0.726562 C 18.304688 0.457031 18.175781 0.34375 17.882812 0.195312 L 17.507812 0 L 15.011719 0 C 12.515625 0 12.507812 0 12.21875 0.140625 Z M 17.203125 1.488281 C 17.308594 1.5625 17.3125 1.671875 17.34375 2.914062 C 17.367188 4.0625 17.390625 4.277344 17.484375 4.464844 C 17.664062 4.835938 18.011719 5.132812 18.503906 5.332031 C 18.75 5.4375 19.132812 5.59375 19.347656 5.6875 C 19.664062 5.824219 19.816406 5.859375 20.167969 5.859375 C 20.820312 5.851562 20.984375 5.753906 22 4.742188 C 22.488281 4.257812 22.921875 3.867188 22.96875 3.867188 C 23.097656 3.867188 26.132812 6.921875 26.132812 7.054688 C 26.132812 7.117188 25.765625 7.539062 25.230469 8.078125 C 24.445312 8.875 24.320312 9.035156 24.226562 9.3125 C 24.039062 9.890625 24.101562 10.15625 24.765625 11.734375 C 24.890625 12.015625 25.226562 12.367188 25.5 12.5 C 25.859375 12.667969 26.273438 12.714844 27.398438 12.714844 C 28.414062 12.714844 28.476562 12.71875 28.535156 12.832031 C 28.609375 12.972656 28.59375 17.191406 28.515625 17.265625 C 28.488281 17.289062 27.855469 17.328125 27.109375 17.34375 C 25.851562 17.375 25.734375 17.382812 25.511719 17.5 C 25.085938 17.730469 24.84375 18.070312 24.46875 18.996094 C 24.148438 19.796875 24.128906 19.867188 24.152344 20.25 C 24.1875 20.851562 24.328125 21.078125 25.289062 22.039062 C 25.75 22.5 26.132812 22.921875 26.132812 22.96875 C 26.132812 23.078125 23.085938 26.132812 22.976562 26.132812 C 22.929688 26.132812 22.507812 25.75 22.039062 25.289062 C 21.550781 24.808594 21.070312 24.390625 20.917969 24.316406 C 20.578125 24.140625 19.980469 24.09375 19.65625 24.21875 C 18.199219 24.757812 17.773438 25.015625 17.5 25.511719 C 17.382812 25.734375 17.375 25.851562 17.34375 27.117188 C 17.320312 28.242188 17.296875 28.488281 17.226562 28.535156 C 17.171875 28.570312 16.234375 28.59375 14.988281 28.59375 L 12.835938 28.59375 L 12.75 28.464844 C 12.671875 28.351562 12.65625 28.125 12.65625 27.132812 C 12.65625 26.375 12.632812 25.851562 12.585938 25.699219 C 12.539062 25.539062 12.40625 25.347656 12.1875 25.136719 C 11.90625 24.855469 11.765625 24.773438 11.074219 24.492188 C 10.34375 24.195312 10.25 24.171875 9.8125 24.171875 C 9.164062 24.175781 8.988281 24.28125 7.960938 25.289062 C 7.492188 25.75 7.070312 26.132812 7.023438 26.132812 C 6.914062 26.132812 3.867188 23.078125 3.867188 22.96875 C 3.867188 22.921875 4.234375 22.511719 4.695312 22.0625 C 5.753906 21.007812 5.828125 20.875 5.828125 20.1875 C 5.828125 19.675781 5.820312 19.632812 5.496094 18.875 C 5.140625 18.03125 4.921875 17.734375 4.484375 17.5 C 4.265625 17.382812 4.15625 17.375 2.929688 17.355469 C 1.675781 17.335938 1.605469 17.332031 1.511719 17.21875 C 1.417969 17.109375 1.40625 16.910156 1.40625 14.992188 C 1.40625 12.96875 1.414062 12.882812 1.523438 12.773438 C 1.632812 12.664062 1.71875 12.65625 2.859375 12.65625 C 4.273438 12.65625 4.46875 12.617188 4.882812 12.226562 C 5.09375 12.023438 5.195312 11.835938 5.5 11.101562 C 5.859375 10.25 5.871094 10.21875 5.847656 9.785156 C 5.835938 9.515625 5.78125 9.257812 5.710938 9.109375 C 5.65625 8.984375 5.214844 8.476562 4.734375 7.992188 C 4.257812 7.507812 3.867188 7.070312 3.867188 7.03125 C 3.867188 6.925781 6.84375 3.9375 6.992188 3.890625 C 7.070312 3.859375 7.3125 4.0625 7.984375 4.726562 C 8.476562 5.210938 8.984375 5.65625 9.109375 5.710938 C 9.257812 5.78125 9.515625 5.835938 9.789062 5.847656 C 10.203125 5.871094 10.277344 5.851562 10.816406 5.632812 C 11.75 5.242188 12.117188 5.039062 12.296875 4.8125 C 12.632812 4.390625 12.65625 4.257812 12.65625 2.894531 C 12.65625 1.71875 12.664062 1.632812 12.773438 1.523438 C 12.882812 1.414062 12.96875 1.40625 14.988281 1.40625 C 16.703125 1.40625 17.109375 1.421875 17.203125 1.488281 Z M 17.203125 1.488281 "/>
<path style=" stroke:none;fill-rule:nonzero;fill:rgb(0%,0%,0%);fill-opacity:1;" d="M 14.148438 9.179688 C 13.351562 9.304688 12.40625 9.671875 11.734375 10.117188 C 11.296875 10.40625 10.617188 11.054688 10.273438 11.507812 C 9.925781 11.964844 9.46875 12.921875 9.3125 13.511719 C 9.132812 14.167969 9.09375 15.382812 9.222656 16.070312 C 9.527344 17.671875 10.417969 19.023438 11.757812 19.914062 C 12.265625 20.25 12.617188 20.414062 13.273438 20.625 C 13.789062 20.789062 13.960938 20.8125 14.707031 20.84375 C 15.664062 20.875 16.160156 20.820312 16.851562 20.589844 C 18.601562 20.007812 20.007812 18.601562 20.589844 16.851562 C 20.820312 16.171875 20.875 15.664062 20.84375 14.734375 C 20.800781 13.546875 20.539062 12.714844 19.890625 11.75 C 19.101562 10.554688 17.867188 9.679688 16.453125 9.3125 C 16.089844 9.21875 15.761719 9.175781 15.148438 9.164062 C 14.695312 9.15625 14.25 9.164062 14.148438 9.179688 Z M 15.96875 10.695312 C 16.484375 10.796875 17.328125 11.214844 17.78125 11.585938 C 19.203125 12.734375 19.75 14.617188 19.1875 16.390625 C 18.742188 17.796875 17.476562 18.960938 16.007812 19.320312 C 15.375 19.46875 14.445312 19.441406 13.796875 19.253906 C 12.179688 18.773438 10.9375 17.40625 10.65625 15.796875 C 10.558594 15.21875 10.617188 14.191406 10.78125 13.710938 C 11.167969 12.550781 11.921875 11.640625 12.945312 11.109375 C 13.3125 10.914062 13.921875 10.699219 14.238281 10.648438 C 14.589844 10.585938 15.59375 10.617188 15.96875 10.695312 Z M 15.96875 10.695312 "/>
</g>
</svg>
