<?xml version="1.0" encoding="UTF-8"?>
<svg xmlns="http://www.w3.org/2000/svg" xmlns:xlink="http://www.w3.org/1999/xlink" width="200pt" height="200pt" viewBox="0 0 200 200" version="1.1">
<g id="surface1">
<path style=" stroke:none;fill-rule:nonzero;fill:rgb(0%,0%,0%);fill-opacity:1;" d="M 136.542969 9.371094 C 134.371094 10.828125 134 11.855469 134 16.65625 C 134 20.972656 134.230469 20.570312 131.230469 21.601562 L 129.769531 22.085938 L 127.515625 19.914062 C 124.171875 16.6875 123.742188 16.34375 122.398438 16.144531 C 119.800781 15.769531 119.199219 16.144531 113.371094 21.941406 C 107.457031 27.800781 106.914062 28.628906 107.257812 31.027344 C 107.457031 32.628906 107.65625 32.886719 110.6875 36.027344 C 112.058594 37.398438 113.144531 38.628906 113.144531 38.742188 C 113.144531 38.886719 112.800781 39.855469 112.398438 40.914062 L 111.65625 42.855469 L 107.828125 42.855469 C 103 42.855469 101.972656 43.230469 100.515625 45.398438 C 100.058594 46.058594 100 47.027344 100 54.398438 C 100 62.257812 100.027344 62.6875 100.601562 63.601562 C 101.828125 65.601562 102.515625 65.855469 107.34375 65.941406 L 111.6875 66.058594 L 112.429688 68.027344 C 112.855469 69.113281 113.144531 70.113281 113.085938 70.257812 C 113.058594 70.398438 111.769531 71.800781 110.257812 73.371094 C 107.828125 75.886719 107.484375 76.371094 107.3125 77.515625 C 106.886719 80.285156 107.058594 80.542969 112.6875 86.230469 C 115.542969 89.113281 118.230469 91.742188 118.65625 92.058594 C 119.144531 92.398438 120.085938 92.6875 121.085938 92.769531 C 123.171875 92.941406 123.828125 92.570312 127.085938 89.34375 C 128.484375 87.972656 129.769531 86.855469 129.941406 86.855469 C 130.113281 86.855469 130.6875 87.027344 131.199219 87.257812 C 131.714844 87.484375 132.542969 87.828125 133.058594 88.027344 L 133.941406 88.398438 L 134.058594 92.714844 C 134.144531 97.484375 134.398438 98.171875 136.429688 99.429688 C 137.371094 100 137.65625 100.027344 145.914062 99.941406 L 154.429688 99.855469 L 155.34375 99.027344 C 156.914062 97.628906 157.144531 96.769531 157.144531 92.371094 L 157.144531 88.429688 L 158.085938 88.058594 C 158.570312 87.855469 159.429688 87.484375 159.941406 87.257812 C 160.457031 87.027344 161.027344 86.855469 161.199219 86.855469 C 161.371094 86.855469 162.628906 87.972656 164 89.3125 C 167.429688 92.65625 167.515625 92.714844 169.714844 92.714844 C 172.085938 92.714844 172.371094 92.515625 177.800781 87.171875 C 183.027344 82 183.714844 81.058594 183.914062 78.914062 C 184.085938 76.828125 183.714844 76.171875 180.515625 72.914062 C 179.113281 71.515625 178 70.230469 178 70.058594 C 178 69.886719 178.171875 69.3125 178.398438 68.800781 C 178.628906 68.285156 179 67.429688 179.199219 66.914062 L 179.570312 66 L 183.515625 66 C 187.914062 66 188.769531 65.769531 190.171875 64.199219 L 191 63.285156 L 191.171875 46.199219 L 190.429688 45.085938 C 189.230469 43.257812 188 42.855469 183.371094 42.855469 L 179.484375 42.855469 L 178.742188 40.914062 C 178.34375 39.855469 178 38.886719 178 38.742188 C 178 38.601562 179.113281 37.34375 180.515625 35.941406 C 183.714844 32.6875 184.085938 32.027344 183.914062 29.941406 C 183.828125 28.941406 183.542969 28 183.199219 27.515625 C 182.886719 27.085938 180.3125 24.457031 177.515625 21.65625 C 171.941406 16.144531 171.34375 15.769531 168.65625 16.171875 C 167.515625 16.34375 167.027344 16.6875 164.515625 19.113281 C 162.941406 20.628906 161.542969 21.914062 161.398438 21.941406 C 161.257812 22 160.257812 21.714844 159.171875 21.285156 L 157.199219 20.542969 L 157.085938 16.199219 C 157 11.371094 156.742188 10.6875 154.742188 9.457031 C 153.828125 8.886719 153.398438 8.855469 145.542969 8.855469 C 138.171875 8.855469 137.199219 8.914062 136.542969 9.371094 Z M 150.3125 19.058594 C 150.429688 22.457031 150.484375 22.800781 151.230469 24.058594 C 152.285156 25.855469 153.34375 26.628906 156.769531 28 C 161.628906 29.941406 164.144531 29.515625 167.742188 26.085938 L 169.886719 24.027344 L 173 27.144531 L 176.113281 30.257812 L 174.113281 32.34375 C 171.914062 34.601562 170.855469 36.742188 170.855469 38.855469 C 170.855469 40.742188 173.058594 46.199219 174.398438 47.65625 C 175.769531 49.171875 178.457031 50 182.085938 50 L 184.570312 50 L 184.570312 59.144531 L 181.628906 59.144531 C 175.542969 59.144531 173.914062 60.398438 171.601562 66.800781 C 170.65625 69.429688 170.65625 70.941406 171.570312 73.230469 C 172.113281 74.570312 172.769531 75.484375 174.144531 76.855469 L 176 78.714844 L 172.941406 81.769531 L 169.914062 84.828125 L 167.941406 83 C 164.429688 79.769531 161.769531 79.058594 158 80.429688 C 151.515625 82.800781 150.3125 84.285156 150.285156 90.199219 L 150.285156 93.429688 L 140.855469 93.429688 L 140.855469 90.199219 C 140.828125 84.285156 139.628906 82.800781 133.144531 80.429688 C 129.371094 79.058594 126.714844 79.769531 123.199219 83 L 121.230469 84.828125 L 118.199219 81.769531 L 115.144531 78.714844 L 116.886719 77 C 120.199219 73.742188 120.972656 70.769531 119.570312 66.855469 C 117.230469 60.371094 115.601562 59.144531 109.515625 59.144531 L 106.570312 59.144531 L 106.570312 49.769531 L 110.230469 49.65625 C 115.257812 49.515625 116.429688 48.855469 118.230469 45.257812 C 119.570312 42.570312 120.285156 40.3125 120.285156 38.6875 C 120.285156 36.65625 118.800781 33.769531 116.714844 31.714844 L 115.144531 30.171875 L 118.199219 27.085938 L 121.230469 24.027344 L 123.371094 26.027344 C 127.144531 29.484375 129.570312 29.914062 134.429688 27.972656 C 137.742188 26.65625 139.171875 25.628906 140.058594 23.914062 C 140.601562 22.914062 140.714844 22.144531 140.800781 19.058594 L 140.914062 15.429688 L 150.230469 15.429688 Z M 150.3125 19.058594 "/>
<path style=" stroke:none;fill-rule:nonzero;fill:rgb(0%,0%,0%);fill-opacity:1;" d="M 139.714844 35.027344 C 136.34375 36.027344 134.257812 37.230469 131.65625 39.6875 C 129.199219 42 127.570312 44.457031 126.34375 47.800781 C 125.628906 49.714844 125.570312 50.171875 125.570312 54.429688 C 125.570312 58.714844 125.628906 59.144531 126.34375 61.113281 C 127.542969 64.3125 128.972656 66.628906 131 68.6875 C 133.429688 71.171875 135.484375 72.429688 138.941406 73.601562 C 141.65625 74.515625 142.058594 74.570312 145.601562 74.570312 C 149.027344 74.570312 149.628906 74.484375 152.027344 73.714844 C 155.398438 72.601562 157.542969 71.285156 160.027344 68.828125 C 162.3125 66.515625 164 63.6875 165.027344 60.3125 C 165.714844 58.144531 165.769531 57.628906 165.65625 53.886719 C 165.542969 50.398438 165.429688 49.570312 164.769531 47.714844 C 163.6875 44.714844 162.058594 42.144531 159.941406 40.027344 C 157.542969 37.65625 155.085938 36.171875 151.714844 35.144531 C 149.34375 34.371094 148.628906 34.285156 145.570312 34.3125 C 142.769531 34.3125 141.6875 34.457031 139.714844 35.027344 Z M 151.027344 42.457031 C 154.515625 44.144531 156.601562 46.3125 158.027344 49.855469 C 158.601562 51.257812 158.714844 52.085938 158.714844 54.285156 C 158.714844 58.398438 157.714844 60.914062 154.941406 63.769531 C 153.886719 64.828125 152.601562 65.742188 151.171875 66.457031 C 149.085938 67.515625 148.886719 67.542969 146 67.542969 C 141.742188 67.570312 139.199219 66.628906 136.457031 64.027344 C 134.828125 62.457031 134.058594 61.3125 133.113281 59 C 132.542969 57.542969 132.429688 56.828125 132.429688 54.285156 C 132.457031 51.398438 132.484375 51.199219 133.570312 49 C 134.972656 46.085938 137.113281 43.886719 139.855469 42.570312 C 142.429688 41.3125 143.3125 41.144531 146.34375 41.285156 C 148.484375 41.371094 149.113281 41.542969 151.027344 42.457031 Z M 151.027344 42.457031 "/>
<path style=" stroke:none;fill-rule:nonzero;fill:rgb(0%,0%,0%);fill-opacity:1;" d="M 69 48.972656 C 67.171875 49.800781 65.800781 51.171875 64.972656 53 C 64.3125 54.34375 64.285156 54.742188 64.285156 60.457031 C 64.285156 64.800781 64.199219 66.601562 63.941406 66.941406 C 63.570312 67.429688 58.230469 69.714844 57.457031 69.714844 C 57.230469 69.714844 55.144531 67.855469 52.828125 65.570312 C 47.972656 60.769531 47 60.171875 43.855469 60.171875 C 40.34375 60.144531 40 60.398438 30.800781 69.65625 C 25.398438 75.085938 22.429688 78.285156 22 79.144531 C 21.027344 81.058594 20.941406 83.457031 21.742188 85.570312 C 22.285156 87.058594 22.914062 87.828125 26.628906 91.601562 C 28.941406 93.972656 30.855469 96.085938 30.855469 96.34375 C 30.855469 96.828125 28.628906 102.257812 28.230469 102.769531 C 28 103.058594 26.34375 103.144531 21.742188 103.144531 C 15.886719 103.144531 15.515625 103.171875 14.144531 103.828125 C 12.3125 104.65625 10.941406 106.027344 10.113281 107.855469 L 9.429688 109.285156 L 9.457031 121.429688 C 9.457031 129.972656 9.570312 133.828125 9.800781 134.484375 C 10.398438 136.085938 11.914062 137.914062 13.34375 138.769531 L 14.714844 139.570312 L 21.34375 139.714844 C 25.199219 139.800781 28.085938 139.972656 28.257812 140.144531 C 28.601562 140.515625 30.855469 146.058594 30.855469 146.570312 C 30.855469 146.769531 28.972656 148.855469 26.6875 151.199219 C 23.886719 154.058594 22.34375 155.855469 21.972656 156.742188 C 21.113281 158.628906 20.972656 160.714844 21.570312 162.742188 C 22.027344 164.398438 22.257812 164.628906 30.515625 172.941406 C 35.398438 177.855469 39.484375 181.714844 40.144531 182.058594 C 41.769531 182.914062 44.65625 183.058594 46.601562 182.429688 C 47.941406 181.972656 48.714844 181.34375 52.601562 177.542969 C 55.027344 175.113281 57.257812 173.144531 57.542969 173.144531 C 57.800781 173.144531 58.515625 173.398438 59.144531 173.714844 C 59.742188 174.027344 61 174.542969 61.914062 174.886719 C 62.828125 175.230469 63.742188 175.6875 63.941406 175.941406 C 64.199219 176.257812 64.285156 178.058594 64.3125 182.398438 C 64.3125 186.257812 64.457031 188.742188 64.65625 189.34375 C 65.257812 190.941406 66.769531 192.769531 68.199219 193.628906 L 69.570312 194.429688 L 82.230469 194.515625 C 94.085938 194.601562 94.941406 194.570312 96.085938 194.058594 C 97.742188 193.3125 99 192.171875 99.941406 190.601562 C 100.714844 189.285156 100.714844 189.257812 100.855469 182.65625 C 100.941406 179.027344 101.085938 175.972656 101.171875 175.855469 C 101.398438 175.65625 105.800781 173.769531 107.085938 173.34375 L 108.027344 173.027344 L 112.230469 177.199219 C 117.3125 182.230469 118.085938 182.714844 121.429688 182.714844 C 123.429688 182.714844 124.085938 182.601562 125.144531 182.027344 C 126.941406 181.113281 142.285156 165.742188 143.171875 164 C 143.570312 163.171875 143.855469 162 143.941406 160.6875 C 144.144531 157.429688 143.457031 156.199219 138.371094 151.085938 L 134.171875 146.886719 L 134.484375 145.941406 C 134.914062 144.65625 136.800781 140.257812 137 140.027344 C 137.113281 139.941406 140.171875 139.800781 143.800781 139.714844 C 150.398438 139.570312 150.429688 139.570312 151.742188 138.800781 C 153.3125 137.855469 154.457031 136.601562 155.199219 134.941406 C 155.714844 133.800781 155.742188 132.941406 155.65625 121.058594 L 155.570312 108.398438 L 154.769531 107.199219 L 154 106 L 148.886719 106 L 148.800781 119.113281 C 148.742188 126.34375 148.601562 132.34375 148.484375 132.484375 C 148.34375 132.601562 145.257812 132.769531 141.628906 132.855469 C 135.484375 133 134.914062 133.058594 133.828125 133.628906 C 131.742188 134.742188 130.570312 136.398438 128.742188 140.914062 C 127.171875 144.828125 127.085938 145.171875 127.199219 147.027344 C 127.371094 149.972656 128.058594 151.058594 132.742188 155.742188 C 135 158 136.855469 160.058594 136.855469 160.285156 C 136.855469 160.828125 122 175.714844 121.457031 175.714844 C 121.230469 175.714844 119.171875 173.855469 116.886719 171.601562 C 114.515625 169.257812 112.171875 167.230469 111.429688 166.855469 C 109.769531 166 106.855469 165.769531 105.285156 166.371094 C 98.171875 169 96.085938 170.257812 94.769531 172.6875 C 94.199219 173.769531 94.144531 174.34375 94 180.515625 C 93.886719 186 93.769531 187.199219 93.429688 187.429688 C 93.171875 187.601562 88.601562 187.714844 82.515625 187.714844 L 72.027344 187.714844 L 71.601562 187.085938 C 71.230469 186.542969 71.144531 185.429688 71.144531 180.601562 C 71.144531 176.886719 71.027344 174.34375 70.800781 173.601562 C 70.570312 172.828125 69.914062 171.886719 68.855469 170.855469 C 67.484375 169.484375 66.800781 169.085938 63.429688 167.714844 C 59.855469 166.257812 59.398438 166.144531 57.285156 166.144531 C 54.113281 166.171875 53.257812 166.6875 48.257812 171.601562 C 45.972656 173.855469 43.914062 175.714844 43.6875 175.714844 C 43.144531 175.714844 28.285156 160.828125 28.285156 160.285156 C 28.285156 160.058594 30.085938 158.058594 32.3125 155.855469 C 37.484375 150.714844 37.855469 150.085938 37.855469 146.714844 C 37.855469 144.230469 37.800781 144.027344 36.230469 140.3125 C 34.484375 136.199219 33.429688 134.769531 31.285156 133.628906 C 30.230469 133.058594 29.6875 133 23.714844 132.914062 C 17.601562 132.828125 17.257812 132.800781 16.800781 132.257812 C 16.34375 131.714844 16.285156 130.742188 16.285156 121.398438 C 16.285156 111.515625 16.3125 111.113281 16.855469 110.570312 C 17.398438 110.027344 17.800781 110 23.371094 110 C 30.257812 110 31.230469 109.800781 33.230469 107.914062 C 34.257812 106.914062 34.769531 106 36.257812 102.429688 C 38 98.257812 38.058594 98.113281 37.941406 96 C 37.886719 94.6875 37.628906 93.429688 37.285156 92.714844 C 37 92.085938 34.828125 89.628906 32.484375 87.230469 C 29.230469 83.941406 28.257812 82.769531 28.398438 82.371094 C 28.628906 81.65625 43.199219 67.144531 43.714844 67.144531 C 43.914062 67.144531 46.027344 69.058594 48.398438 71.371094 C 50.769531 73.714844 53.230469 75.855469 53.855469 76.144531 C 54.570312 76.484375 55.828125 76.742188 57.171875 76.800781 C 59.171875 76.914062 59.542969 76.828125 62.171875 75.742188 C 66.714844 73.855469 68.515625 72.855469 69.398438 71.742188 C 71.027344 69.6875 71.144531 69.058594 71.144531 62.398438 C 71.144531 56.65625 71.171875 56.257812 71.714844 55.714844 C 72.257812 55.171875 72.65625 55.144531 82.429688 55.144531 L 92.570312 55.144531 L 92.570312 48.285156 L 81.515625 48.285156 C 70.484375 48.285156 70.429688 48.285156 69 48.972656 Z M 69 48.972656 "/>
<path style=" stroke:none;fill-rule:nonzero;fill:rgb(0%,0%,0%);fill-opacity:1;" d="M 78.429688 93.058594 C 74.542969 93.65625 69.914062 95.457031 66.65625 97.628906 C 64.515625 99.027344 61.199219 102.199219 59.515625 104.398438 C 57.828125 106.628906 55.601562 111.285156 54.828125 114.171875 C 53.972656 117.371094 53.769531 123.285156 54.398438 126.65625 C 55.886719 134.457031 60.230469 141.058594 66.769531 145.398438 C 69.230469 147.027344 70.941406 147.828125 74.144531 148.855469 C 76.65625 149.65625 77.515625 149.769531 81.144531 149.914062 C 85.800781 150.085938 88.230469 149.800781 91.601562 148.6875 C 100.144531 145.855469 107 139 109.828125 130.457031 C 110.941406 127.144531 111.230469 124.65625 111.058594 120.144531 C 110.855469 114.34375 109.570312 110.285156 106.429688 105.570312 C 102.570312 99.742188 96.542969 95.484375 89.65625 93.6875 C 87.886719 93.230469 86.285156 93.027344 83.285156 92.972656 C 81.085938 92.941406 78.914062 92.972656 78.429688 93.058594 Z M 87.285156 100.429688 C 89.800781 100.941406 93.914062 102.972656 96.144531 104.769531 C 103.058594 110.371094 105.742188 119.570312 103 128.199219 C 100.828125 135.058594 94.65625 140.742188 87.484375 142.484375 C 84.398438 143.230469 79.855469 143.085938 76.714844 142.171875 C 68.828125 139.828125 62.769531 133.171875 61.398438 125.3125 C 60.914062 122.484375 61.199219 117.484375 62 115.144531 C 63.886719 109.484375 67.570312 105.058594 72.542969 102.457031 C 74.34375 101.515625 77.3125 100.457031 78.855469 100.199219 C 80.570312 99.914062 85.457031 100.058594 87.285156 100.429688 Z M 87.285156 100.429688 "/>
</g>
</svg>
