<?xml version="1.0" encoding="UTF-8"?>
<svg xmlns="http://www.w3.org/2000/svg" xmlns:xlink="http://www.w3.org/1999/xlink" width="30pt" height="30pt" viewBox="0 0 30 30" version="1.1">
<g id="surface1">
<path style=" stroke:none;fill-rule:nonzero;fill:rgb(0%,0%,0%);fill-opacity:1;" d="M 14.734375 0.535156 C 14.585938 0.601562 14.269531 0.933594 14.234375 1.066406 C 14.214844 1.140625 14.203125 4.476562 14.203125 11.300781 C 14.203125 18.238281 14.195312 21.429688 14.171875 21.429688 C 14.15625 21.429688 14.132812 21.40625 14.125 21.382812 C 14.113281 21.359375 14.089844 21.335938 14.070312 21.335938 C 14.050781 21.335938 13.96875 21.277344 13.890625 21.199219 C 13.804688 21.121094 13.730469 21.0625 13.714844 21.0625 C 13.699219 21.0625 13.667969 21.042969 13.648438 21.019531 C 13.566406 20.949219 13.421875 20.855469 13.351562 20.835938 C 13.316406 20.824219 13.285156 20.800781 13.285156 20.789062 C 13.285156 20.777344 13.230469 20.75 13.164062 20.726562 C 13.097656 20.710938 13.039062 20.679688 13.039062 20.667969 C 13.039062 20.652344 12.980469 20.625 12.902344 20.601562 C 12.828125 20.582031 12.765625 20.554688 12.765625 20.539062 C 12.765625 20.527344 12.6875 20.5 12.589844 20.480469 C 12.492188 20.457031 12.40625 20.429688 12.398438 20.414062 C 12.390625 20.402344 12.257812 20.375 12.105469 20.355469 C 11.953125 20.332031 11.824219 20.300781 11.808594 20.285156 C 11.78125 20.234375 10.230469 20.238281 10.199219 20.285156 C 10.1875 20.304688 10.050781 20.335938 9.898438 20.355469 C 9.742188 20.378906 9.613281 20.40625 9.613281 20.417969 C 9.613281 20.429688 9.53125 20.457031 9.429688 20.480469 C 9.328125 20.5 9.246094 20.527344 9.246094 20.542969 C 9.246094 20.554688 9.191406 20.585938 9.121094 20.605469 C 9.054688 20.625 9 20.652344 9 20.664062 C 9 20.675781 8.945312 20.703125 8.878906 20.722656 C 8.808594 20.746094 8.753906 20.773438 8.753906 20.78125 C 8.753906 20.792969 8.71875 20.820312 8.671875 20.839844 C 8.554688 20.894531 8.445312 20.957031 8.421875 20.992188 C 8.414062 21.003906 8.363281 21.035156 8.3125 21.0625 C 8.261719 21.085938 8.171875 21.160156 8.117188 21.21875 C 8.054688 21.285156 7.996094 21.335938 7.984375 21.335938 C 7.953125 21.335938 7.46875 21.8125 7.46875 21.84375 C 7.46875 21.855469 7.414062 21.921875 7.347656 21.984375 C 7.28125 22.054688 7.222656 22.125 7.222656 22.152344 C 7.222656 22.175781 7.210938 22.195312 7.195312 22.195312 C 7.175781 22.195312 7.148438 22.226562 7.132812 22.269531 C 7.117188 22.3125 7.09375 22.347656 7.078125 22.347656 C 7.066406 22.347656 7.035156 22.394531 7.011719 22.453125 C 6.984375 22.511719 6.957031 22.5625 6.945312 22.5625 C 6.929688 22.5625 6.902344 22.617188 6.882812 22.683594 C 6.863281 22.75 6.839844 22.804688 6.828125 22.804688 C 6.8125 22.804688 6.785156 22.859375 6.765625 22.929688 C 6.742188 22.996094 6.714844 23.050781 6.699219 23.050781 C 6.6875 23.050781 6.667969 23.101562 6.65625 23.15625 C 6.644531 23.214844 6.625 23.265625 6.613281 23.265625 C 6.601562 23.265625 6.570312 23.355469 6.546875 23.464844 C 6.527344 23.574219 6.5 23.664062 6.488281 23.664062 C 6.441406 23.664062 6.382812 24.359375 6.382812 24.933594 C 6.386719 25.492188 6.433594 26.074219 6.488281 26.113281 C 6.5 26.121094 6.527344 26.214844 6.546875 26.328125 C 6.570312 26.4375 6.597656 26.53125 6.613281 26.539062 C 6.625 26.550781 6.644531 26.601562 6.65625 26.65625 C 6.667969 26.710938 6.691406 26.753906 6.703125 26.753906 C 6.71875 26.753906 6.75 26.808594 6.769531 26.878906 C 6.789062 26.945312 6.8125 27 6.828125 27 C 6.839844 27 6.867188 27.054688 6.886719 27.121094 C 6.910156 27.191406 6.9375 27.246094 6.949219 27.246094 C 6.957031 27.246094 6.984375 27.292969 7.011719 27.351562 C 7.035156 27.410156 7.066406 27.460938 7.078125 27.460938 C 7.09375 27.460938 7.117188 27.492188 7.132812 27.535156 C 7.148438 27.578125 7.175781 27.613281 7.195312 27.613281 C 7.210938 27.613281 7.222656 27.628906 7.222656 27.648438 C 7.222656 27.667969 7.28125 27.738281 7.347656 27.800781 C 7.414062 27.871094 7.46875 27.933594 7.46875 27.949219 C 7.46875 27.984375 7.929688 28.4375 7.964844 28.4375 C 7.980469 28.4375 8.042969 28.492188 8.101562 28.5625 C 8.167969 28.628906 8.234375 28.683594 8.257812 28.683594 C 8.277344 28.683594 8.296875 28.699219 8.296875 28.714844 C 8.296875 28.734375 8.320312 28.757812 8.351562 28.765625 C 8.40625 28.789062 8.558594 28.890625 8.625 28.949219 C 8.644531 28.96875 8.703125 28.992188 8.753906 29.003906 C 8.804688 29.015625 8.847656 29.039062 8.847656 29.050781 C 8.847656 29.066406 8.902344 29.097656 8.96875 29.117188 C 9.035156 29.136719 9.09375 29.160156 9.09375 29.171875 C 9.09375 29.1875 9.148438 29.214844 9.222656 29.234375 C 9.292969 29.257812 9.359375 29.285156 9.367188 29.300781 C 9.375 29.3125 9.472656 29.339844 9.582031 29.359375 C 9.691406 29.382812 9.785156 29.410156 9.796875 29.421875 C 9.804688 29.429688 9.886719 29.449219 9.980469 29.460938 C 10.070312 29.472656 10.15625 29.5 10.167969 29.519531 C 10.199219 29.570312 11.789062 29.570312 11.851562 29.519531 C 11.878906 29.496094 11.976562 29.472656 12.070312 29.460938 C 12.164062 29.449219 12.246094 29.429688 12.246094 29.417969 C 12.246094 29.410156 12.332031 29.382812 12.445312 29.359375 C 12.554688 29.339844 12.644531 29.3125 12.644531 29.300781 C 12.644531 29.285156 12.714844 29.257812 12.796875 29.238281 C 12.882812 29.214844 12.949219 29.1875 12.949219 29.175781 C 12.949219 29.164062 13.003906 29.132812 13.070312 29.113281 C 13.140625 29.089844 13.195312 29.0625 13.195312 29.050781 C 13.195312 29.042969 13.246094 29.015625 13.308594 28.992188 C 13.371094 28.96875 13.4375 28.933594 13.460938 28.917969 C 13.546875 28.839844 13.582031 28.8125 13.652344 28.777344 C 13.742188 28.730469 13.777344 28.699219 13.925781 28.5625 C 13.988281 28.503906 14.074219 28.4375 14.121094 28.410156 C 14.167969 28.386719 14.203125 28.359375 14.203125 28.347656 C 14.203125 28.332031 14.371094 28.148438 14.710938 27.792969 C 14.765625 27.730469 14.816406 27.667969 14.816406 27.648438 C 14.816406 27.628906 14.835938 27.601562 14.855469 27.589844 C 14.875 27.578125 14.914062 27.523438 14.9375 27.472656 C 14.964844 27.421875 15 27.375 15.019531 27.359375 C 15.039062 27.347656 15.0625 27.292969 15.078125 27.246094 C 15.089844 27.191406 15.105469 27.152344 15.121094 27.152344 C 15.132812 27.152344 15.179688 27.0625 15.230469 26.953125 C 15.277344 26.84375 15.328125 26.753906 15.339844 26.753906 C 15.351562 26.753906 15.378906 26.679688 15.398438 26.597656 C 15.417969 26.507812 15.449219 26.425781 15.460938 26.417969 C 15.472656 26.410156 15.503906 26.300781 15.523438 26.171875 C 15.542969 26.046875 15.574219 25.9375 15.585938 25.929688 C 15.601562 25.917969 15.625 25.71875 15.644531 25.484375 C 15.667969 25.25 15.695312 25.046875 15.707031 25.039062 C 15.722656 25.027344 15.738281 21.496094 15.742188 17.1875 L 15.75 9.355469 L 15.84375 9.304688 C 15.890625 9.28125 15.949219 9.242188 15.972656 9.21875 C 15.996094 9.203125 16.035156 9.183594 16.054688 9.183594 C 16.082031 9.183594 16.109375 9.164062 16.125 9.140625 C 16.136719 9.121094 16.199219 9.082031 16.265625 9.0625 C 16.324219 9.042969 16.378906 9.015625 16.378906 9 C 16.378906 8.984375 16.425781 8.957031 16.484375 8.9375 C 16.542969 8.921875 16.59375 8.894531 16.59375 8.878906 C 16.59375 8.863281 16.640625 8.835938 16.699219 8.8125 C 16.757812 8.792969 16.804688 8.761719 16.804688 8.75 C 16.804688 8.738281 16.828125 8.722656 16.851562 8.722656 C 16.875 8.722656 16.90625 8.707031 16.917969 8.679688 C 16.929688 8.660156 16.996094 8.625 17.058594 8.605469 C 17.121094 8.582031 17.171875 8.554688 17.171875 8.539062 C 17.171875 8.527344 17.21875 8.5 17.273438 8.476562 C 17.328125 8.457031 17.382812 8.421875 17.398438 8.398438 C 17.410156 8.378906 17.460938 8.355469 17.511719 8.34375 C 17.5625 8.328125 17.601562 8.3125 17.601562 8.300781 C 17.601562 8.289062 17.632812 8.265625 17.671875 8.246094 C 17.835938 8.164062 17.957031 8.09375 17.980469 8.058594 C 17.992188 8.042969 18.039062 8.015625 18.089844 8.003906 C 18.136719 7.996094 18.1875 7.96875 18.191406 7.945312 C 18.203125 7.921875 18.25 7.894531 18.304688 7.882812 C 18.355469 7.871094 18.398438 7.851562 18.398438 7.835938 C 18.398438 7.824219 18.441406 7.796875 18.488281 7.777344 C 18.542969 7.753906 18.582031 7.726562 18.582031 7.714844 C 18.582031 7.699219 18.625 7.679688 18.675781 7.667969 C 18.730469 7.65625 18.777344 7.628906 18.785156 7.605469 C 18.792969 7.582031 18.84375 7.554688 18.890625 7.546875 C 18.941406 7.535156 18.980469 7.515625 18.980469 7.5 C 18.980469 7.488281 19.023438 7.460938 19.070312 7.4375 C 19.125 7.417969 19.164062 7.390625 19.164062 7.378906 C 19.164062 7.367188 19.210938 7.339844 19.269531 7.316406 C 19.328125 7.292969 19.378906 7.265625 19.378906 7.253906 C 19.378906 7.238281 19.421875 7.222656 19.472656 7.210938 C 19.523438 7.195312 19.574219 7.167969 19.578125 7.148438 C 19.589844 7.128906 19.648438 7.09375 19.71875 7.070312 C 19.78125 7.050781 19.835938 7.019531 19.835938 7.007812 C 19.835938 6.996094 19.875 6.964844 19.921875 6.941406 C 20.042969 6.882812 20.15625 6.8125 20.171875 6.792969 C 20.183594 6.785156 20.234375 6.757812 20.289062 6.738281 C 20.34375 6.714844 20.386719 6.6875 20.386719 6.671875 C 20.386719 6.65625 20.441406 6.628906 20.503906 6.609375 C 20.566406 6.589844 20.625 6.558594 20.636719 6.542969 C 20.65625 6.515625 20.820312 6.417969 20.949219 6.367188 C 20.992188 6.347656 21.03125 6.320312 21.03125 6.304688 C 21.03125 6.289062 21.050781 6.277344 21.078125 6.277344 C 21.105469 6.277344 21.132812 6.257812 21.140625 6.234375 C 21.148438 6.207031 21.21875 6.175781 21.292969 6.152344 C 21.367188 6.132812 21.429688 6.101562 21.429688 6.085938 C 21.429688 6.070312 21.472656 6.042969 21.519531 6.027344 C 21.574219 6.007812 21.613281 5.980469 21.613281 5.96875 C 21.613281 5.953125 21.640625 5.9375 21.671875 5.921875 C 21.75 5.898438 22.195312 5.453125 22.195312 5.398438 C 22.195312 5.375 22.210938 5.355469 22.222656 5.355469 C 22.242188 5.355469 22.253906 5.210938 22.253906 4.972656 C 22.253906 4.761719 22.242188 4.59375 22.226562 4.59375 C 22.210938 4.59375 22.191406 4.554688 22.179688 4.507812 C 22.148438 4.382812 21.671875 3.933594 21.53125 3.898438 C 21.492188 3.890625 21.457031 3.863281 21.445312 3.839844 C 21.4375 3.8125 21.410156 3.796875 21.382812 3.796875 C 21.359375 3.796875 21.335938 3.785156 21.335938 3.769531 C 21.335938 3.753906 21.296875 3.730469 21.246094 3.71875 C 21.195312 3.707031 21.144531 3.683594 21.132812 3.660156 C 21.117188 3.640625 21.058594 3.605469 21 3.582031 C 20.941406 3.558594 20.882812 3.523438 20.867188 3.503906 C 20.855469 3.480469 20.804688 3.457031 20.753906 3.445312 C 20.703125 3.429688 20.664062 3.414062 20.664062 3.402344 C 20.664062 3.390625 20.617188 3.359375 20.566406 3.335938 C 20.511719 3.316406 20.453125 3.28125 20.433594 3.269531 C 20.417969 3.253906 20.371094 3.21875 20.332031 3.183594 C 20.292969 3.152344 20.222656 3.117188 20.171875 3.105469 C 20.125 3.097656 20.078125 3.070312 20.074219 3.046875 C 20.0625 3.023438 20.015625 2.996094 19.960938 2.984375 C 19.910156 2.972656 19.867188 2.953125 19.867188 2.9375 C 19.867188 2.925781 19.828125 2.898438 19.777344 2.878906 C 19.726562 2.855469 19.683594 2.828125 19.683594 2.816406 C 19.683594 2.800781 19.640625 2.78125 19.589844 2.769531 C 19.535156 2.757812 19.488281 2.730469 19.480469 2.710938 C 19.472656 2.683594 19.421875 2.65625 19.375 2.648438 C 19.324219 2.636719 19.285156 2.613281 19.285156 2.597656 C 19.285156 2.582031 19.246094 2.554688 19.195312 2.539062 C 19.144531 2.519531 19.101562 2.496094 19.101562 2.484375 C 19.101562 2.46875 19.054688 2.441406 18.996094 2.417969 C 18.9375 2.394531 18.886719 2.367188 18.886719 2.355469 C 18.886719 2.34375 18.84375 2.324219 18.792969 2.3125 C 18.742188 2.300781 18.691406 2.269531 18.6875 2.25 C 18.675781 2.230469 18.617188 2.195312 18.546875 2.171875 C 18.484375 2.152344 18.429688 2.121094 18.429688 2.109375 C 18.429688 2.097656 18.351562 2.050781 18.261719 2.003906 C 18.167969 1.960938 18.09375 1.917969 18.09375 1.902344 C 18.09375 1.890625 18.042969 1.859375 17.984375 1.839844 C 17.925781 1.820312 17.878906 1.789062 17.878906 1.777344 C 17.878906 1.761719 17.824219 1.734375 17.765625 1.710938 C 17.699219 1.691406 17.640625 1.65625 17.625 1.632812 C 17.609375 1.613281 17.558594 1.589844 17.511719 1.578125 C 17.457031 1.5625 17.417969 1.546875 17.417969 1.53125 C 17.417969 1.519531 17.378906 1.492188 17.328125 1.46875 C 17.277344 1.449219 17.234375 1.421875 17.234375 1.40625 C 17.234375 1.394531 17.195312 1.375 17.144531 1.363281 C 17.097656 1.351562 17.046875 1.324219 17.042969 1.300781 C 17.03125 1.28125 16.984375 1.253906 16.929688 1.238281 C 16.878906 1.226562 16.835938 1.207031 16.835938 1.191406 C 16.835938 1.171875 16.796875 1.144531 16.746094 1.128906 C 16.695312 1.109375 16.652344 1.085938 16.652344 1.074219 C 16.652344 1.0625 16.605469 1.035156 16.546875 1.011719 C 16.488281 0.984375 16.4375 0.957031 16.4375 0.945312 C 16.4375 0.933594 16.398438 0.914062 16.347656 0.902344 C 16.296875 0.890625 16.246094 0.867188 16.234375 0.847656 C 16.21875 0.828125 16.167969 0.789062 16.117188 0.761719 C 15.976562 0.6875 15.875 0.628906 15.855469 0.609375 C 15.847656 0.601562 15.78125 0.570312 15.703125 0.542969 C 15.523438 0.472656 14.882812 0.472656 14.734375 0.535156 Z M 15.828125 2.476562 C 15.828125 2.492188 15.871094 2.519531 15.917969 2.539062 C 15.96875 2.554688 16.011719 2.582031 16.011719 2.597656 C 16.011719 2.613281 16.054688 2.636719 16.101562 2.648438 C 16.152344 2.660156 16.195312 2.679688 16.195312 2.695312 C 16.195312 2.707031 16.28125 2.761719 16.394531 2.820312 C 16.503906 2.875 16.59375 2.929688 16.59375 2.941406 C 16.59375 2.953125 16.632812 2.972656 16.683594 2.984375 C 16.734375 2.996094 16.785156 3.019531 16.796875 3.042969 C 16.8125 3.0625 16.871094 3.097656 16.929688 3.121094 C 16.988281 3.148438 17.042969 3.171875 17.050781 3.183594 C 17.085938 3.21875 17.328125 3.367188 17.355469 3.367188 C 17.371094 3.367188 17.386719 3.378906 17.386719 3.390625 C 17.386719 3.402344 17.4375 3.433594 17.496094 3.457031 C 17.554688 3.476562 17.601562 3.503906 17.601562 3.515625 C 17.601562 3.53125 17.65625 3.558594 17.722656 3.582031 C 17.789062 3.601562 17.851562 3.636719 17.859375 3.65625 C 17.867188 3.679688 17.90625 3.703125 17.953125 3.714844 C 18 3.730469 18.054688 3.753906 18.078125 3.773438 C 18.105469 3.796875 18.140625 3.828125 18.164062 3.84375 C 18.183594 3.859375 18.246094 3.894531 18.300781 3.914062 C 18.351562 3.9375 18.398438 3.96875 18.398438 3.984375 C 18.398438 3.996094 18.453125 4.027344 18.519531 4.042969 C 18.585938 4.066406 18.644531 4.089844 18.644531 4.101562 C 18.644531 4.113281 18.730469 4.167969 18.84375 4.226562 C 18.953125 4.28125 19.039062 4.335938 19.039062 4.351562 C 19.039062 4.363281 19.082031 4.378906 19.132812 4.394531 C 19.179688 4.40625 19.234375 4.429688 19.246094 4.449219 C 19.261719 4.46875 19.351562 4.523438 19.445312 4.578125 C 19.542969 4.625 19.621094 4.675781 19.621094 4.6875 C 19.621094 4.695312 19.671875 4.71875 19.730469 4.746094 C 19.789062 4.769531 19.835938 4.792969 19.835938 4.804688 C 19.835938 4.816406 19.886719 4.84375 19.945312 4.863281 C 20.0625 4.90625 20.085938 4.972656 19.988281 5.003906 C 19.957031 5.015625 19.929688 5.039062 19.929688 5.054688 C 19.929688 5.070312 19.90625 5.082031 19.882812 5.082031 C 19.859375 5.082031 19.828125 5.101562 19.816406 5.125 C 19.804688 5.144531 19.738281 5.183594 19.675781 5.199219 C 19.613281 5.222656 19.5625 5.25 19.5625 5.265625 C 19.5625 5.28125 19.511719 5.308594 19.453125 5.328125 C 19.394531 5.34375 19.347656 5.371094 19.347656 5.382812 C 19.347656 5.394531 19.300781 5.421875 19.25 5.445312 C 19.195312 5.46875 19.140625 5.496094 19.132812 5.507812 C 19.117188 5.527344 19.027344 5.582031 18.871094 5.660156 C 18.824219 5.6875 18.765625 5.726562 18.742188 5.746094 C 18.71875 5.765625 18.667969 5.792969 18.625 5.804688 C 18.585938 5.8125 18.550781 5.832031 18.550781 5.84375 C 18.550781 5.851562 18.503906 5.878906 18.453125 5.90625 C 18.398438 5.929688 18.347656 5.957031 18.335938 5.96875 C 18.320312 5.992188 18.195312 6.0625 18.039062 6.136719 C 17.984375 6.164062 17.9375 6.195312 17.9375 6.210938 C 17.9375 6.226562 17.898438 6.246094 17.847656 6.261719 C 17.796875 6.273438 17.753906 6.289062 17.753906 6.304688 C 17.753906 6.320312 17.707031 6.347656 17.648438 6.371094 C 17.589844 6.390625 17.539062 6.417969 17.539062 6.429688 C 17.539062 6.445312 17.5 6.46875 17.449219 6.488281 C 17.398438 6.503906 17.355469 6.53125 17.355469 6.546875 C 17.355469 6.5625 17.3125 6.585938 17.261719 6.597656 C 17.210938 6.609375 17.160156 6.636719 17.152344 6.65625 C 17.144531 6.683594 17.101562 6.710938 17.050781 6.71875 C 16.972656 6.738281 16.933594 6.761719 16.785156 6.882812 C 16.765625 6.902344 16.714844 6.925781 16.667969 6.9375 C 16.621094 6.949219 16.578125 6.972656 16.570312 6.996094 C 16.5625 7.019531 16.515625 7.046875 16.464844 7.054688 C 16.417969 7.070312 16.367188 7.09375 16.355469 7.113281 C 16.339844 7.136719 16.28125 7.167969 16.222656 7.195312 C 16.167969 7.21875 16.109375 7.253906 16.09375 7.273438 C 16.082031 7.292969 16.027344 7.320312 15.980469 7.332031 C 15.925781 7.34375 15.886719 7.363281 15.886719 7.375 C 15.886719 7.386719 15.855469 7.414062 15.8125 7.433594 L 15.734375 7.46875 L 15.734375 4.960938 C 15.734375 2.75 15.742188 2.449219 15.78125 2.449219 C 15.804688 2.449219 15.828125 2.460938 15.828125 2.476562 Z M 11.496094 21.828125 C 11.511719 21.84375 11.5625 21.855469 11.609375 21.855469 C 11.714844 21.855469 11.980469 21.917969 12 21.949219 C 12.007812 21.960938 12.089844 21.988281 12.175781 22.011719 C 12.261719 22.027344 12.335938 22.054688 12.335938 22.066406 C 12.335938 22.078125 12.417969 22.125 12.519531 22.175781 C 12.621094 22.222656 12.703125 22.277344 12.703125 22.292969 C 12.703125 22.308594 12.738281 22.332031 12.78125 22.347656 C 12.824219 22.363281 12.855469 22.390625 12.855469 22.40625 C 12.855469 22.421875 12.875 22.4375 12.898438 22.4375 C 12.925781 22.4375 12.984375 22.480469 13.03125 22.53125 C 13.078125 22.578125 13.125 22.621094 13.140625 22.621094 C 13.171875 22.621094 13.285156 22.738281 13.285156 22.773438 C 13.285156 22.789062 13.332031 22.839844 13.386719 22.890625 C 13.4375 22.9375 13.507812 23.015625 13.53125 23.066406 C 13.554688 23.117188 13.597656 23.179688 13.621094 23.207031 C 13.71875 23.320312 13.738281 23.347656 13.777344 23.464844 C 13.796875 23.53125 13.832031 23.601562 13.855469 23.625 C 13.875 23.644531 13.902344 23.71875 13.914062 23.785156 C 13.925781 23.851562 13.945312 23.90625 13.960938 23.90625 C 13.972656 23.90625 13.992188 23.96875 14.003906 24.046875 C 14.015625 24.121094 14.035156 24.183594 14.046875 24.183594 C 14.058594 24.183594 14.085938 24.339844 14.109375 24.53125 C 14.140625 24.808594 14.140625 24.964844 14.109375 25.253906 C 14.089844 25.457031 14.0625 25.621094 14.046875 25.621094 C 14.035156 25.621094 14.015625 25.675781 14.003906 25.746094 C 13.992188 25.8125 13.972656 25.875 13.960938 25.882812 C 13.945312 25.890625 13.917969 25.964844 13.898438 26.050781 C 13.875 26.132812 13.851562 26.203125 13.839844 26.203125 C 13.828125 26.203125 13.796875 26.257812 13.777344 26.328125 C 13.753906 26.394531 13.722656 26.449219 13.707031 26.449219 C 13.695312 26.449219 13.683594 26.46875 13.683594 26.484375 C 13.683594 26.507812 13.648438 26.566406 13.605469 26.613281 C 13.5625 26.664062 13.53125 26.714844 13.53125 26.726562 C 13.53125 26.742188 13.476562 26.808594 13.40625 26.878906 C 13.339844 26.949219 13.285156 27.027344 13.285156 27.046875 C 13.285156 27.0625 13.25 27.101562 13.203125 27.125 C 13.15625 27.148438 13.078125 27.214844 13.027344 27.265625 C 12.976562 27.320312 12.914062 27.367188 12.894531 27.367188 C 12.871094 27.367188 12.847656 27.390625 12.839844 27.414062 C 12.828125 27.4375 12.804688 27.460938 12.789062 27.460938 C 12.769531 27.460938 12.71875 27.492188 12.667969 27.535156 C 12.617188 27.578125 12.558594 27.613281 12.53125 27.613281 C 12.507812 27.613281 12.488281 27.625 12.488281 27.636719 C 12.488281 27.652344 12.433594 27.683594 12.367188 27.703125 C 12.300781 27.726562 12.246094 27.753906 12.246094 27.765625 C 12.246094 27.777344 12.164062 27.804688 12.070312 27.828125 C 11.972656 27.847656 11.882812 27.878906 11.875 27.894531 C 11.867188 27.910156 11.710938 27.941406 11.527344 27.957031 C 11.351562 27.976562 11.203125 28 11.203125 28.015625 C 11.203125 28.027344 11.121094 28.039062 11.019531 28.039062 C 10.917969 28.039062 10.835938 28.027344 10.835938 28.015625 C 10.835938 28.003906 10.691406 27.976562 10.511719 27.957031 C 10.332031 27.941406 10.179688 27.914062 10.167969 27.894531 C 10.15625 27.878906 10.070312 27.847656 9.972656 27.828125 C 9.875 27.804688 9.796875 27.777344 9.796875 27.765625 C 9.796875 27.753906 9.742188 27.730469 9.671875 27.707031 C 9.605469 27.6875 9.550781 27.65625 9.550781 27.644531 C 9.550781 27.628906 9.515625 27.609375 9.46875 27.597656 C 9.421875 27.585938 9.367188 27.550781 9.34375 27.515625 C 9.320312 27.488281 9.285156 27.460938 9.261719 27.460938 C 9.238281 27.460938 9.214844 27.4375 9.203125 27.414062 C 9.191406 27.390625 9.164062 27.367188 9.140625 27.367188 C 9.117188 27.367188 9.050781 27.320312 8.996094 27.265625 C 8.9375 27.207031 8.863281 27.148438 8.824219 27.125 C 8.785156 27.105469 8.753906 27.074219 8.753906 27.050781 C 8.753906 27.03125 8.703125 26.957031 8.640625 26.890625 C 8.578125 26.820312 8.503906 26.730469 8.480469 26.695312 C 8.457031 26.652344 8.414062 26.597656 8.382812 26.570312 C 8.355469 26.539062 8.316406 26.46875 8.296875 26.40625 C 8.277344 26.34375 8.25 26.296875 8.234375 26.296875 C 8.222656 26.296875 8.191406 26.226562 8.171875 26.144531 C 8.148438 26.058594 8.121094 25.988281 8.109375 25.988281 C 8.101562 25.988281 8.074219 25.90625 8.050781 25.804688 C 8.03125 25.707031 8.003906 25.621094 7.988281 25.621094 C 7.972656 25.621094 7.953125 25.496094 7.941406 25.347656 C 7.929688 25.195312 7.910156 25.070312 7.894531 25.070312 C 7.878906 25.070312 7.867188 24.988281 7.867188 24.886719 C 7.867188 24.785156 7.878906 24.703125 7.894531 24.703125 C 7.910156 24.703125 7.929688 24.585938 7.945312 24.445312 C 7.957031 24.300781 7.976562 24.175781 7.988281 24.167969 C 8.003906 24.160156 8.03125 24.070312 8.054688 23.96875 C 8.074219 23.867188 8.101562 23.785156 8.109375 23.785156 C 8.121094 23.785156 8.148438 23.722656 8.171875 23.648438 C 8.191406 23.570312 8.222656 23.511719 8.234375 23.511719 C 8.25 23.511719 8.269531 23.46875 8.28125 23.421875 C 8.289062 23.371094 8.332031 23.292969 8.375 23.242188 C 8.414062 23.199219 8.449219 23.140625 8.449219 23.117188 C 8.449219 23.101562 8.464844 23.082031 8.480469 23.082031 C 8.496094 23.082031 8.523438 23.058594 8.53125 23.03125 C 8.542969 23.003906 8.597656 22.933594 8.652344 22.886719 C 8.710938 22.832031 8.753906 22.777344 8.753906 22.757812 C 8.753906 22.738281 8.792969 22.695312 8.835938 22.664062 C 8.878906 22.632812 8.945312 22.578125 8.980469 22.546875 C 9.066406 22.464844 9.242188 22.347656 9.277344 22.347656 C 9.292969 22.347656 9.316406 22.328125 9.324219 22.304688 C 9.332031 22.28125 9.417969 22.222656 9.515625 22.171875 C 9.609375 22.125 9.695312 22.078125 9.703125 22.066406 C 9.714844 22.054688 9.789062 22.027344 9.871094 22.007812 C 9.957031 21.984375 10.03125 21.960938 10.039062 21.949219 C 10.0625 21.917969 10.328125 21.855469 10.4375 21.855469 C 10.488281 21.855469 10.53125 21.84375 10.53125 21.828125 C 10.53125 21.765625 11.425781 21.769531 11.496094 21.828125 Z M 11.496094 21.828125 "/>
<path style=" stroke:none;fill-rule:nonzero;fill:rgb(0%,0%,0%);fill-opacity:1;" d="M 18.554688 8.96875 C 18.308594 9.058594 18.175781 9.191406 18.023438 9.488281 L 17.941406 9.65625 L 17.9375 10.382812 C 17.9375 11.15625 17.921875 11.253906 17.792969 11.285156 C 17.722656 11.300781 17.722656 11.304688 17.722656 11.804688 L 17.722656 12.304688 L 17.800781 12.277344 C 17.84375 12.261719 17.9375 12.21875 18.007812 12.1875 C 18.078125 12.15625 18.199219 12.105469 18.277344 12.070312 C 18.460938 11.988281 18.691406 11.761719 18.773438 11.578125 C 18.796875 11.527344 18.8125 11.199219 18.828125 10.675781 C 18.839844 10.066406 18.851562 9.851562 18.882812 9.820312 C 18.941406 9.761719 21.5 9.761719 21.558594 9.820312 C 21.585938 9.851562 21.601562 10.066406 21.613281 10.675781 C 21.628906 11.46875 21.652344 11.664062 21.734375 11.664062 C 21.75 11.664062 21.765625 11.679688 21.765625 11.707031 C 21.765625 11.785156 22.042969 12.027344 22.207031 12.089844 C 22.292969 12.121094 22.421875 12.175781 22.492188 12.210938 C 22.5625 12.246094 22.632812 12.277344 22.644531 12.277344 C 22.675781 12.277344 23.015625 12.417969 23.042969 12.441406 C 23.070312 12.46875 23.601562 12.464844 23.601562 12.433594 C 23.601562 12.421875 23.667969 12.390625 23.746094 12.367188 C 23.871094 12.332031 23.964844 12.25 24.441406 11.78125 C 24.742188 11.480469 24.996094 11.234375 25 11.234375 C 25.035156 11.234375 26.90625 13.105469 26.90625 13.140625 C 26.90625 13.179688 26.792969 13.300781 26.308594 13.789062 C 25.902344 14.191406 25.835938 14.269531 25.789062 14.417969 C 25.753906 14.511719 25.71875 14.589844 25.707031 14.597656 C 25.675781 14.609375 25.675781 15.0625 25.710938 15.0625 C 25.726562 15.0625 25.746094 15.105469 25.757812 15.160156 C 25.777344 15.273438 25.925781 15.648438 25.957031 15.671875 C 25.96875 15.683594 26 15.765625 26.03125 15.859375 C 26.085938 16.054688 26.257812 16.285156 26.382812 16.351562 C 26.425781 16.375 26.480469 16.40625 26.496094 16.429688 C 26.566406 16.511719 26.792969 16.539062 27.542969 16.550781 L 28.320312 16.566406 L 28.351562 16.648438 C 28.386719 16.742188 28.375 19.238281 28.335938 19.277344 C 28.324219 19.289062 27.941406 19.308594 27.496094 19.320312 C 26.707031 19.335938 26.480469 19.363281 26.480469 19.441406 C 26.480469 19.457031 26.460938 19.46875 26.4375 19.46875 C 26.351562 19.46875 26.09375 19.796875 26.03125 19.988281 C 26.003906 20.089844 25.964844 20.171875 25.957031 20.171875 C 25.945312 20.171875 25.890625 20.300781 25.835938 20.457031 C 25.78125 20.609375 25.722656 20.753906 25.707031 20.769531 C 25.671875 20.808594 25.675781 21.277344 25.714844 21.277344 C 25.734375 21.277344 25.746094 21.296875 25.746094 21.324219 C 25.746094 21.480469 25.898438 21.679688 26.390625 22.175781 C 26.675781 22.457031 26.90625 22.699219 26.90625 22.714844 C 26.90625 22.742188 25.039062 24.613281 25.011719 24.613281 C 25 24.613281 24.753906 24.378906 24.464844 24.09375 C 23.949219 23.585938 23.765625 23.449219 23.597656 23.449219 C 23.566406 23.449219 23.539062 23.433594 23.539062 23.417969 C 23.539062 23.398438 23.441406 23.386719 23.3125 23.386719 C 23.179688 23.386719 23.082031 23.398438 23.082031 23.417969 C 23.082031 23.433594 23.0625 23.449219 23.039062 23.449219 C 22.988281 23.449219 22.492188 23.636719 22.46875 23.664062 C 22.460938 23.671875 22.371094 23.710938 22.273438 23.738281 C 22.082031 23.804688 21.765625 24.054688 21.765625 24.140625 C 21.765625 24.164062 21.753906 24.183594 21.742188 24.183594 C 21.726562 24.183594 21.695312 24.21875 21.671875 24.265625 C 21.640625 24.332031 21.625 24.566406 21.613281 25.1875 C 21.601562 25.886719 21.589844 26.027344 21.550781 26.050781 C 21.523438 26.070312 20.972656 26.082031 20.214844 26.082031 C 19.054688 26.082031 18.921875 26.074219 18.882812 26.03125 C 18.851562 25.992188 18.839844 25.789062 18.828125 25.167969 C 18.808594 24.375 18.785156 24.183594 18.703125 24.183594 C 18.6875 24.183594 18.671875 24.164062 18.671875 24.140625 C 18.671875 24.050781 18.347656 23.792969 18.164062 23.738281 C 18.0625 23.707031 17.980469 23.671875 17.96875 23.65625 C 17.953125 23.640625 17.710938 23.539062 17.671875 23.539062 C 17.667969 23.539062 17.667969 23.765625 17.667969 24.035156 L 17.679688 24.53125 L 17.777344 24.558594 C 17.828125 24.574219 17.882812 24.613281 17.898438 24.640625 C 17.910156 24.667969 17.929688 25.050781 17.9375 25.492188 C 17.949219 26.003906 17.964844 26.304688 17.988281 26.320312 C 18.003906 26.332031 18.042969 26.398438 18.078125 26.464844 C 18.164062 26.648438 18.359375 26.824219 18.546875 26.886719 C 18.691406 26.933594 18.882812 26.9375 20.230469 26.9375 C 21.601562 26.9375 21.765625 26.933594 21.898438 26.886719 C 22.082031 26.820312 22.28125 26.640625 22.398438 26.433594 L 22.484375 26.28125 L 22.5 25.480469 C 22.519531 24.5625 22.496094 24.621094 22.828125 24.507812 C 22.945312 24.46875 23.089844 24.40625 23.15625 24.371094 C 23.226562 24.335938 23.296875 24.304688 23.3125 24.304688 C 23.328125 24.304688 23.582031 24.542969 23.867188 24.828125 C 24.503906 25.453125 24.546875 25.480469 24.996094 25.484375 C 25.320312 25.484375 25.507812 25.4375 25.636719 25.3125 C 25.71875 25.238281 27.535156 23.421875 27.609375 23.34375 C 27.710938 23.230469 27.769531 23.042969 27.785156 22.769531 C 27.800781 22.539062 27.796875 22.476562 27.730469 22.308594 C 27.667969 22.136719 27.613281 22.070312 27.132812 21.582031 C 26.839844 21.289062 26.601562 21.035156 26.601562 21.015625 C 26.601562 20.996094 26.632812 20.929688 26.667969 20.863281 C 26.703125 20.792969 26.765625 20.648438 26.804688 20.53125 C 26.917969 20.199219 26.859375 20.222656 27.777344 20.203125 L 28.578125 20.1875 L 28.730469 20.101562 C 28.933594 19.988281 29.117188 19.789062 29.183594 19.601562 C 29.230469 19.464844 29.234375 19.324219 29.230469 17.875 L 29.21875 16.300781 L 29.148438 16.167969 C 29.054688 15.996094 28.902344 15.84375 28.757812 15.78125 C 28.691406 15.753906 28.628906 15.714844 28.617188 15.695312 C 28.601562 15.667969 28.378906 15.65625 27.804688 15.648438 C 27.304688 15.644531 26.992188 15.628906 26.949219 15.609375 C 26.902344 15.585938 26.859375 15.5 26.804688 15.324219 C 26.757812 15.191406 26.695312 15.035156 26.664062 14.984375 C 26.628906 14.933594 26.601562 14.871094 26.601562 14.847656 C 26.601562 14.820312 26.839844 14.558594 27.132812 14.265625 C 27.59375 13.796875 27.667969 13.707031 27.730469 13.550781 C 27.816406 13.316406 27.816406 13.015625 27.734375 12.761719 C 27.671875 12.582031 27.628906 12.535156 26.632812 11.539062 C 25.449219 10.351562 25.464844 10.367188 25.011719 10.367188 C 24.699219 10.367188 24.460938 10.4375 24.386719 10.550781 C 24.359375 10.589844 24.320312 10.621094 24.300781 10.621094 C 24.28125 10.621094 24.0625 10.828125 23.8125 11.082031 C 23.5625 11.332031 23.339844 11.539062 23.3125 11.539062 C 23.289062 11.539062 23.203125 11.507812 23.121094 11.46875 C 23.042969 11.425781 22.882812 11.363281 22.769531 11.328125 C 22.65625 11.289062 22.554688 11.234375 22.539062 11.207031 C 22.527344 11.179688 22.507812 10.800781 22.5 10.363281 C 22.484375 9.601562 22.480469 9.5625 22.417969 9.46875 C 22.378906 9.417969 22.347656 9.359375 22.347656 9.339844 C 22.347656 9.269531 22.066406 9.035156 21.902344 8.976562 C 21.734375 8.910156 21.695312 8.90625 20.226562 8.90625 C 18.8125 8.910156 18.710938 8.914062 18.554688 8.96875 Z M 18.554688 8.96875 "/>
<path style=" stroke:none;fill-rule:nonzero;fill:rgb(0%,0%,0%);fill-opacity:1;" d="M 19.621094 14.417969 C 19.332031 14.46875 18.65625 14.691406 18.613281 14.753906 C 18.601562 14.765625 18.523438 14.8125 18.433594 14.855469 C 18.34375 14.902344 18.210938 14.988281 18.140625 15.046875 C 18.066406 15.105469 18 15.152344 17.992188 15.152344 C 17.964844 15.152344 17.449219 15.671875 17.449219 15.699219 C 17.449219 15.710938 17.398438 15.769531 17.34375 15.835938 C 17.285156 15.898438 17.199219 16.03125 17.15625 16.125 C 17.109375 16.222656 17.058594 16.308594 17.046875 16.316406 C 17.03125 16.324219 16.980469 16.445312 16.929688 16.582031 C 16.882812 16.71875 16.832031 16.855469 16.8125 16.886719 C 16.746094 17.003906 16.683594 17.53125 16.683594 17.921875 C 16.683594 18.339844 16.746094 18.832031 16.820312 18.992188 C 16.847656 19.042969 16.890625 19.152344 16.917969 19.238281 C 16.972656 19.421875 17.238281 19.902344 17.359375 20.050781 C 17.617188 20.367188 17.710938 20.460938 17.90625 20.636719 C 18.089844 20.792969 18.191406 20.867188 18.382812 20.972656 C 18.484375 21.027344 18.582031 21.089844 18.601562 21.109375 C 18.621094 21.128906 18.738281 21.175781 18.863281 21.214844 C 18.984375 21.253906 19.101562 21.296875 19.117188 21.308594 C 19.214844 21.382812 19.554688 21.433594 20.035156 21.449219 C 20.628906 21.46875 21.007812 21.429688 21.289062 21.324219 C 21.390625 21.285156 21.558594 21.21875 21.667969 21.183594 C 21.769531 21.148438 21.855469 21.105469 21.855469 21.09375 C 21.855469 21.082031 21.914062 21.050781 21.980469 21.019531 C 22.15625 20.941406 22.527344 20.664062 22.742188 20.445312 C 22.960938 20.230469 23.238281 19.859375 23.3125 19.683594 C 23.34375 19.617188 23.378906 19.5625 23.390625 19.5625 C 23.398438 19.5625 23.441406 19.476562 23.480469 19.367188 C 23.515625 19.265625 23.582031 19.097656 23.617188 18.996094 C 23.808594 18.492188 23.800781 17.257812 23.601562 16.820312 C 23.570312 16.746094 23.539062 16.667969 23.539062 16.648438 C 23.539062 16.5625 23.207031 15.953125 23.097656 15.832031 C 23.054688 15.785156 23.019531 15.742188 23.019531 15.730469 C 23.019531 15.679688 22.464844 15.121094 22.414062 15.121094 C 22.402344 15.121094 22.347656 15.082031 22.292969 15.035156 C 22.238281 14.984375 22.113281 14.90625 22.019531 14.859375 C 21.921875 14.808594 21.835938 14.761719 21.828125 14.75 C 21.800781 14.714844 21.332031 14.542969 21.078125 14.472656 C 20.832031 14.402344 19.917969 14.371094 19.621094 14.417969 Z M 20.953125 15.382812 C 21.054688 15.410156 21.144531 15.445312 21.152344 15.460938 C 21.164062 15.472656 21.257812 15.519531 21.367188 15.566406 C 21.476562 15.613281 21.605469 15.683594 21.652344 15.722656 C 21.699219 15.761719 21.753906 15.796875 21.769531 15.796875 C 21.808594 15.796875 22.347656 16.335938 22.347656 16.375 C 22.347656 16.394531 22.378906 16.441406 22.421875 16.484375 C 22.460938 16.527344 22.535156 16.65625 22.578125 16.769531 C 22.628906 16.882812 22.675781 16.980469 22.6875 16.988281 C 22.726562 17.019531 22.808594 17.390625 22.832031 17.667969 C 22.878906 18.148438 22.800781 18.636719 22.621094 19.003906 C 22.574219 19.109375 22.53125 19.207031 22.53125 19.21875 C 22.53125 19.234375 22.507812 19.269531 22.480469 19.304688 C 22.449219 19.335938 22.382812 19.421875 22.335938 19.492188 C 22.238281 19.632812 21.886719 19.980469 21.75 20.070312 C 21.699219 20.101562 21.628906 20.152344 21.601562 20.179688 C 21.566406 20.210938 21.527344 20.234375 21.515625 20.234375 C 21.5 20.234375 21.390625 20.285156 21.273438 20.34375 C 21.15625 20.398438 20.949219 20.46875 20.824219 20.496094 C 20.496094 20.570312 19.949219 20.570312 19.636719 20.496094 C 19.378906 20.441406 18.828125 20.199219 18.785156 20.125 C 18.773438 20.101562 18.742188 20.082031 18.714844 20.082031 C 18.65625 20.082031 18.0625 19.492188 18.0625 19.433594 C 18.0625 19.410156 18.035156 19.367188 18.007812 19.34375 C 17.976562 19.316406 17.910156 19.199219 17.863281 19.082031 C 17.8125 18.96875 17.765625 18.867188 17.753906 18.855469 C 17.695312 18.8125 17.625 18.433594 17.609375 18.0625 C 17.589844 17.574219 17.640625 17.238281 17.78125 16.945312 C 17.832031 16.84375 17.894531 16.710938 17.921875 16.652344 C 18.035156 16.394531 18.492188 15.890625 18.714844 15.777344 C 18.765625 15.746094 18.828125 15.707031 18.84375 15.6875 C 18.859375 15.664062 18.960938 15.609375 19.070312 15.566406 C 19.179688 15.519531 19.289062 15.46875 19.308594 15.449219 C 19.332031 15.433594 19.464844 15.394531 19.601562 15.363281 C 19.917969 15.289062 20.667969 15.304688 20.953125 15.382812 Z M 20.953125 15.382812 "/>
</g>
</svg>
