<?xml version="1.0" encoding="UTF-8"?>
<svg xmlns="http://www.w3.org/2000/svg" xmlns:xlink="http://www.w3.org/1999/xlink" width="200pt" height="200pt" viewBox="0 0 200 200" version="1.1">
<g id="surface1">
<path style=" stroke:none;fill-rule:nonzero;fill:rgb(0%,0%,0%);fill-opacity:1;" d="M 18.238281 12.8125 C 16.28125 14.058594 13.699219 16.546875 12.632812 18.503906 L 10.675781 22.0625 L 10.855469 101.15625 L 11.121094 180.339844 L 13.613281 183.539062 C 18.417969 189.859375 12.722656 189.5 99.910156 189.5 L 178.558594 189.5 L 182.117188 186.921875 C 188.96875 181.941406 188.613281 186.476562 188.613281 100.089844 C 188.613281 47.953125 188.34375 22.421875 187.632812 20.730469 C 186.476562 17.703125 182.738281 13.613281 179.539062 11.921875 C 177.492188 10.855469 164.589844 10.675781 99.464844 10.675781 L 21.796875 10.675781 Z M 177.046875 23.042969 C 178.113281 25.179688 178.292969 175.980469 177.222656 177.757812 C 176.601562 178.648438 160.410156 178.824219 99.109375 178.648438 L 21.796875 178.378906 L 21.53125 101.066406 C 21.441406 44.660156 21.621094 23.488281 22.332031 22.597656 C 23.21875 21.53125 36.476562 21.351562 99.734375 21.351562 C 174.289062 21.351562 176.15625 21.351562 177.046875 23.042969 Z M 177.046875 23.042969 "/>
<path style=" stroke:none;fill-rule:nonzero;fill:rgb(0%,0%,0%);fill-opacity:1;" d="M 39.144531 34.609375 C 37.457031 35.5 34.875 37.898438 33.363281 39.945312 C 31.050781 43.238281 30.695312 44.484375 30.695312 49.734375 C 30.695312 54.804688 31.050781 56.316406 33.097656 59.429688 C 36.121094 63.878906 39.859375 66.015625 45.820312 66.726562 L 50.265625 67.171875 L 50.535156 115.570312 C 50.710938 159.074219 50.890625 164.144531 52.222656 165.660156 C 54.09375 167.792969 57.382812 167.703125 59.609375 165.480469 C 61.386719 163.699219 61.386719 162.542969 61.386719 115.300781 L 61.386719 66.902344 L 66.191406 66.546875 C 75.621094 65.746094 80.960938 59.609375 80.960938 49.734375 C 80.960938 42.617188 78.46875 37.8125 73.398438 34.964844 C 70.105469 33.097656 68.683594 32.917969 56.050781 32.917969 C 44.304688 32.917969 41.816406 33.183594 39.144531 34.609375 Z M 70.105469 48.753906 C 70.550781 55.871094 70.285156 56.050781 56.140625 56.050781 C 49.464844 56.050781 43.503906 55.695312 42.972656 55.339844 C 41.726562 54.539062 41.191406 46.261719 42.171875 44.574219 C 42.617188 43.859375 46.707031 43.59375 56.316406 43.773438 L 69.839844 44.039062 Z M 70.105469 48.753906 "/>
<path style=" stroke:none;fill-rule:nonzero;fill:rgb(0%,0%,0%);fill-opacity:1;" d="M 95.195312 34.699219 C 93.503906 36.386719 93.417969 37.632812 93.417969 68.058594 L 93.417969 99.644531 L 90.570312 99.644531 C 84.253906 99.734375 77.847656 104.269531 75.179688 110.5 C 70.996094 120.730469 77.9375 132.738281 88.789062 134.074219 L 93.417969 134.609375 L 93.417969 149.109375 C 93.417969 162.542969 93.59375 163.878906 95.195312 165.480469 C 97.421875 167.703125 100.710938 167.792969 102.578125 165.660156 C 103.824219 164.234375 104.09375 161.742188 104.09375 149.199219 L 104.09375 134.339844 L 107.652344 134.339844 C 114.058594 134.339844 120.550781 130.605469 123.308594 125.265625 C 124.910156 122.152344 124.910156 111.832031 123.308594 108.71875 C 120.550781 103.378906 114.058594 99.644531 107.652344 99.644531 L 104.09375 99.644531 L 104.09375 67.703125 C 104.09375 39.769531 103.914062 35.5 102.667969 34.339844 C 100.800781 32.382812 97.332031 32.5625 95.195312 34.699219 Z M 113.257812 111.832031 C 113.613281 112.011719 113.878906 114.414062 113.878906 116.992188 C 113.878906 120.820312 113.523438 121.976562 112.1875 122.777344 C 109.609375 124.109375 88.789062 123.933594 86.832031 122.507812 C 85.675781 121.621094 85.320312 120.375 85.585938 116.546875 L 85.855469 111.65625 L 96.976562 111.210938 C 107.382812 110.765625 111.566406 110.941406 113.257812 111.832031 Z M 113.257812 111.832031 "/>
<path style=" stroke:none;fill-rule:nonzero;fill:rgb(0%,0%,0%);fill-opacity:1;" d="M 139.324219 34.339844 C 138.167969 35.410156 137.898438 37.898438 137.898438 46.351562 L 137.898438 56.941406 L 134.164062 56.941406 C 125.621094 56.941406 118.59375 63.433594 117.703125 72.242188 C 116.726562 82.027344 122.953125 89.859375 132.472656 90.746094 L 137.457031 91.191406 L 137.898438 128.378906 C 138.257812 160.140625 138.523438 165.660156 139.679688 166.371094 C 141.902344 167.792969 144.929688 167.347656 146.796875 165.480469 C 148.488281 163.789062 148.578125 162.542969 148.578125 127.222656 L 148.578125 90.746094 L 152.667969 90.746094 C 158.097656 90.746094 162.457031 88.523438 165.570312 84.253906 C 167.792969 81.140625 168.148438 79.894531 168.148438 74.554688 C 168.148438 67.882812 167.082031 64.945312 163.078125 61.210938 C 159.964844 58.273438 156.582031 56.941406 152.046875 56.941406 L 148.578125 56.941406 L 148.578125 46.707031 C 148.578125 37.632812 148.398438 36.300781 146.796875 34.699219 C 144.660156 32.5625 141.191406 32.382812 139.324219 34.339844 Z M 156.496094 68.859375 C 157.117188 69.574219 157.472656 72.152344 157.296875 74.910156 L 157.027344 79.625 L 129.449219 79.625 L 129.179688 74.378906 C 129.003906 70.730469 129.269531 68.859375 130.070312 68.417969 C 130.695312 67.972656 136.65625 67.617188 143.328125 67.617188 C 152.757812 67.617188 155.695312 67.882812 156.496094 68.859375 Z M 156.496094 68.859375 "/>
</g>
</svg>
