<?xml version="1.0" encoding="UTF-8"?>
<svg xmlns="http://www.w3.org/2000/svg" xmlns:xlink="http://www.w3.org/1999/xlink" width="300pt" height="300pt" viewBox="0 0 300 300" version="1.1">
<g id="surface1">
<path style=" stroke:none;fill-rule:nonzero;fill:rgb(0%,0%,0%);fill-opacity:1;" d="M 25.027344 61.886719 C 22.242188 63.171875 19.886719 65.527344 18.601562 68.3125 L 17.570312 70.5 L 17.570312 220.5 L 18.601562 222.6875 C 19.886719 225.472656 22.242188 227.828125 25.027344 229.113281 L 27.214844 230.144531 L 271.929688 230.144531 L 274.113281 229.113281 C 276.898438 227.828125 279.257812 225.472656 280.542969 222.6875 L 281.570312 220.5 L 281.570312 70.5 L 280.542969 68.3125 C 279.257812 65.527344 276.898438 63.171875 274.113281 61.886719 L 271.929688 60.855469 L 27.214844 60.855469 Z M 269.355469 69.855469 C 270.300781 70.070312 271.414062 70.671875 271.84375 71.1875 C 272.527344 72.042969 272.570312 76.242188 272.570312 145.585938 L 272.570312 219.042969 L 271.542969 220.070312 C 270.855469 220.757812 269.828125 221.144531 268.242188 221.355469 C 266.957031 221.484375 212.699219 221.570312 147.644531 221.484375 C 52.84375 221.398438 29.1875 221.230469 28.414062 220.800781 C 26.269531 219.601562 26.355469 222.984375 26.230469 147.429688 C 26.144531 108.429688 26.230469 75.472656 26.355469 74.269531 C 26.699219 71.570312 27.601562 70.328125 29.570312 69.855469 C 31.671875 69.386719 267.214844 69.34375 269.355469 69.855469 Z M 269.355469 69.855469 "/>
<path style=" stroke:none;fill-rule:nonzero;fill:rgb(0%,0%,0%);fill-opacity:1;" d="M 102.558594 101.785156 C 99.472656 102.644531 97.542969 103.671875 94.285156 106.285156 C 90.8125 109.027344 89.269531 109.714844 86.1875 109.714844 C 83.441406 109.714844 80.570312 108.558594 78.730469 106.800781 C 77.101562 105.214844 74.269531 105.171875 72.6875 106.671875 C 71.015625 108.214844 71.144531 110.871094 72.898438 112.929688 C 76.027344 116.484375 82.15625 118.628906 87.984375 118.15625 C 92.015625 117.855469 95.355469 116.484375 98.914062 113.65625 C 102.601562 110.699219 103.757812 110.101562 106.5 109.84375 C 109.628906 109.5 112.371094 110.527344 115.457031 113.1875 C 118.457031 115.757812 121.113281 117.128906 124.199219 117.8125 C 130.714844 119.1875 136.84375 117.601562 141.769531 113.3125 C 144.644531 110.785156 147.085938 109.714844 150 109.714844 C 152.914062 109.714844 155.355469 110.785156 158.269531 113.355469 C 162.042969 116.65625 166.199219 118.242188 171.085938 118.285156 C 176.230469 118.285156 180.214844 116.785156 184.242188 113.355469 C 187.714844 110.398438 188.742188 109.972656 192.472656 109.929688 C 196.242188 109.929688 197.230469 110.3125 200.527344 113.230469 C 207 118.886719 215.828125 119.914062 223.113281 115.886719 C 228.171875 113.101562 229.800781 109.671875 227.398438 106.84375 C 226.542969 105.855469 226.027344 105.644531 224.484375 105.644531 C 222.984375 105.644531 222.257812 105.941406 220.714844 107.1875 C 218.355469 109.070312 216.558594 109.714844 213.644531 109.714844 C 210.8125 109.714844 209.058594 108.984375 206.101562 106.628906 C 201.085938 102.558594 198.898438 101.613281 193.84375 101.269531 C 188.230469 100.886719 184.457031 102.171875 179.527344 106.113281 C 176.058594 108.941406 174.257812 109.714844 171.214844 109.714844 C 168.128906 109.714844 166.414062 108.941406 163.15625 106.242188 C 161.699219 105 159.257812 103.414062 157.714844 102.6875 C 155.101562 101.441406 154.628906 101.355469 150 101.355469 C 145.414062 101.355469 144.898438 101.441406 142.285156 102.6875 C 140.742188 103.414062 138.300781 105 136.886719 106.199219 C 133.585938 108.898438 131.699219 109.714844 128.613281 109.714844 C 125.699219 109.714844 123.601562 108.769531 120.472656 106.15625 C 115.113281 101.65625 108.769531 100.113281 102.558594 101.785156 Z M 102.558594 101.785156 "/>
<path style=" stroke:none;fill-rule:nonzero;fill:rgb(0%,0%,0%);fill-opacity:1;" d="M 102 137.828125 C 98.484375 138.984375 96.769531 140.015625 93.042969 143.230469 C 92.015625 144.128906 90.8125 144.855469 90.386719 144.855469 C 89.957031 144.855469 89.484375 145.027344 89.355469 145.285156 C 89.230469 145.5 87.941406 145.714844 86.570312 145.714844 C 83.699219 145.714844 81.171875 144.769531 78.6875 142.757812 C 76.585938 141.085938 74.699219 141 72.898438 142.542969 C 71.785156 143.484375 71.570312 143.957031 71.570312 145.542969 C 71.570312 147 71.828125 147.730469 72.898438 148.929688 C 77.613281 154.285156 87.429688 155.871094 94.714844 152.441406 C 96.085938 151.800781 98.355469 150.171875 100.371094 148.414062 C 102.558594 146.484375 104.65625 145.714844 107.527344 145.714844 C 110.441406 145.714844 112.628906 146.65625 115.5 149.144531 C 119.613281 152.699219 123.6875 154.285156 128.785156 154.285156 C 133.886719 154.285156 137.101562 153 142.285156 148.929688 C 145.414062 146.484375 147.257812 145.714844 150 145.714844 C 152.742188 145.714844 154.585938 146.484375 157.714844 148.929688 C 162.898438 153 166.113281 154.285156 171.214844 154.285156 C 176.355469 154.285156 180.042969 152.828125 184.757812 148.929688 C 187.585938 146.570312 189.644531 145.714844 192.386719 145.714844 C 195.171875 145.714844 197.398438 146.527344 199.414062 148.285156 C 202.070312 150.601562 205.628906 152.742188 208.242188 153.558594 C 211.199219 154.5 216.300781 154.5 219.386719 153.558594 C 222.171875 152.699219 225.8125 150.472656 227.355469 148.628906 C 228.898438 146.785156 228.855469 144.34375 227.1875 142.671875 C 225.429688 140.914062 223.542969 141 221.058594 142.886719 C 218.527344 144.855469 216.300781 145.714844 213.941406 145.714844 C 210.898438 145.714844 209.058594 144.941406 205.671875 142.199219 C 200.871094 138.386719 197.65625 137.144531 192.472656 137.144531 C 187.113281 137.144531 183.472656 138.601562 178.929688 142.542969 C 177.769531 143.570312 175.972656 144.6875 174.898438 145.070312 C 172.757812 145.800781 168.601562 145.929688 168.214844 145.285156 C 168.085938 145.027344 167.613281 144.855469 167.230469 144.855469 C 166.84375 144.855469 165.171875 143.742188 163.5 142.414062 C 161.871094 141.085938 159.257812 139.414062 157.714844 138.6875 C 155.101562 137.441406 154.628906 137.355469 150 137.355469 C 145.371094 137.355469 144.898438 137.441406 142.285156 138.6875 C 140.742188 139.414062 138.257812 141 136.714844 142.242188 C 133.371094 144.941406 131.699219 145.714844 129.042969 145.714844 C 126.128906 145.714844 123.472656 144.6875 121.070312 142.542969 C 116.441406 138.558594 112.886719 137.144531 107.398438 137.144531 C 105.515625 137.1875 103.070312 137.484375 102 137.828125 Z M 102 137.828125 "/>
<path style=" stroke:none;fill-rule:nonzero;fill:rgb(0%,0%,0%);fill-opacity:1;" d="M 102.429688 173.742188 C 99.300781 174.601562 96.730469 176.015625 94.242188 178.242188 C 89.269531 182.613281 84.601562 182.914062 79.242188 179.144531 C 76.199219 177 74.613281 176.914062 72.8125 178.671875 C 71.828125 179.699219 71.570312 180.300781 71.570312 181.84375 C 71.570312 183.601562 71.742188 183.941406 73.585938 185.570312 C 77.355469 188.871094 82.371094 190.542969 87.601562 190.199219 C 91.886719 189.898438 94.671875 188.785156 98.914062 185.570312 C 103.542969 182.101562 104.398438 181.714844 107.484375 181.714844 C 110.484375 181.714844 112.628906 182.65625 115.628906 185.230469 C 119.570312 188.613281 123.855469 190.285156 128.785156 190.285156 C 133.84375 190.285156 137.785156 188.699219 142.199219 184.972656 C 145.070312 182.527344 147.042969 181.714844 150.085938 181.714844 C 152.914062 181.714844 154.585938 182.441406 157.714844 184.972656 C 162.472656 188.828125 166.199219 190.285156 171.214844 190.285156 C 176.269531 190.285156 180.34375 188.65625 184.757812 184.929688 C 187.628906 182.484375 189.515625 181.714844 192.429688 181.714844 C 195.386719 181.714844 197.3125 182.527344 200.441406 185.101562 C 203.484375 187.542969 204.214844 188.015625 207.214844 189.214844 C 209.484375 190.15625 214.84375 190.5 217.585938 189.941406 C 220.757812 189.257812 224.101562 187.585938 226.414062 185.570312 C 228.257812 183.941406 228.429688 183.601562 228.429688 181.84375 C 228.429688 180.300781 228.171875 179.699219 227.1875 178.671875 C 225.34375 176.871094 223.84375 177 220.457031 179.3125 C 217.457031 181.414062 215.144531 182.015625 211.886719 181.542969 C 209.613281 181.242188 208.714844 180.769531 205.757812 178.199219 C 197.785156 171.257812 187.113281 171.386719 178.929688 178.542969 C 176.230469 180.898438 173.398438 181.886719 170.144531 181.585938 C 167.355469 181.328125 166.585938 180.984375 163.113281 178.15625 C 158.699219 174.558594 154.972656 173.144531 150 173.144531 C 145.027344 173.144531 140.914062 174.730469 136.714844 178.242188 C 133.5 180.941406 132.644531 181.328125 129.855469 181.585938 C 126.601562 181.886719 123.769531 180.941406 121.070312 178.585938 C 118.242188 176.144531 115.371094 174.472656 112.628906 173.742188 C 109.84375 173.015625 105.042969 173.015625 102.429688 173.742188 Z M 102.429688 173.742188 "/>
</g>
</svg>
