<?xml version="1.0" encoding="UTF-8"?>
<svg xmlns="http://www.w3.org/2000/svg" xmlns:xlink="http://www.w3.org/1999/xlink" width="30pt" height="30pt" viewBox="0 0 40 40" version="1.1">
<g id="surface1">
<path style=" stroke:none;fill-rule:nonzero;fill:rgb(0%,0%,0%);fill-opacity:1;" d="M 3.9375 9.359375 C 3.796875 9.394531 3.554688 9.488281 3.40625 9.570312 C 3.050781 9.753906 2.507812 10.296875 2.320312 10.648438 C 2.027344 11.207031 2.042969 10.621094 2.042969 20 C 2.042969 29.378906 2.027344 28.792969 2.320312 29.351562 C 2.503906 29.703125 3.050781 30.246094 3.40625 30.429688 C 3.972656 30.734375 2.621094 30.710938 20 30.710938 C 37.367188 30.710938 36.027344 30.734375 36.59375 30.4375 C 36.945312 30.253906 37.488281 29.707031 37.675781 29.351562 C 37.972656 28.796875 37.957031 29.382812 37.957031 20 C 37.957031 10.617188 37.972656 11.203125 37.675781 10.648438 C 37.488281 10.292969 36.945312 9.746094 36.59375 9.5625 C 36.027344 9.265625 37.375 9.289062 19.976562 9.292969 C 6.507812 9.296875 4.160156 9.308594 3.9375 9.359375 Z M 27.6875 18.152344 L 20.464844 25.367188 L 20.21875 25.421875 C 20.007812 25.472656 19.933594 25.464844 19.730469 25.410156 C 19.492188 25.335938 19.328125 25.179688 12.289062 18.132812 L 5.089844 10.933594 L 34.910156 10.933594 Z M 18.644531 26.722656 C 19.425781 27.1875 20.378906 27.222656 21.167969 26.816406 C 21.472656 26.664062 21.921875 26.222656 28.890625 19.257812 C 32.960938 15.195312 36.308594 11.867188 36.324219 11.867188 C 36.34375 11.867188 36.351562 15.574219 36.347656 20.101562 L 36.332031 28.335938 L 36.21875 28.554688 C 36.078125 28.832031 35.832031 29.007812 35.511719 29.066406 C 35.347656 29.097656 30.085938 29.105469 19.84375 29.101562 L 4.421875 29.089844 L 4.199219 28.976562 C 3.929688 28.839844 3.75 28.59375 3.6875 28.269531 C 3.664062 28.117188 3.644531 25.183594 3.644531 19.9375 L 3.644531 11.84375 L 11.011719 19.203125 C 16.691406 24.878906 18.441406 26.601562 18.644531 26.722656 Z M 18.644531 26.722656 "/>
</g>
</svg>
