<?xml version="1.0" encoding="UTF-8"?>
<svg xmlns="http://www.w3.org/2000/svg" xmlns:xlink="http://www.w3.org/1999/xlink" width="200pt" height="200pt" viewBox="0 0 200 200" version="1.1">
<g id="surface1">
<path style=" stroke:none;fill-rule:nonzero;fill:rgb(0%,0%,0%);fill-opacity:1;" d="M 91.210938 14.492188 C 75.3125 15.976562 58.242188 23.046875 45.3125 33.476562 C 41.835938 36.289062 34.882812 43.398438 32.382812 46.679688 C 15.273438 69.0625 9.804688 97.5 17.460938 124.023438 C 20.273438 133.867188 25.820312 144.765625 32.382812 153.320312 C 34.882812 156.601562 41.835938 163.710938 45.3125 166.523438 C 57.5 176.367188 72.421875 182.851562 88.476562 185.195312 C 93.632812 185.976562 108.007812 185.859375 113.710938 185.039062 C 126.835938 183.085938 138.164062 178.867188 148.242188 172.070312 C 166.835938 159.570312 178.242188 140.15625 181.71875 115.039062 C 182.382812 110.234375 182.382812 95.273438 181.679688 90.898438 L 181.171875 87.5 L 100 87.5 L 100 117.1875 L 124.21875 117.1875 C 138.085938 117.1875 148.4375 117.34375 148.4375 117.539062 C 148.4375 118.710938 146.210938 125.273438 144.921875 127.8125 C 136.953125 143.75 121.796875 153.007812 102.34375 153.789062 C 75.585938 154.882812 52.460938 135.820312 47.8125 108.984375 C 47.34375 106.132812 47.226562 103.671875 47.382812 98.242188 C 47.539062 92.03125 47.695312 90.664062 48.75 86.640625 C 55.78125 59.6875 81.015625 42.695312 108.125 46.71875 C 117.1875 48.046875 126.171875 52.148438 132.070312 57.695312 C 133.984375 59.492188 133.984375 59.492188 134.84375 58.75 C 136.835938 57.03125 157.617188 36.914062 157.617188 36.679688 C 157.617188 36.328125 153.320312 32.65625 150.117188 30.234375 C 133.945312 18.007812 113.085938 12.460938 91.210938 14.492188 Z M 91.210938 14.492188 "/>
</g>
</svg>
