<?xml version="1.0" encoding="UTF-8" standalone="no"?>
<svg
   width="30pt"
   height="30pt"
   viewBox="0 0 40 40"
   version="1.1"
   id="svg9"
   sodipodi:docname="8765336765da31784762f5503d1eb002.svg"
   xmlns:inkscape="http://www.inkscape.org/namespaces/inkscape"
   xmlns:sodipodi="http://sodipodi.sourceforge.net/DTD/sodipodi-0.dtd"
   xmlns="http://www.w3.org/2000/svg"
   xmlns:svg="http://www.w3.org/2000/svg">
  <defs
     id="defs13" />
  <sodipodi:namedview
     id="namedview11"
     pagecolor="#ffffff"
     bordercolor="#666666"
     borderopacity="1.0"
     inkscape:pageshadow="2"
     inkscape:pageopacity="0.0"
     inkscape:pagecheckerboard="0"
     inkscape:document-units="pt" />
  <g
     id="surface1">
    <path
       style=" stroke:none;fill-rule:nonzero;fill:rgb(0%,0%,0%);fill-opacity:1;"
       d="M 25.523438 8.242188 C 24.382812 8.460938 23.28125 8.898438 22.351562 9.515625 C 21.398438 10.148438 20.242188 11.398438 19.671875 12.398438 L 19.4375 12.8125 L 11.101562 12.8125 C 3.117188 12.8125 2.742188 12.820312 2.328125 12.960938 C 1.273438 13.320312 0.507812 14.085938 0.148438 15.140625 C 0.0078125 15.546875 0 15.875 0 21.171875 C 0 26.164062 0.015625 26.8125 0.125 27.148438 C 0.515625 28.273438 1.34375 29.070312 2.492188 29.421875 C 2.710938 29.484375 3.203125 29.53125 3.734375 29.53125 L 4.609375 29.53125 L 4.609375 30.132812 C 4.617188 31.210938 5.0625 31.796875 5.921875 31.851562 C 6.460938 31.890625 6.796875 31.734375 7.140625 31.304688 C 7.359375 31.03125 7.375 30.953125 7.40625 30.273438 L 7.4375 29.53125 L 32.5625 29.53125 L 32.59375 30.273438 C 32.625 30.953125 32.640625 31.03125 32.859375 31.304688 C 33.203125 31.734375 33.539062 31.890625 34.078125 31.851562 C 34.9375 31.796875 35.382812 31.210938 35.390625 30.132812 L 35.390625 29.53125 L 36.273438 29.53125 C 36.796875 29.53125 37.289062 29.484375 37.507812 29.421875 C 38.65625 29.070312 39.484375 28.273438 39.875 27.148438 C 39.984375 26.8125 40 26.164062 40 21.171875 C 40 15.875 39.992188 15.546875 39.851562 15.140625 C 39.492188 14.085938 38.726562 13.320312 37.671875 12.960938 C 37.3125 12.835938 37.015625 12.8125 35.890625 12.8125 L 34.53125 12.8125 L 34.382812 12.515625 C 34.117188 12 33.328125 11 32.726562 10.421875 C 31.679688 9.421875 30.476562 8.75 29.078125 8.382812 C 28.109375 8.132812 26.453125 8.070312 25.523438 8.242188 Z M 28.132812 11.046875 C 30.8125 11.617188 32.734375 14.125 32.554688 16.84375 C 32.28125 20.992188 27.757812 23.40625 24.179688 21.3125 C 23.5 20.914062 22.5625 19.96875 22.164062 19.296875 C 20.28125 16.0625 22.148438 11.851562 25.820312 11.054688 C 26.445312 10.914062 27.5 10.914062 28.132812 11.046875 Z M 18.617188 16.226562 C 18.546875 17.476562 18.875 18.992188 19.492188 20.234375 C 20.4375 22.15625 22.1875 23.710938 24.1875 24.40625 C 25.960938 25.023438 28.023438 25.023438 29.796875 24.40625 C 32.289062 23.539062 34.367188 21.3125 35.070312 18.765625 C 35.28125 17.992188 35.414062 16.71875 35.351562 16.070312 L 35.304688 15.546875 L 35.9375 15.546875 C 36.773438 15.546875 37.070312 15.671875 37.1875 16.070312 C 37.25 16.28125 37.265625 17.851562 37.25 21.34375 L 37.226562 26.3125 L 36.851562 26.71875 L 3.148438 26.71875 L 2.773438 26.3125 L 2.75 21.34375 C 2.734375 17.851562 2.75 16.28125 2.8125 16.070312 C 2.96875 15.523438 2.53125 15.554688 11.03125 15.546875 L 18.664062 15.546875 Z M 18.617188 16.226562 "
       id="path2" />
    <path
       style=" stroke:none;fill-rule:nonzero;fill:rgb(0%,0%,0%);fill-opacity:1;"
       d="M 5.523438 17.53125 C 5.359375 17.59375 5.148438 17.703125 5.0625 17.789062 C 4.835938 17.984375 4.609375 18.5 4.609375 18.828125 C 4.609375 19.148438 4.835938 19.671875 5.046875 19.859375 C 5.460938 20.226562 5.546875 20.234375 9.546875 20.234375 C 13.210938 20.234375 13.320312 20.226562 13.648438 20.070312 C 14.109375 19.84375 14.375 19.390625 14.375 18.820312 C 14.375 18.320312 14.210938 18.015625 13.78125 17.6875 L 13.492188 17.460938 L 9.65625 17.445312 C 6.554688 17.429688 5.765625 17.445312 5.523438 17.53125 Z M 5.523438 17.53125 "
       id="path4" />
    <path
       style=" stroke:none;fill-rule:nonzero;fill:rgb(0%,0%,0%);fill-opacity:1;"
       d="M 5.429688 22.21875 C 4.671875 22.546875 4.398438 23.578125 4.882812 24.304688 C 5.257812 24.882812 5.234375 24.882812 9.179688 24.90625 C 11.117188 24.921875 12.875 24.90625 13.101562 24.882812 C 13.875 24.789062 14.3125 24.328125 14.351562 23.570312 C 14.390625 22.9375 14.179688 22.539062 13.671875 22.28125 C 13.328125 22.109375 13.3125 22.109375 9.492188 22.109375 C 6.484375 22.117188 5.609375 22.140625 5.429688 22.21875 Z M 5.429688 22.21875 "
       id="path6" />
  </g>
</svg>
