<?xml version="1.0" encoding="UTF-8"?>
<svg xmlns="http://www.w3.org/2000/svg" xmlns:xlink="http://www.w3.org/1999/xlink" width="30pt" height="30pt" viewBox="0 0 40 40" version="1.1">
<g id="surface1">
<path style=" stroke:none;fill-rule:nonzero;fill:rgb(0%,0%,0%);fill-opacity:1;" d="M 29.554688 5.160156 C 29.394531 5.179688 29.128906 5.226562 28.957031 5.269531 C 28.785156 5.3125 26.296875 6.132812 23.421875 7.097656 C 20.550781 8.0625 17.980469 8.90625 17.710938 8.976562 C 16.769531 9.21875 16.007812 9.632812 15.359375 10.261719 C 14.976562 10.636719 5.621094 21.214844 5.308594 21.632812 C 4.929688 22.128906 4.617188 22.8125 4.4375 23.535156 C 4.351562 23.875 4.332031 24.054688 4.332031 24.734375 C 4.332031 25.453125 4.347656 25.578125 4.453125 26 C 4.671875 26.851562 5.027344 27.550781 5.554688 28.167969 C 5.839844 28.496094 12.375 34.316406 12.96875 34.765625 C 13.351562 35.058594 14.230469 35.480469 14.6875 35.59375 C 16.320312 36.003906 17.996094 35.691406 19.226562 34.761719 C 19.421875 34.613281 19.730469 34.335938 19.914062 34.148438 C 20.324219 33.730469 29.605469 23.226562 29.839844 22.914062 C 30.246094 22.386719 30.644531 21.3125 30.753906 20.464844 C 30.785156 20.246094 31.292969 17.65625 31.890625 14.710938 C 32.484375 11.765625 32.996094 9.199219 33.023438 9.011719 C 33.097656 8.554688 33.058594 7.675781 32.945312 7.265625 C 32.75 6.558594 32.300781 5.945312 31.714844 5.578125 C 31.300781 5.320312 30.992188 5.21875 30.464844 5.160156 C 30.003906 5.105469 29.972656 5.105469 29.554688 5.160156 Z M 30.6875 6.996094 C 30.972656 7.125 31.167969 7.367188 31.269531 7.730469 C 31.421875 8.230469 31.367188 8.570312 30.492188 12.867188 C 30.050781 15.039062 29.675781 16.863281 29.667969 16.910156 C 29.632812 17.058594 29.59375 17.21875 29.578125 17.3125 C 29.5625 17.359375 29.457031 17.878906 29.328125 18.464844 C 29.203125 19.054688 29.09375 19.613281 29.085938 19.710938 C 29.042969 20.054688 28.882812 20.828125 28.792969 21.128906 C 28.632812 21.644531 28.480469 21.859375 27.398438 23.0625 C 26.976562 23.535156 26.640625 23.921875 26.480469 24.109375 C 26.054688 24.625 19.050781 32.5625 18.761719 32.859375 C 17.910156 33.734375 17.054688 34.085938 15.914062 34.03125 C 15.128906 33.992188 14.621094 33.820312 14.035156 33.390625 C 13.640625 33.101562 7.125 27.351562 6.914062 27.105469 C 6.277344 26.355469 6.011719 25.578125 6.058594 24.539062 C 6.089844 23.765625 6.265625 23.257812 6.734375 22.625 C 6.929688 22.359375 14.601562 13.648438 15.246094 12.957031 C 15.40625 12.785156 15.804688 12.351562 16.125 11.992188 C 16.554688 11.511719 16.785156 11.292969 16.976562 11.183594 C 17.28125 11.003906 17.882812 10.769531 18.488281 10.601562 C 18.71875 10.535156 19.011719 10.445312 19.132812 10.398438 C 19.257812 10.355469 19.636719 10.226562 19.976562 10.121094 C 20.320312 10.007812 20.664062 9.898438 20.734375 9.871094 C 21.277344 9.683594 21.730469 9.523438 22.089844 9.390625 C 22.941406 9.074219 29.277344 6.972656 29.554688 6.910156 C 29.945312 6.820312 30.382812 6.851562 30.6875 6.996094 Z M 30.6875 6.996094 "/>
<path style=" stroke:none;fill-rule:nonzero;fill:rgb(0%,0%,0%);fill-opacity:1;" d="M 25.308594 10.464844 C 24.972656 10.574219 24.734375 10.71875 24.453125 10.996094 C 24.003906 11.425781 23.820312 11.863281 23.820312 12.488281 C 23.820312 13.117188 24.003906 13.550781 24.453125 13.980469 C 24.898438 14.414062 25.292969 14.578125 25.910156 14.578125 C 26.539062 14.578125 26.972656 14.394531 27.40625 13.945312 C 27.835938 13.503906 28 13.105469 28 12.488281 C 28 11.871094 27.835938 11.476562 27.40625 11.03125 C 27.125 10.742188 26.851562 10.574219 26.492188 10.460938 C 26.238281 10.386719 25.554688 10.386719 25.308594 10.464844 Z M 26.164062 12.230469 C 26.390625 12.445312 26.230469 12.84375 25.914062 12.84375 C 25.707031 12.84375 25.554688 12.703125 25.554688 12.492188 C 25.554688 12.171875 25.929688 12.007812 26.164062 12.230469 Z M 26.164062 12.230469 "/>
</g>
</svg>
