<?xml version="1.0" encoding="UTF-8"?>
<svg xmlns="http://www.w3.org/2000/svg" xmlns:xlink="http://www.w3.org/1999/xlink" width="300pt" height="300pt" viewBox="0 0 300 300" version="1.1">
<g id="surface1">
<path style=" stroke:none;fill-rule:nonzero;fill:rgb(0%,0%,0%);fill-opacity:1;" d="M 266.570312 45.257812 C 266.230469 45.300781 264.984375 45.515625 263.828125 45.644531 C 261.855469 45.898438 261.472656 46.199219 256.328125 51.386719 C 253.371094 54.386719 248.527344 59.398438 245.570312 62.570312 C 242.613281 65.699219 239.355469 69.171875 238.285156 70.285156 C 237.214844 71.398438 234.941406 73.84375 233.1875 75.6875 C 231.472656 77.570312 228 81.214844 225.472656 83.828125 C 222.984375 86.484375 218.65625 91.027344 215.914062 93.898438 C 213.171875 96.8125 209.742188 100.457031 208.285156 102 C 206.828125 103.542969 204.171875 106.371094 202.371094 108.34375 C 200.527344 110.269531 197.144531 113.871094 194.785156 116.3125 C 189.429688 121.929688 187.972656 123.472656 185.570312 126.429688 C 184.457031 127.714844 181.886719 130.414062 179.828125 132.429688 C 177.730469 134.441406 175.113281 137.015625 173.957031 138.214844 C 172.84375 139.371094 169.972656 142.371094 167.613281 144.8125 C 165.214844 147.257812 163.285156 149.398438 163.285156 149.613281 C 163.285156 150 170.015625 156.898438 171.515625 158.058594 C 172.15625 158.570312 172.371094 158.527344 173.230469 157.714844 C 173.785156 157.199219 176.144531 155.015625 178.457031 152.871094 C 180.8125 150.6875 184.585938 147.085938 186.8125 144.855469 C 190.886719 140.828125 198.855469 133.285156 202.371094 130.15625 C 203.398438 129.257812 205.886719 126.941406 207.898438 125.015625 C 209.957031 123.085938 213.941406 119.269531 216.855469 116.570312 C 219.730469 113.871094 224.269531 109.457031 226.972656 106.800781 C 229.671875 104.1875 231.984375 102 232.15625 102 C 232.285156 102 233.742188 100.714844 235.371094 99.085938 C 237 97.5 238.542969 96.214844 238.84375 96.214844 C 239.144531 96.214844 239.355469 96 239.355469 95.699219 C 239.355469 95.058594 239.914062 94.5 240.558594 94.5 C 240.855469 94.5 241.070312 94.285156 241.070312 93.984375 C 241.070312 93.429688 241.628906 92.785156 242.144531 92.785156 C 242.3125 92.785156 245.914062 89.484375 250.070312 85.5 C 254.269531 81.472656 259.628906 76.371094 262.027344 74.144531 C 273 63.769531 275.058594 61.628906 275.527344 60 C 276.128906 57.898438 276.128906 52.800781 275.484375 50.957031 C 274.972656 49.457031 272.957031 47.144531 272.230469 47.144531 C 271.972656 47.144531 271.714844 47.015625 271.628906 46.800781 C 271.457031 46.371094 268.371094 45 267.730469 45.042969 C 267.429688 45.085938 266.914062 45.171875 266.570312 45.257812 Z M 266.570312 45.257812 "/>
<path style=" stroke:none;fill-rule:nonzero;fill:rgb(0%,0%,0%);fill-opacity:1;" d="M 139.628906 79.414062 C 139.113281 79.585938 137.1875 79.714844 135.429688 79.671875 C 133.671875 79.628906 131.914062 79.714844 131.570312 79.84375 C 130.886719 80.101562 129.515625 80.3125 123.855469 81 C 121.84375 81.257812 119.914062 81.601562 119.570312 81.730469 C 119.230469 81.855469 118.671875 81.941406 118.328125 81.898438 C 117.558594 81.769531 111.300781 83.230469 111 83.570312 C 110.785156 83.871094 106.671875 84.558594 104.785156 84.644531 C 104.3125 84.6875 103.972656 84.855469 104.015625 85.113281 C 104.015625 85.328125 103.328125 85.542969 102.386719 85.542969 C 101.484375 85.585938 99.898438 86.015625 98.914062 86.527344 C 97.886719 87 96.171875 87.644531 95.058594 87.941406 C 93.898438 88.199219 93 88.585938 93 88.757812 C 93 88.929688 92.3125 89.1875 91.457031 89.355469 C 90.601562 89.484375 89.1875 90 88.371094 90.429688 C 87.558594 90.898438 86.699219 91.15625 86.527344 91.027344 C 86.1875 90.8125 81.984375 92.527344 80.570312 93.429688 C 80.230469 93.644531 77.828125 94.929688 75.214844 96.257812 C 72.644531 97.585938 69.730469 99.128906 68.785156 99.6875 C 67.84375 100.242188 66.257812 101.144531 65.269531 101.65625 C 64.242188 102.171875 63.429688 102.769531 63.429688 102.984375 C 63.429688 103.15625 63.257812 103.199219 63 103.070312 C 62.144531 102.515625 47.828125 113.871094 41.828125 119.828125 C 34.714844 126.941406 26.144531 138.214844 26.144531 140.441406 C 26.144531 140.957031 25.972656 141.429688 25.800781 141.515625 C 25.371094 141.6875 21.855469 148.585938 21.855469 149.230469 C 21.855469 149.441406 21.300781 150.898438 20.570312 152.441406 C 19.886719 153.941406 19.285156 155.484375 19.285156 155.828125 C 19.285156 156.214844 19.070312 156.855469 18.855469 157.328125 C 18.601562 157.800781 18.300781 159.472656 18.171875 161.058594 C 18.042969 162.644531 17.742188 164.101562 17.527344 164.355469 C 17.3125 164.570312 17.144531 165.558594 17.144531 166.542969 C 17.144531 167.570312 16.972656 168.472656 16.757812 168.601562 C 16.542969 168.730469 16.457031 171.898438 16.542969 175.585938 C 16.714844 182.570312 16.972656 185.484375 17.570312 186.214844 C 17.742188 186.429688 18.042969 188.058594 18.171875 189.8125 C 18.300781 191.570312 18.6875 193.285156 19.027344 193.671875 C 19.328125 194.058594 19.714844 194.914062 19.886719 195.644531 C 20.484375 198.429688 21.644531 201.6875 22.242188 202.371094 C 22.585938 202.757812 23.3125 204.300781 23.871094 205.800781 C 24.429688 207.257812 25.242188 208.800781 25.714844 209.230469 C 26.1875 209.699219 26.570312 210.300781 26.570312 210.6875 C 26.570312 211.027344 26.871094 211.414062 27.214844 211.542969 C 27.558594 211.671875 27.941406 212.484375 28.113281 213.300781 C 28.285156 214.113281 28.671875 214.886719 28.972656 215.015625 C 29.3125 215.144531 29.570312 215.484375 29.570312 215.828125 C 29.570312 216.171875 29.742188 216.429688 29.914062 216.429688 C 30.085938 216.429688 30.730469 217.199219 31.285156 218.144531 C 31.886719 219.085938 32.484375 219.855469 32.65625 219.855469 C 32.828125 219.855469 33.300781 220.542969 33.6875 221.398438 C 34.070312 222.257812 34.886719 223.15625 35.441406 223.414062 C 35.957031 223.628906 36.429688 224.058594 36.429688 224.3125 C 36.429688 224.699219 39.042969 228 40.15625 228.941406 C 40.328125 229.113281 41.871094 230.527344 43.5 232.070312 C 45.171875 233.613281 46.929688 234.984375 47.484375 235.113281 C 48 235.285156 48.429688 235.542969 48.429688 235.757812 C 48.429688 235.972656 48.898438 236.355469 49.5 236.570312 C 50.101562 236.785156 50.570312 237.214844 50.570312 237.515625 C 50.570312 238.070312 51.214844 238.5 54.128906 239.785156 C 54.984375 240.214844 55.714844 240.6875 55.714844 240.898438 C 55.714844 241.113281 55.929688 241.285156 56.144531 241.285156 C 56.398438 241.285156 57.386719 241.84375 58.371094 242.570312 C 59.3125 243.257812 60.472656 243.855469 60.941406 243.855469 C 61.371094 243.855469 61.714844 244.027344 61.714844 244.285156 C 61.714844 244.5 62.484375 244.929688 63.429688 245.1875 C 64.371094 245.484375 65.144531 245.914062 65.144531 246.171875 C 65.144531 246.730469 67.671875 247.800781 68.1875 247.457031 C 68.398438 247.328125 68.570312 247.414062 68.570312 247.671875 C 68.570312 247.886719 69.300781 248.3125 70.15625 248.613281 C 71.015625 248.871094 72.128906 249.472656 72.601562 249.898438 C 73.070312 250.371094 73.800781 250.714844 74.1875 250.714844 C 74.613281 250.714844 75.042969 250.886719 75.171875 251.101562 C 75.300781 251.269531 75.984375 251.570312 76.714844 251.699219 C 77.441406 251.871094 79.242188 252.601562 80.785156 253.328125 C 82.285156 254.058594 83.742188 254.527344 84 254.355469 C 84.214844 254.230469 84.429688 254.269531 84.429688 254.484375 C 84.429688 254.699219 85.285156 255.128906 86.3125 255.386719 C 87.386719 255.644531 88.457031 256.113281 88.800781 256.414062 C 89.101562 256.714844 91.285156 257.441406 93.644531 258 C 96 258.558594 98.015625 259.15625 98.144531 259.328125 C 98.441406 259.671875 100.585938 260.230469 102.644531 260.398438 C 103.542969 260.527344 104.527344 260.785156 104.742188 261 C 105 261.257812 105.601562 261.429688 106.113281 261.429688 C 106.628906 261.429688 107.144531 261.644531 107.230469 261.855469 C 107.3125 262.113281 108.34375 262.328125 109.5 262.328125 C 110.699219 262.371094 112.027344 262.542969 112.5 262.714844 C 114.472656 263.441406 118.199219 264.128906 120.214844 264.085938 C 121.371094 264.085938 122.527344 264.214844 122.785156 264.386719 C 123.515625 264.941406 127.929688 265.328125 135.214844 265.371094 C 144.6875 265.457031 151.800781 265.242188 152.613281 264.8125 C 152.957031 264.644531 154.886719 264.171875 156.898438 263.785156 C 158.871094 263.355469 160.714844 262.886719 160.972656 262.671875 C 161.230469 262.457031 162.257812 262.199219 163.328125 262.113281 C 168.128906 261.601562 175.242188 256.542969 175.886719 253.113281 C 176.441406 250.242188 174.515625 241.285156 173.355469 241.285156 C 173.058594 241.285156 172.585938 240.6875 172.285156 240 C 171.984375 239.269531 171.601562 238.714844 171.386719 238.714844 C 171.214844 238.714844 170.914062 238.285156 170.742188 237.730469 C 170.613281 237.214844 169.414062 235.757812 168.171875 234.515625 C 166.886719 233.269531 165.558594 231.6875 165.214844 231.042969 C 164.871094 230.355469 164.015625 229.199219 163.285156 228.515625 C 162.601562 227.785156 162 227.015625 162 226.714844 C 162 226.457031 161.742188 226.15625 161.398438 226.027344 C 161.058594 225.898438 160.628906 225.214844 160.5 224.570312 C 160.328125 223.886719 159.8125 222.515625 159.34375 221.484375 C 158.65625 220.070312 158.527344 219.171875 158.699219 217.328125 C 158.828125 216.042969 159.128906 214.886719 159.300781 214.757812 C 159.472656 214.628906 159.941406 213.898438 160.328125 213.214844 C 161.484375 211.199219 164.1875 209.484375 166.714844 209.230469 C 167.914062 209.144531 168.984375 208.84375 169.113281 208.671875 C 169.414062 208.15625 171.769531 208.199219 171.941406 208.714844 C 172.027344 208.972656 174.171875 209.269531 176.785156 209.355469 C 179.355469 209.484375 181.542969 209.742188 181.671875 209.957031 C 181.84375 210.171875 184.199219 210.601562 186.984375 210.898438 C 189.730469 211.15625 192 211.585938 192 211.800781 C 192 212.015625 192.855469 212.144531 193.929688 212.101562 C 194.957031 212.015625 195.941406 212.101562 196.113281 212.269531 C 196.285156 212.441406 197.527344 212.570312 198.898438 212.570312 C 200.269531 212.570312 201.472656 212.742188 201.601562 212.914062 C 201.855469 213.34375 214.671875 213.214844 218.355469 212.742188 C 219.769531 212.570312 221.015625 212.269531 221.144531 212.101562 C 221.269531 211.929688 222.984375 211.671875 225 211.542969 C 226.972656 211.414062 228.769531 211.113281 229.027344 210.855469 C 229.242188 210.644531 229.886719 210.429688 230.398438 210.429688 C 230.957031 210.429688 231.472656 210.257812 231.601562 210.042969 C 231.730469 209.828125 232.542969 209.527344 233.355469 209.398438 C 234.171875 209.230469 234.855469 208.972656 234.855469 208.757812 C 234.855469 208.585938 235.929688 208.199219 237.214844 207.898438 C 238.5 207.601562 239.570312 207.214844 239.570312 207.042969 C 239.570312 206.871094 240.300781 206.484375 241.199219 206.1875 C 242.058594 205.84375 242.871094 205.457031 243 205.242188 C 243.128906 205.070312 243.769531 204.8125 244.371094 204.6875 C 246.042969 204.386719 252.085938 199.714844 256.285156 195.429688 C 259.972656 191.699219 263.699219 186.730469 263.699219 185.570312 C 263.699219 185.230469 263.957031 184.714844 264.214844 184.5 C 264.855469 183.941406 267 179.058594 267 178.113281 C 267 177.730469 267.171875 177.429688 267.386719 177.429688 C 267.601562 177.429688 267.984375 176.441406 268.242188 175.285156 C 268.5 174.085938 269.015625 172.5 269.398438 171.730469 C 269.871094 170.914062 270.171875 168.941406 270.300781 166.5 C 270.386719 164.398438 270.644531 162.128906 270.898438 161.484375 C 271.542969 159.855469 271.585938 155.441406 270.984375 154.929688 C 270.6875 154.671875 270.386719 152.65625 270.257812 150 C 270.085938 146.65625 269.871094 145.414062 269.355469 145.027344 C 269.015625 144.769531 268.714844 144.171875 268.714844 143.742188 C 268.714844 142.457031 266.871094 136.972656 266.230469 136.328125 C 265.929688 135.984375 265.113281 134.527344 264.429688 133.070312 C 263.742188 131.613281 262.972656 130.15625 262.628906 129.8125 C 261.8125 128.914062 259.714844 125.785156 259.714844 125.398438 C 259.714844 124.757812 249.644531 114.429688 249 114.429688 C 248.785156 114.429688 248.527344 114.085938 248.355469 113.65625 C 248.230469 113.269531 247.027344 112.15625 245.742188 111.214844 C 244.457031 110.269531 242.785156 108.984375 242.058594 108.300781 C 241.371094 107.65625 240.601562 107.144531 240.386719 107.144531 C 240.171875 107.144531 239.230469 106.671875 238.328125 106.070312 C 236.828125 105.042969 235.285156 104.957031 235.285156 105.898438 C 235.285156 106.113281 235.070312 106.285156 234.855469 106.285156 C 234.601562 106.285156 233.570312 107.101562 232.542969 108.085938 C 231.515625 109.113281 230.144531 110.355469 229.5 110.828125 L 228.386719 111.730469 L 232.542969 114.472656 C 234.8125 115.972656 237.257812 117.601562 238.027344 118.113281 C 240.8125 120 250.285156 129.941406 252.558594 133.414062 C 255.171875 137.355469 257.699219 142.15625 258.34375 144.429688 C 258.601562 145.242188 259.070312 147 259.457031 148.285156 C 261.515625 155.269531 261 165.042969 258.085938 173.101562 C 257.144531 175.757812 256.027344 178.285156 255.6875 178.671875 C 255.34375 179.058594 254.699219 180.128906 254.355469 181.027344 C 253.972656 181.972656 252.855469 183.769531 251.871094 185.058594 C 246.34375 192.300781 240.601562 195.941406 227.570312 200.441406 C 226.5 200.785156 223.929688 201.386719 221.785156 201.6875 C 219.6875 201.984375 217.070312 202.457031 216 202.671875 C 213.644531 203.1875 206.058594 203.230469 202.285156 202.714844 C 192.472656 201.429688 186.8125 200.613281 186.472656 200.355469 C 185.65625 199.886719 174.601562 198.730469 170.570312 198.6875 C 165.6875 198.644531 162.6875 199.285156 159.171875 201 C 155.914062 202.585938 151.886719 206.742188 150.171875 210.300781 C 149.101562 212.484375 148.929688 213.34375 148.800781 217.5 C 148.628906 222.171875 148.628906 222.300781 150.386719 226.757812 C 151.757812 230.230469 152.699219 231.855469 154.5 233.914062 C 155.785156 235.414062 156.855469 236.828125 156.855469 237.042969 C 156.855469 237.300781 157.886719 238.585938 159.171875 239.957031 C 161.871094 242.742188 165.171875 247.5 165.601562 249.128906 C 165.855469 250.15625 165.6875 250.285156 163.414062 251.144531 C 160.328125 252.300781 157.714844 253.070312 152.785156 254.1875 C 148.070312 255.257812 132.558594 255.8125 128.355469 255.042969 C 126.941406 254.785156 124.15625 254.355469 122.144531 254.144531 C 120.128906 253.886719 117.515625 253.414062 116.269531 253.070312 C 115.070312 252.730469 113.527344 252.429688 112.800781 252.429688 C 112.113281 252.429688 110.699219 252.128906 109.671875 251.742188 C 108.644531 251.398438 106.628906 250.84375 105.214844 250.5 C 99.128906 249.085938 94.242188 247.585938 90.601562 246 C 88.457031 245.058594 86.527344 244.285156 86.3125 244.285156 C 85.371094 244.285156 78.855469 241.371094 71.570312 237.6875 C 63 233.355469 58.457031 230.742188 56.269531 228.8125 C 55.5 228.128906 53.828125 226.929688 52.628906 226.113281 C 50.3125 224.65625 46.671875 221.144531 44.914062 218.699219 C 44.355469 217.972656 42.644531 215.742188 41.058594 213.8125 C 39.472656 211.84375 37.757812 209.398438 37.285156 208.371094 C 36.8125 207.34375 35.699219 205.542969 34.886719 204.34375 C 34.027344 203.1875 33.128906 201.472656 32.785156 200.613281 C 32.484375 199.757812 31.84375 198.300781 31.328125 197.3125 C 30.171875 195.128906 28.84375 190.671875 28.027344 186.429688 C 27.730469 184.671875 27.257812 182.441406 27 181.5 C 26.484375 179.355469 26.484375 172.371094 27.042969 169.5 C 27.257812 168.300781 27.644531 165.984375 27.898438 164.355469 C 28.542969 159.941406 31.542969 151.671875 33.6875 148.199219 C 34.242188 147.34375 35.269531 145.414062 36 143.914062 C 39.8125 136.070312 50.398438 124.5 60.429688 117.257812 C 69.429688 110.742188 82.542969 103.371094 89.785156 100.800781 C 94.070312 99.300781 96.644531 98.355469 100.070312 97.070312 C 101.742188 96.429688 104.058594 95.742188 105.214844 95.570312 C 106.414062 95.355469 108.128906 94.886719 109.070312 94.542969 C 110.015625 94.199219 111.257812 93.898438 111.855469 93.855469 C 112.457031 93.855469 114.042969 93.472656 115.414062 93 C 116.742188 92.527344 118.585938 92.144531 119.484375 92.144531 C 120.429688 92.144531 121.714844 91.929688 122.398438 91.714844 C 124.328125 91.027344 133.242188 90 141.300781 89.484375 C 150.8125 88.886719 168.257812 89.957031 173.785156 91.5 C 174.984375 91.800781 177.085938 92.230469 178.5 92.398438 C 179.914062 92.527344 181.414062 92.871094 181.800781 93.042969 C 182.1875 93.257812 184.113281 93.730469 186.085938 94.113281 C 189.644531 94.757812 200.101562 98.101562 202.328125 99.257812 C 203.015625 99.601562 203.613281 99.855469 203.742188 99.855469 C 204.085938 99.855469 211.84375 92.144531 211.671875 91.972656 C 211.585938 91.886719 210.472656 91.5 209.269531 91.113281 C 208.027344 90.6875 207 90.214844 207 90 C 207 89.828125 206.3125 89.527344 205.5 89.398438 C 204.6875 89.230469 204 88.929688 204 88.714844 C 204 88.285156 203.1875 87.984375 201 87.644531 C 200.1875 87.515625 199.113281 87.257812 198.644531 87.042969 C 196.585938 86.101562 192.386719 84.898438 189.34375 84.386719 C 187.414062 84.085938 186 83.613281 186 83.355469 C 186 83.015625 184.585938 82.757812 182.058594 82.542969 C 179.65625 82.371094 177.898438 82.070312 177.472656 81.6875 C 177 81.257812 175.199219 81 171.769531 80.828125 C 169.027344 80.699219 166.242188 80.355469 165.558594 80.101562 C 164.269531 79.585938 161.269531 79.414062 148.628906 79.15625 C 144.257812 79.070312 140.1875 79.199219 139.628906 79.414062 Z M 139.628906 79.414062 "/>
<path style=" stroke:none;fill-rule:nonzero;fill:rgb(0%,0%,0%);fill-opacity:1;" d="M 109.929688 95.957031 C 107.742188 96.515625 104.398438 98.441406 102.984375 99.941406 C 101.1875 101.828125 100.285156 104.058594 100.285156 106.714844 C 100.285156 110.871094 102.386719 113.914062 106.929688 116.269531 C 109.371094 117.558594 109.757812 117.644531 114.214844 117.644531 C 118.671875 117.644531 119.058594 117.558594 121.5 116.269531 C 126.042969 113.914062 128.144531 110.871094 128.144531 106.714844 C 128.144531 102.558594 126 99.472656 121.5 97.199219 C 119.3125 96.042969 118.371094 95.871094 115.070312 95.742188 C 112.972656 95.65625 110.65625 95.742188 109.929688 95.957031 Z M 117.601562 105.214844 C 120.6875 106.5 118.542969 108.855469 114.214844 108.855469 C 111.730469 108.855469 109.285156 107.785156 109.285156 106.714844 C 109.285156 104.871094 114.515625 103.929688 117.601562 105.214844 Z M 117.601562 105.214844 "/>
<path style=" stroke:none;fill-rule:nonzero;fill:rgb(0%,0%,0%);fill-opacity:1;" d="M 75.601562 110.144531 C 73.886719 110.570312 71.570312 111.429688 70.457031 111.984375 C 59.3125 117.644531 59.3125 130.070312 70.414062 135.730469 C 77.570312 139.328125 89.144531 139.328125 96.300781 135.730469 C 107.398438 130.070312 107.398438 117.644531 96.300781 111.984375 C 90.941406 109.285156 81.898438 108.472656 75.601562 110.144531 Z M 91.070312 119.527344 C 93.855469 120.769531 95.570312 122.398438 95.570312 123.855469 C 95.570312 125.269531 93.855469 126.941406 91.070312 128.230469 C 89.1875 129.085938 88.285156 129.214844 83.355469 129.214844 C 78.429688 129.214844 77.527344 129.085938 75.644531 128.230469 C 70.027344 125.65625 69.730469 122.398438 74.871094 119.828125 C 77.269531 118.628906 79.371094 118.328125 84.214844 118.457031 C 87.984375 118.542969 89.355469 118.757812 91.070312 119.527344 Z M 91.070312 119.527344 "/>
<path style=" stroke:none;fill-rule:nonzero;fill:rgb(0%,0%,0%);fill-opacity:1;" d="M 56.144531 138.472656 C 51.644531 139.628906 47.785156 141.6875 44.957031 144.429688 C 41.269531 148.027344 40.5 149.785156 40.5 154.714844 C 40.5 158.441406 40.628906 159 41.785156 161.101562 C 45.472656 167.742188 54.171875 171.855469 64.5 171.855469 C 72.769531 171.855469 79.371094 169.542969 84.042969 165 C 87.730469 161.355469 88.5 159.644531 88.5 154.714844 C 88.5 149.785156 87.730469 148.070312 84.042969 144.429688 C 81.171875 141.644531 77.355469 139.628906 72.6875 138.429688 C 68.101562 137.269531 60.644531 137.269531 56.144531 138.472656 Z M 73.027344 147.855469 C 74.570312 148.457031 76.328125 149.570312 77.613281 150.8125 C 79.5 152.613281 79.714844 153.042969 79.714844 154.714844 C 79.714844 156.386719 79.5 156.8125 77.613281 158.613281 C 74.269531 161.828125 71.742188 162.601562 64.5 162.601562 C 57.257812 162.601562 54.730469 161.828125 51.386719 158.613281 C 49.542969 156.8125 49.285156 156.386719 49.285156 154.800781 C 49.285156 151.757812 52.800781 148.628906 57.855469 147.214844 C 61.457031 146.230469 69.730469 146.570312 73.027344 147.855469 Z M 73.027344 147.855469 "/>
<path style=" stroke:none;fill-rule:nonzero;fill:rgb(0%,0%,0%);fill-opacity:1;" d="M 159.300781 153.257812 C 159.214844 153.386719 157.886719 153.644531 156.386719 153.898438 C 154.886719 154.15625 153.472656 154.5 153.214844 154.671875 C 153 154.886719 152.058594 155.269531 151.199219 155.527344 C 150.300781 155.828125 149.570312 156.214844 149.570312 156.34375 C 149.570312 156.515625 149.015625 156.898438 148.328125 157.199219 C 147.128906 157.714844 142.542969 161.957031 141.644531 163.371094 C 141.429688 163.714844 140.101562 165.6875 138.769531 167.742188 C 137.398438 169.757812 136.285156 171.601562 136.285156 171.855469 C 136.285156 172.070312 136.113281 172.285156 135.898438 172.285156 C 135.6875 172.285156 135.257812 172.886719 134.957031 173.65625 C 134.65625 174.429688 134.101562 175.371094 133.714844 175.757812 C 133.371094 176.144531 132.6875 177 132.214844 177.644531 C 131.3125 178.84375 127.886719 182.355469 126.644531 183.386719 C 125.101562 184.628906 121.972656 186.042969 120.171875 186.300781 C 119.101562 186.429688 118.15625 186.6875 118.070312 186.855469 C 117.984375 187.027344 116.957031 187.070312 115.84375 186.984375 C 114.472656 186.855469 113.527344 186.984375 112.972656 187.414062 C 112.15625 188.015625 112.15625 188.058594 113.269531 189.171875 C 113.914062 189.8125 114.429688 190.457031 114.429688 190.585938 C 114.429688 191.015625 118.628906 195 119.101562 195 C 119.355469 195 119.570312 195.171875 119.570312 195.429688 C 119.570312 195.644531 119.914062 195.855469 120.34375 195.855469 C 120.730469 195.855469 122.144531 196.371094 123.429688 196.972656 C 125.65625 198.042969 126.128906 198.085938 132.472656 198.085938 C 138.257812 198.042969 139.371094 197.914062 140.65625 197.230469 C 141.472656 196.757812 142.757812 196.242188 143.484375 196.070312 C 144.257812 195.941406 144.855469 195.644531 144.855469 195.472656 C 144.855469 195.300781 145.585938 194.914062 146.441406 194.613281 C 148.027344 194.015625 148.457031 193.757812 150.042969 192.300781 C 150.472656 191.914062 150.984375 191.570312 151.199219 191.570312 C 151.371094 191.570312 152.1875 190.972656 153 190.285156 C 153.8125 189.558594 154.714844 188.828125 154.929688 188.613281 C 155.398438 188.230469 158.398438 184.714844 159.8125 182.914062 C 160.328125 182.3125 160.714844 181.585938 160.714844 181.328125 C 160.714844 181.070312 160.886719 180.855469 161.101562 180.855469 C 161.3125 180.855469 161.742188 180.171875 162.042969 179.355469 C 162.34375 178.542969 162.730469 177.855469 162.898438 177.855469 C 163.070312 177.855469 163.457031 177.128906 163.757812 176.230469 C 164.015625 175.371094 164.398438 174.558594 164.527344 174.429688 C 164.699219 174.300781 165.171875 173.441406 165.601562 172.5 C 165.984375 171.558594 166.5 170.441406 166.757812 170.015625 C 166.972656 169.628906 167.269531 168.171875 167.398438 166.800781 C 167.527344 165.472656 167.785156 164.269531 168 164.230469 C 168.515625 164.058594 168.558594 161.144531 168.085938 161.144531 C 167.871094 161.144531 167.1875 160.371094 166.457031 159.429688 C 165.769531 158.484375 165.042969 157.714844 164.785156 157.714844 C 164.230469 157.714844 161.570312 154.972656 161.570312 154.414062 C 161.570312 153.941406 159.644531 152.957031 159.300781 153.257812 Z M 159.300781 153.257812 "/>
<path style=" stroke:none;fill-rule:nonzero;fill:rgb(0%,0%,0%);fill-opacity:1;" d="M 55.714844 173.3125 C 46.714844 175.371094 39.601562 180.214844 36.644531 186.214844 C 35.484375 188.527344 35.355469 189.171875 35.355469 193.070312 C 35.355469 196.929688 35.484375 197.613281 36.644531 199.886719 C 39.6875 206.058594 46.929688 210.941406 55.800781 212.785156 C 59.613281 213.601562 68.101562 213.601562 71.914062 212.785156 C 80.785156 210.941406 88.027344 206.058594 91.070312 199.886719 C 92.230469 197.613281 92.355469 196.929688 92.355469 193.070312 C 92.355469 189.171875 92.230469 188.527344 91.070312 186.214844 C 89.144531 182.269531 85.328125 178.757812 80.527344 176.398438 C 78.300781 175.328125 75.34375 174.128906 73.929688 173.742188 C 70.542969 172.800781 59.058594 172.542969 55.714844 173.3125 Z M 70.371094 182.1875 C 75.6875 183.300781 81.730469 187.113281 83.015625 190.15625 C 84.898438 194.742188 82.242188 199.070312 75.6875 202.070312 C 71.742188 203.914062 69.042969 204.429688 63.855469 204.429688 C 58.671875 204.429688 55.972656 203.914062 52.027344 202.070312 C 45.472656 199.070312 42.8125 194.742188 44.699219 190.15625 C 45.941406 187.199219 51.515625 183.601562 56.785156 182.3125 C 59.527344 181.628906 67.414062 181.585938 70.371094 182.1875 Z M 70.371094 182.1875 "/>
</g>
</svg>
