<?xml version="1.0" encoding="UTF-8"?>
<svg xmlns="http://www.w3.org/2000/svg" xmlns:xlink="http://www.w3.org/1999/xlink" width="200pt" height="200pt" viewBox="0 0 200 200" version="1.1">
<g id="surface1">
<path style=" stroke:none;fill-rule:nonzero;fill:rgb(0%,0%,0%);fill-opacity:1;" d="M 177.714844 30.171875 C 177.488281 30.199219 176.65625 30.34375 175.886719 30.429688 C 174.570312 30.597656 174.316406 30.800781 170.886719 34.257812 C 168.914062 36.257812 165.683594 39.597656 163.714844 41.714844 C 161.742188 43.800781 159.570312 46.113281 158.855469 46.855469 C 158.144531 47.597656 156.628906 49.230469 155.457031 50.457031 C 154.316406 51.714844 152 54.144531 150.316406 55.886719 C 148.65625 57.65625 145.769531 60.683594 143.941406 62.597656 C 142.113281 64.542969 139.828125 66.972656 138.855469 68 C 137.886719 69.027344 136.113281 70.914062 134.914062 72.230469 C 133.683594 73.511719 131.429688 75.914062 129.855469 77.542969 C 126.285156 81.285156 125.316406 82.316406 123.714844 84.285156 C 122.972656 85.144531 121.257812 86.941406 119.886719 88.285156 C 118.488281 89.628906 116.742188 91.34375 115.972656 92.144531 C 115.230469 92.914062 113.316406 94.914062 111.742188 96.542969 C 110.144531 98.171875 108.855469 99.597656 108.855469 99.742188 C 108.855469 100 113.34375 104.597656 114.34375 105.371094 C 114.769531 105.714844 114.914062 105.683594 115.488281 105.144531 C 115.855469 104.800781 117.429688 103.34375 118.972656 101.914062 C 120.542969 100.457031 123.058594 98.058594 124.542969 96.570312 C 127.257812 93.886719 132.570312 88.855469 134.914062 86.769531 C 135.597656 86.171875 137.257812 84.628906 138.597656 83.34375 C 139.972656 82.058594 142.628906 79.511719 144.570312 77.714844 C 146.488281 75.914062 149.511719 72.972656 151.316406 71.199219 C 153.113281 69.457031 154.65625 68 154.769531 68 C 154.855469 68 155.828125 67.144531 156.914062 66.058594 C 158 65 159.027344 64.144531 159.230469 64.144531 C 159.429688 64.144531 159.570312 64 159.570312 63.800781 C 159.570312 63.371094 159.941406 63 160.371094 63 C 160.570312 63 160.714844 62.855469 160.714844 62.65625 C 160.714844 62.285156 161.085938 61.855469 161.429688 61.855469 C 161.542969 61.855469 163.941406 59.65625 166.714844 57 C 169.511719 54.316406 173.085938 50.914062 174.683594 49.429688 C 182 42.511719 183.371094 41.085938 183.683594 40 C 184.085938 38.597656 184.085938 35.199219 183.65625 33.972656 C 183.316406 32.972656 181.972656 31.429688 181.488281 31.429688 C 181.316406 31.429688 181.144531 31.34375 181.085938 31.199219 C 180.972656 30.914062 178.914062 30 178.488281 30.027344 C 178.285156 30.058594 177.941406 30.113281 177.714844 30.171875 Z M 177.714844 30.171875 "/>
<path style=" stroke:none;fill-rule:nonzero;fill:rgb(0%,0%,0%);fill-opacity:1;" d="M 93.085938 52.941406 C 92.742188 53.058594 91.457031 53.144531 90.285156 53.113281 C 89.113281 53.085938 87.941406 53.144531 87.714844 53.230469 C 87.257812 53.402344 86.34375 53.542969 82.570312 54 C 81.230469 54.171875 79.941406 54.402344 79.714844 54.488281 C 79.488281 54.570312 79.113281 54.628906 78.886719 54.597656 C 78.371094 54.511719 74.199219 55.488281 74 55.714844 C 73.855469 55.914062 71.113281 56.371094 69.855469 56.429688 C 69.542969 56.457031 69.316406 56.570312 69.34375 56.742188 C 69.34375 56.886719 68.886719 57.027344 68.257812 57.027344 C 67.65625 57.058594 66.597656 57.34375 65.941406 57.683594 C 65.257812 58 64.113281 58.429688 63.371094 58.628906 C 62.597656 58.800781 62 59.058594 62 59.171875 C 62 59.285156 61.542969 59.457031 60.972656 59.570312 C 60.402344 59.65625 59.457031 60 58.914062 60.285156 C 58.371094 60.597656 57.800781 60.769531 57.683594 60.683594 C 57.457031 60.542969 54.65625 61.683594 53.714844 62.285156 C 53.488281 62.429688 51.886719 63.285156 50.144531 64.171875 C 48.429688 65.058594 46.488281 66.085938 45.855469 66.457031 C 45.230469 66.828125 44.171875 67.429688 43.511719 67.769531 C 42.828125 68.113281 42.285156 68.511719 42.285156 68.65625 C 42.285156 68.769531 42.171875 68.800781 42 68.714844 C 41.429688 68.34375 31.886719 75.914062 27.886719 79.886719 C 23.144531 84.628906 17.429688 92.144531 17.429688 93.628906 C 17.429688 93.972656 17.316406 94.285156 17.199219 94.34375 C 16.914062 94.457031 14.570312 99.058594 14.570312 99.488281 C 14.570312 99.628906 14.199219 100.597656 13.714844 101.628906 C 13.257812 102.628906 12.855469 103.65625 12.855469 103.886719 C 12.855469 104.144531 12.714844 104.570312 12.570312 104.886719 C 12.402344 105.199219 12.199219 106.316406 12.113281 107.371094 C 12.027344 108.429688 11.828125 109.402344 11.683594 109.570312 C 11.542969 109.714844 11.429688 110.371094 11.429688 111.027344 C 11.429688 111.714844 11.316406 112.316406 11.171875 112.402344 C 11.027344 112.488281 10.972656 114.597656 11.027344 117.058594 C 11.144531 121.714844 11.316406 123.65625 11.714844 124.144531 C 11.828125 124.285156 12.027344 125.371094 12.113281 126.542969 C 12.199219 127.714844 12.457031 128.855469 12.683594 129.113281 C 12.886719 129.371094 13.144531 129.941406 13.257812 130.429688 C 13.65625 132.285156 14.429688 134.457031 14.828125 134.914062 C 15.058594 135.171875 15.542969 136.199219 15.914062 137.199219 C 16.285156 138.171875 16.828125 139.199219 17.144531 139.488281 C 17.457031 139.800781 17.714844 140.199219 17.714844 140.457031 C 17.714844 140.683594 17.914062 140.941406 18.144531 141.027344 C 18.371094 141.113281 18.628906 141.65625 18.742188 142.199219 C 18.855469 142.742188 19.113281 143.257812 19.316406 143.34375 C 19.542969 143.429688 19.714844 143.65625 19.714844 143.886719 C 19.714844 144.113281 19.828125 144.285156 19.941406 144.285156 C 20.058594 144.285156 20.488281 144.800781 20.855469 145.429688 C 21.257812 146.058594 21.65625 146.570312 21.769531 146.570312 C 21.886719 146.570312 22.199219 147.027344 22.457031 147.597656 C 22.714844 148.171875 23.257812 148.769531 23.628906 148.941406 C 23.972656 149.085938 24.285156 149.371094 24.285156 149.542969 C 24.285156 149.800781 26.027344 152 26.769531 152.628906 C 26.886719 152.742188 27.914062 153.683594 29 154.714844 C 30.113281 155.742188 31.285156 156.65625 31.65625 156.742188 C 32 156.855469 32.285156 157.027344 32.285156 157.171875 C 32.285156 157.316406 32.597656 157.570312 33 157.714844 C 33.402344 157.855469 33.714844 158.144531 33.714844 158.34375 C 33.714844 158.714844 34.144531 159 36.085938 159.855469 C 36.65625 160.144531 37.144531 160.457031 37.144531 160.597656 C 37.144531 160.742188 37.285156 160.855469 37.429688 160.855469 C 37.597656 160.855469 38.257812 161.230469 38.914062 161.714844 C 39.542969 162.171875 40.316406 162.570312 40.628906 162.570312 C 40.914062 162.570312 41.144531 162.683594 41.144531 162.855469 C 41.144531 163 41.65625 163.285156 42.285156 163.457031 C 42.914062 163.65625 43.429688 163.941406 43.429688 164.113281 C 43.429688 164.488281 45.113281 165.199219 45.457031 164.972656 C 45.597656 164.886719 45.714844 164.941406 45.714844 165.113281 C 45.714844 165.257812 46.199219 165.542969 46.769531 165.742188 C 47.34375 165.914062 48.085938 166.316406 48.402344 166.597656 C 48.714844 166.914062 49.199219 167.144531 49.457031 167.144531 C 49.742188 167.144531 50.027344 167.257812 50.113281 167.402344 C 50.199219 167.511719 50.65625 167.714844 51.144531 167.800781 C 51.628906 167.914062 52.828125 168.402344 53.855469 168.886719 C 54.855469 169.371094 55.828125 169.683594 56 169.570312 C 56.144531 169.488281 56.285156 169.511719 56.285156 169.65625 C 56.285156 169.800781 56.855469 170.085938 57.542969 170.257812 C 58.257812 170.429688 58.972656 170.742188 59.199219 170.941406 C 59.402344 171.144531 60.855469 171.628906 62.429688 172 C 64 172.371094 65.34375 172.769531 65.429688 172.886719 C 65.628906 173.113281 67.058594 173.488281 68.429688 173.597656 C 69.027344 173.683594 69.683594 173.855469 69.828125 174 C 70 174.171875 70.402344 174.285156 70.742188 174.285156 C 71.085938 174.285156 71.429688 174.429688 71.488281 174.570312 C 71.542969 174.742188 72.230469 174.886719 73 174.886719 C 73.800781 174.914062 74.683594 175.027344 75 175.144531 C 76.316406 175.628906 78.800781 176.085938 80.144531 176.058594 C 80.914062 176.058594 81.683594 176.144531 81.855469 176.257812 C 82.34375 176.628906 85.285156 176.886719 90.144531 176.914062 C 96.457031 176.972656 101.199219 176.828125 101.742188 176.542969 C 101.972656 176.429688 103.257812 176.113281 104.597656 175.855469 C 105.914062 175.570312 107.144531 175.257812 107.316406 175.113281 C 107.488281 174.972656 108.171875 174.800781 108.886719 174.742188 C 112.085938 174.402344 116.828125 171.027344 117.257812 168.742188 C 117.628906 166.828125 116.34375 160.855469 115.570312 160.855469 C 115.371094 160.855469 115.058594 160.457031 114.855469 160 C 114.65625 159.511719 114.402344 159.144531 114.257812 159.144531 C 114.144531 159.144531 113.941406 158.855469 113.828125 158.488281 C 113.742188 158.144531 112.941406 157.171875 112.113281 156.34375 C 111.257812 155.511719 110.371094 154.457031 110.144531 154.027344 C 109.914062 153.570312 109.34375 152.800781 108.855469 152.34375 C 108.402344 151.855469 108 151.34375 108 151.144531 C 108 150.972656 107.828125 150.769531 107.597656 150.683594 C 107.371094 150.597656 107.085938 150.144531 107 149.714844 C 106.886719 149.257812 106.542969 148.34375 106.230469 147.65625 C 105.769531 146.714844 105.683594 146.113281 105.800781 144.886719 C 105.886719 144.027344 106.085938 143.257812 106.199219 143.171875 C 106.316406 143.085938 106.628906 142.597656 106.886719 142.144531 C 107.65625 140.800781 109.457031 139.65625 111.144531 139.488281 C 111.941406 139.429688 112.65625 139.230469 112.742188 139.113281 C 112.941406 138.769531 114.511719 138.800781 114.628906 139.144531 C 114.683594 139.316406 116.113281 139.511719 117.855469 139.570312 C 119.570312 139.65625 121.027344 139.828125 121.113281 139.972656 C 121.230469 140.113281 122.800781 140.402344 124.65625 140.597656 C 126.488281 140.769531 128 141.058594 128 141.199219 C 128 141.34375 128.570312 141.429688 129.285156 141.402344 C 129.972656 141.34375 130.628906 141.402344 130.742188 141.511719 C 130.855469 141.628906 131.683594 141.714844 132.597656 141.714844 C 133.511719 141.714844 134.316406 141.828125 134.402344 141.941406 C 134.570312 142.230469 143.113281 142.144531 145.570312 141.828125 C 146.511719 141.714844 147.34375 141.511719 147.429688 141.402344 C 147.511719 141.285156 148.65625 141.113281 150 141.027344 C 151.316406 140.941406 152.511719 140.742188 152.683594 140.570312 C 152.828125 140.429688 153.257812 140.285156 153.597656 140.285156 C 153.972656 140.285156 154.316406 140.171875 154.402344 140.027344 C 154.488281 139.886719 155.027344 139.683594 155.570312 139.597656 C 156.113281 139.488281 156.570312 139.316406 156.570312 139.171875 C 156.570312 139.058594 157.285156 138.800781 158.144531 138.597656 C 159 138.402344 159.714844 138.144531 159.714844 138.027344 C 159.714844 137.914062 160.199219 137.65625 160.800781 137.457031 C 161.371094 137.230469 161.914062 136.972656 162 136.828125 C 162.085938 136.714844 162.511719 136.542969 162.914062 136.457031 C 164.027344 136.257812 168.058594 133.144531 170.855469 130.285156 C 173.316406 127.800781 175.800781 124.488281 175.800781 123.714844 C 175.800781 123.488281 175.972656 123.144531 176.144531 123 C 176.570312 122.628906 178 119.371094 178 118.742188 C 178 118.488281 178.113281 118.285156 178.257812 118.285156 C 178.402344 118.285156 178.65625 117.628906 178.828125 116.855469 C 179 116.058594 179.34375 115 179.597656 114.488281 C 179.914062 113.941406 180.113281 112.628906 180.199219 111 C 180.257812 109.597656 180.429688 108.085938 180.597656 107.65625 C 181.027344 106.570312 181.058594 103.628906 180.65625 103.285156 C 180.457031 103.113281 180.257812 101.769531 180.171875 100 C 180.058594 97.769531 179.914062 96.941406 179.570312 96.683594 C 179.34375 96.511719 179.144531 96.113281 179.144531 95.828125 C 179.144531 94.972656 177.914062 91.316406 177.488281 90.886719 C 177.285156 90.65625 176.742188 89.683594 176.285156 88.714844 C 175.828125 87.742188 175.316406 86.769531 175.085938 86.542969 C 174.542969 85.941406 173.144531 83.855469 173.144531 83.597656 C 173.144531 83.171875 166.429688 76.285156 166 76.285156 C 165.855469 76.285156 165.683594 76.058594 165.570312 75.769531 C 165.488281 75.511719 164.683594 74.769531 163.828125 74.144531 C 162.972656 73.511719 161.855469 72.65625 161.371094 72.199219 C 160.914062 71.769531 160.402344 71.429688 160.257812 71.429688 C 160.113281 71.429688 159.488281 71.113281 158.886719 70.714844 C 157.886719 70.027344 156.855469 69.972656 156.855469 70.597656 C 156.855469 70.742188 156.714844 70.855469 156.570312 70.855469 C 156.402344 70.855469 155.714844 71.402344 155.027344 72.058594 C 154.34375 72.742188 153.429688 73.570312 153 73.886719 L 152.257812 74.488281 L 155.027344 76.316406 C 156.542969 77.316406 158.171875 78.402344 158.683594 78.742188 C 160.542969 80 166.855469 86.628906 168.371094 88.941406 C 170.113281 91.570312 171.800781 94.769531 172.230469 96.285156 C 172.402344 96.828125 172.714844 98 172.972656 98.855469 C 174.34375 103.511719 174 110.027344 172.058594 115.402344 C 171.429688 117.171875 170.683594 118.855469 170.457031 119.113281 C 170.230469 119.371094 169.800781 120.085938 169.570312 120.683594 C 169.316406 121.316406 168.570312 122.511719 167.914062 123.371094 C 164.230469 128.199219 160.402344 130.628906 151.714844 133.628906 C 151 133.855469 149.285156 134.257812 147.855469 134.457031 C 146.457031 134.65625 144.714844 134.972656 144 135.113281 C 142.429688 135.457031 137.371094 135.488281 134.855469 135.144531 C 128.316406 134.285156 124.542969 133.742188 124.316406 133.570312 C 123.769531 133.257812 116.402344 132.488281 113.714844 132.457031 C 110.457031 132.429688 108.457031 132.855469 106.113281 134 C 103.941406 135.058594 101.257812 137.828125 100.113281 140.199219 C 99.402344 141.65625 99.285156 142.230469 99.199219 145 C 99.085938 148.113281 99.085938 148.199219 100.257812 151.171875 C 101.171875 153.488281 101.800781 154.570312 103 155.941406 C 103.855469 156.941406 104.570312 157.886719 104.570312 158.027344 C 104.570312 158.199219 105.257812 159.058594 106.113281 159.972656 C 107.914062 161.828125 110.113281 165 110.402344 166.085938 C 110.570312 166.769531 110.457031 166.855469 108.941406 167.429688 C 106.886719 168.199219 105.144531 168.714844 101.855469 169.457031 C 98.714844 170.171875 88.371094 170.542969 85.570312 170.027344 C 84.628906 169.855469 82.769531 169.570312 81.429688 169.429688 C 80.085938 169.257812 78.34375 168.941406 77.511719 168.714844 C 76.714844 168.488281 75.683594 168.285156 75.199219 168.285156 C 74.742188 168.285156 73.800781 168.085938 73.113281 167.828125 C 72.429688 167.597656 71.085938 167.230469 70.144531 167 C 66.085938 166.058594 62.828125 165.058594 60.402344 164 C 58.972656 163.371094 57.683594 162.855469 57.542969 162.855469 C 56.914062 162.855469 52.570312 160.914062 47.714844 158.457031 C 42 155.570312 38.972656 153.828125 37.511719 152.542969 C 37 152.085938 35.886719 151.285156 35.085938 150.742188 C 33.542969 149.769531 31.113281 147.429688 29.941406 145.800781 C 29.570312 145.316406 28.429688 143.828125 27.371094 142.542969 C 26.316406 141.230469 25.171875 139.597656 24.855469 138.914062 C 24.542969 138.230469 23.800781 137.027344 23.257812 136.230469 C 22.683594 135.457031 22.085938 134.316406 21.855469 133.742188 C 21.65625 133.171875 21.230469 132.199219 20.886719 131.542969 C 20.113281 130.085938 19.230469 127.113281 18.683594 124.285156 C 18.488281 123.113281 18.171875 121.628906 18 121 C 17.65625 119.570312 17.65625 114.914062 18.027344 113 C 18.171875 112.199219 18.429688 110.65625 18.597656 109.570312 C 19.027344 106.628906 21.027344 101.113281 22.457031 98.800781 C 22.828125 98.230469 23.511719 96.941406 24 95.941406 C 26.542969 90.714844 33.597656 83 40.285156 78.171875 C 46.285156 73.828125 55.027344 68.914062 59.855469 67.199219 C 62.714844 66.199219 64.429688 65.570312 66.714844 64.714844 C 67.828125 64.285156 69.371094 63.828125 70.144531 63.714844 C 70.941406 63.570312 72.085938 63.257812 72.714844 63.027344 C 73.34375 62.800781 74.171875 62.597656 74.570312 62.570312 C 74.972656 62.570312 76.027344 62.316406 76.941406 62 C 77.828125 61.683594 79.058594 61.429688 79.65625 61.429688 C 80.285156 61.429688 81.144531 61.285156 81.597656 61.144531 C 82.886719 60.683594 88.828125 60 94.199219 59.65625 C 100.542969 59.257812 112.171875 59.972656 115.855469 61 C 116.65625 61.199219 118.058594 61.488281 119 61.597656 C 119.941406 61.683594 120.941406 61.914062 121.199219 62.027344 C 121.457031 62.171875 122.742188 62.488281 124.058594 62.742188 C 126.429688 63.171875 133.402344 65.402344 134.886719 66.171875 C 135.34375 66.402344 135.742188 66.570312 135.828125 66.570312 C 136.058594 66.570312 141.230469 61.429688 141.113281 61.316406 C 141.058594 61.257812 140.316406 61 139.511719 60.742188 C 138.683594 60.457031 138 60.144531 138 60 C 138 59.886719 137.542969 59.683594 137 59.597656 C 136.457031 59.488281 136 59.285156 136 59.144531 C 136 58.855469 135.457031 58.65625 134 58.429688 C 133.457031 58.34375 132.742188 58.171875 132.429688 58.027344 C 131.058594 57.402344 128.257812 56.597656 126.230469 56.257812 C 124.941406 56.058594 124 55.742188 124 55.570312 C 124 55.34375 123.058594 55.171875 121.371094 55.027344 C 119.769531 54.914062 118.597656 54.714844 118.316406 54.457031 C 118 54.171875 116.800781 54 114.511719 53.886719 C 112.683594 53.800781 110.828125 53.570312 110.371094 53.402344 C 109.511719 53.058594 107.511719 52.941406 99.085938 52.769531 C 96.171875 52.714844 93.457031 52.800781 93.085938 52.941406 Z M 93.085938 52.941406 "/>
<path style=" stroke:none;fill-rule:nonzero;fill:rgb(0%,0%,0%);fill-opacity:1;" d="M 73.285156 63.972656 C 71.828125 64.34375 69.597656 65.628906 68.65625 66.628906 C 67.457031 67.886719 66.855469 69.371094 66.855469 71.144531 C 66.855469 73.914062 68.257812 75.941406 71.285156 77.511719 C 72.914062 78.371094 73.171875 78.429688 76.144531 78.429688 C 79.113281 78.429688 79.371094 78.371094 81 77.511719 C 84.027344 75.941406 85.429688 73.914062 85.429688 71.144531 C 85.429688 68.371094 84 66.316406 81 64.800781 C 79.542969 64.027344 78.914062 63.914062 76.714844 63.828125 C 75.316406 63.769531 73.769531 63.828125 73.285156 63.972656 Z M 78.402344 70.144531 C 80.457031 71 79.027344 72.570312 76.144531 72.570312 C 74.488281 72.570312 72.855469 71.855469 72.855469 71.144531 C 72.855469 69.914062 76.34375 69.285156 78.402344 70.144531 Z M 78.402344 70.144531 "/>
<path style=" stroke:none;fill-rule:nonzero;fill:rgb(0%,0%,0%);fill-opacity:1;" d="M 50.402344 73.429688 C 49.257812 73.714844 47.714844 74.285156 46.972656 74.65625 C 39.542969 78.429688 39.542969 86.714844 46.941406 90.488281 C 51.714844 92.886719 59.429688 92.886719 64.199219 90.488281 C 71.597656 86.714844 71.597656 78.429688 64.199219 74.65625 C 60.628906 72.855469 54.597656 72.316406 50.402344 73.429688 Z M 60.714844 79.683594 C 62.570312 80.511719 63.714844 81.597656 63.714844 82.570312 C 63.714844 83.511719 62.570312 84.628906 60.714844 85.488281 C 59.457031 86.058594 58.855469 86.144531 55.570312 86.144531 C 52.285156 86.144531 51.683594 86.058594 50.429688 85.488281 C 46.683594 83.769531 46.488281 81.597656 49.914062 79.886719 C 51.511719 79.085938 52.914062 78.886719 56.144531 78.972656 C 58.65625 79.027344 59.570312 79.171875 60.714844 79.683594 Z M 60.714844 79.683594 "/>
<path style=" stroke:none;fill-rule:nonzero;fill:rgb(0%,0%,0%);fill-opacity:1;" d="M 37.429688 92.316406 C 34.429688 93.085938 31.855469 94.457031 29.972656 96.285156 C 27.511719 98.683594 27 99.855469 27 103.144531 C 27 105.628906 27.085938 106 27.855469 107.402344 C 30.316406 111.828125 36.113281 114.570312 43 114.570312 C 48.511719 114.570312 52.914062 113.027344 56.027344 110 C 58.488281 107.570312 59 106.429688 59 103.144531 C 59 99.855469 58.488281 98.714844 56.027344 96.285156 C 54.113281 94.429688 51.570312 93.085938 48.457031 92.285156 C 45.402344 91.511719 40.429688 91.511719 37.429688 92.316406 Z M 48.683594 98.570312 C 49.714844 98.972656 50.886719 99.714844 51.742188 100.542969 C 53 101.742188 53.144531 102.027344 53.144531 103.144531 C 53.144531 104.257812 53 104.542969 51.742188 105.742188 C 49.511719 107.886719 47.828125 108.402344 43 108.402344 C 38.171875 108.402344 36.488281 107.886719 34.257812 105.742188 C 33.027344 104.542969 32.855469 104.257812 32.855469 103.199219 C 32.855469 101.171875 35.199219 99.085938 38.570312 98.144531 C 40.972656 97.488281 46.488281 97.714844 48.683594 98.570312 Z M 48.683594 98.570312 "/>
<path style=" stroke:none;fill-rule:nonzero;fill:rgb(0%,0%,0%);fill-opacity:1;" d="M 106.199219 102.171875 C 106.144531 102.257812 105.257812 102.429688 104.257812 102.597656 C 103.257812 102.769531 102.316406 103 102.144531 103.113281 C 102 103.257812 101.371094 103.511719 100.800781 103.683594 C 100.199219 103.886719 99.714844 104.144531 99.714844 104.230469 C 99.714844 104.34375 99.34375 104.597656 98.886719 104.800781 C 98.085938 105.144531 95.027344 107.972656 94.429688 108.914062 C 94.285156 109.144531 93.402344 110.457031 92.511719 111.828125 C 91.597656 113.171875 90.855469 114.402344 90.855469 114.570312 C 90.855469 114.714844 90.742188 114.855469 90.597656 114.855469 C 90.457031 114.855469 90.171875 115.257812 89.972656 115.769531 C 89.769531 116.285156 89.402344 116.914062 89.144531 117.171875 C 88.914062 117.429688 88.457031 118 88.144531 118.429688 C 87.542969 119.230469 85.257812 121.570312 84.429688 122.257812 C 83.402344 123.085938 81.316406 124.027344 80.113281 124.199219 C 79.402344 124.285156 78.769531 124.457031 78.714844 124.570312 C 78.65625 124.683594 77.972656 124.714844 77.230469 124.65625 C 76.316406 124.570312 75.683594 124.65625 75.316406 124.941406 C 74.769531 125.34375 74.769531 125.371094 75.511719 126.113281 C 75.941406 126.542969 76.285156 126.972656 76.285156 127.058594 C 76.285156 127.34375 79.085938 130 79.402344 130 C 79.570312 130 79.714844 130.113281 79.714844 130.285156 C 79.714844 130.429688 79.941406 130.570312 80.230469 130.570312 C 80.488281 130.570312 81.429688 130.914062 82.285156 131.316406 C 83.769531 132.027344 84.085938 132.058594 88.316406 132.058594 C 92.171875 132.027344 92.914062 131.941406 93.769531 131.488281 C 94.316406 131.171875 95.171875 130.828125 95.65625 130.714844 C 96.171875 130.628906 96.570312 130.429688 96.570312 130.316406 C 96.570312 130.199219 97.058594 129.941406 97.628906 129.742188 C 98.683594 129.34375 98.972656 129.171875 100.027344 128.199219 C 100.316406 127.941406 100.65625 127.714844 100.800781 127.714844 C 100.914062 127.714844 101.457031 127.316406 102 126.855469 C 102.542969 126.371094 103.144531 125.886719 103.285156 125.742188 C 103.597656 125.488281 105.597656 123.144531 106.542969 121.941406 C 106.886719 121.542969 107.144531 121.058594 107.144531 120.886719 C 107.144531 120.714844 107.257812 120.570312 107.402344 120.570312 C 107.542969 120.570312 107.828125 120.113281 108.027344 119.570312 C 108.230469 119.027344 108.488281 118.570312 108.597656 118.570312 C 108.714844 118.570312 108.972656 118.085938 109.171875 117.488281 C 109.34375 116.914062 109.597656 116.371094 109.683594 116.285156 C 109.800781 116.199219 110.113281 115.628906 110.402344 115 C 110.65625 114.371094 111 113.628906 111.171875 113.34375 C 111.316406 113.085938 111.511719 112.113281 111.597656 111.199219 C 111.683594 110.316406 111.855469 109.511719 112 109.488281 C 112.34375 109.371094 112.371094 107.429688 112.058594 107.429688 C 111.914062 107.429688 111.457031 106.914062 110.972656 106.285156 C 110.511719 105.65625 110.027344 105.144531 109.855469 105.144531 C 109.488281 105.144531 107.714844 103.316406 107.714844 102.941406 C 107.714844 102.628906 106.429688 101.972656 106.199219 102.171875 Z M 106.199219 102.171875 "/>
<path style=" stroke:none;fill-rule:nonzero;fill:rgb(0%,0%,0%);fill-opacity:1;" d="M 37.144531 115.542969 C 31.144531 116.914062 26.402344 120.144531 24.429688 124.144531 C 23.65625 125.683594 23.570312 126.113281 23.570312 128.714844 C 23.570312 131.285156 23.65625 131.742188 24.429688 133.257812 C 26.457031 137.371094 31.285156 140.628906 37.199219 141.855469 C 39.742188 142.402344 45.402344 142.402344 47.941406 141.855469 C 53.855469 140.628906 58.683594 137.371094 60.714844 133.257812 C 61.488281 131.742188 61.570312 131.285156 61.570312 128.714844 C 61.570312 126.113281 61.488281 125.683594 60.714844 124.144531 C 59.429688 121.511719 56.886719 119.171875 53.683594 117.597656 C 52.199219 116.886719 50.230469 116.085938 49.285156 115.828125 C 47.027344 115.199219 39.371094 115.027344 37.144531 115.542969 Z M 46.914062 121.457031 C 50.457031 122.199219 54.488281 124.742188 55.34375 126.769531 C 56.597656 129.828125 54.828125 132.714844 50.457031 134.714844 C 47.828125 135.941406 46.027344 136.285156 42.570312 136.285156 C 39.113281 136.285156 37.316406 135.941406 34.683594 134.714844 C 30.316406 132.714844 28.542969 129.828125 29.800781 126.769531 C 30.628906 124.800781 34.34375 122.402344 37.855469 121.542969 C 39.683594 121.085938 44.941406 121.058594 46.914062 121.457031 Z M 46.914062 121.457031 "/>
</g>
</svg>
