<?xml version="1.0" encoding="UTF-8"?>
<svg xmlns="http://www.w3.org/2000/svg" xmlns:xlink="http://www.w3.org/1999/xlink" width="20pt" height="20pt" viewBox="0 0 20 20" version="1.1">
<g id="surface1">
<path style=" stroke:none;fill-rule:nonzero;fill:rgb(0%,0%,0%);fill-opacity:1;" d="M 11.011719 1.980469 C 10.71875 2.011719 10.441406 2.066406 10.183594 2.132812 C 10.121094 2.152344 10.035156 2.171875 9.988281 2.183594 C 9.945312 2.195312 9.863281 2.21875 9.808594 2.242188 C 9.753906 2.265625 9.699219 2.285156 9.683594 2.285156 C 9.667969 2.285156 9.589844 2.320312 9.507812 2.355469 C 9.425781 2.394531 9.347656 2.429688 9.332031 2.429688 C 9.320312 2.429688 9.304688 2.4375 9.304688 2.445312 C 9.304688 2.457031 9.269531 2.476562 9.230469 2.488281 C 9.1875 2.503906 9.117188 2.535156 9.078125 2.5625 C 9.035156 2.589844 8.996094 2.613281 8.988281 2.613281 C 8.980469 2.613281 8.933594 2.640625 8.882812 2.671875 C 8.835938 2.707031 8.785156 2.734375 8.773438 2.734375 C 8.761719 2.734375 8.753906 2.742188 8.753906 2.75 C 8.753906 2.757812 8.71875 2.78125 8.675781 2.800781 C 8.632812 2.824219 8.574219 2.859375 8.542969 2.886719 C 8.515625 2.910156 8.46875 2.949219 8.4375 2.972656 C 8.191406 3.148438 7.652344 3.640625 7.652344 3.691406 C 7.652344 3.699219 7.617188 3.742188 7.570312 3.785156 C 7.523438 3.832031 7.46875 3.898438 7.441406 3.9375 C 7.421875 3.976562 7.382812 4.023438 7.363281 4.035156 C 7.34375 4.050781 7.328125 4.074219 7.328125 4.089844 C 7.328125 4.105469 7.300781 4.144531 7.265625 4.175781 C 7.234375 4.207031 7.203125 4.242188 7.203125 4.25 C 7.203125 4.261719 7.179688 4.296875 7.152344 4.335938 C 7.125 4.371094 7.101562 4.421875 7.101562 4.445312 C 7.101562 4.46875 7.089844 4.488281 7.074219 4.488281 C 7.050781 4.488281 6.917969 4.722656 6.917969 4.769531 C 6.917969 4.785156 6.910156 4.796875 6.902344 4.796875 C 6.890625 4.796875 6.871094 4.828125 6.851562 4.871094 C 6.828125 4.917969 6.808594 4.9375 6.789062 4.925781 C 6.777344 4.917969 6.730469 4.886719 6.683594 4.855469 C 6.640625 4.824219 6.550781 4.777344 6.488281 4.742188 C 6.429688 4.710938 6.351562 4.667969 6.324219 4.648438 C 6.292969 4.628906 6.253906 4.613281 6.238281 4.613281 C 6.222656 4.613281 6.167969 4.59375 6.117188 4.570312 C 6.066406 4.550781 5.929688 4.503906 5.8125 4.476562 C 5.625 4.425781 5.5625 4.421875 5.277344 4.421875 C 4.90625 4.421875 4.664062 4.457031 4.398438 4.554688 C 4.195312 4.628906 3.980469 4.722656 3.9375 4.757812 C 3.921875 4.773438 3.878906 4.800781 3.847656 4.816406 C 3.8125 4.832031 3.78125 4.851562 3.777344 4.859375 C 3.769531 4.867188 3.71875 4.902344 3.664062 4.9375 C 3.496094 5.054688 3.175781 5.382812 3.035156 5.59375 C 2.894531 5.800781 2.796875 5.980469 2.796875 6.027344 C 2.796875 6.042969 2.773438 6.101562 2.746094 6.152344 C 2.691406 6.25 2.613281 6.550781 2.613281 6.644531 C 2.613281 6.671875 2.605469 6.695312 2.59375 6.695312 C 2.585938 6.695312 2.570312 6.765625 2.5625 6.859375 C 2.550781 6.988281 2.539062 7.023438 2.515625 7.03125 C 2.496094 7.039062 2.4375 7.066406 2.382812 7.09375 C 2.328125 7.121094 2.269531 7.144531 2.25 7.144531 C 2.230469 7.144531 2.179688 7.164062 2.144531 7.1875 C 2.074219 7.226562 1.992188 7.277344 1.816406 7.375 C 1.777344 7.394531 1.730469 7.425781 1.710938 7.441406 C 1.695312 7.457031 1.671875 7.46875 1.660156 7.46875 C 1.652344 7.46875 1.613281 7.492188 1.578125 7.523438 C 1.542969 7.558594 1.484375 7.605469 1.445312 7.632812 C 1.410156 7.660156 1.347656 7.714844 1.308594 7.75 C 1.269531 7.785156 1.234375 7.816406 1.226562 7.816406 C 1.203125 7.816406 0.777344 8.285156 0.777344 8.308594 C 0.777344 8.316406 0.761719 8.339844 0.742188 8.355469 C 0.703125 8.394531 0.570312 8.59375 0.570312 8.613281 C 0.570312 8.621094 0.550781 8.652344 0.519531 8.679688 C 0.492188 8.710938 0.46875 8.757812 0.46875 8.789062 C 0.46875 8.8125 0.460938 8.835938 0.449219 8.835938 C 0.429688 8.835938 0.316406 9.0625 0.296875 9.148438 C 0.289062 9.179688 0.273438 9.210938 0.261719 9.214844 C 0.253906 9.222656 0.246094 9.25 0.246094 9.277344 C 0.246094 9.304688 0.238281 9.328125 0.222656 9.328125 C 0.214844 9.328125 0.203125 9.339844 0.203125 9.355469 C 0.203125 9.375 0.191406 9.410156 0.175781 9.433594 C 0.160156 9.460938 0.144531 9.53125 0.136719 9.59375 C 0.128906 9.65625 0.117188 9.726562 0.105469 9.746094 C 0.0234375 9.90625 -0.0195312 10.542969 0.0195312 10.960938 C 0.0507812 11.269531 0.0507812 11.285156 0.0664062 11.300781 C 0.0742188 11.304688 0.0820312 11.339844 0.0820312 11.371094 C 0.0820312 11.402344 0.0898438 11.429688 0.101562 11.429688 C 0.109375 11.429688 0.125 11.488281 0.132812 11.566406 C 0.140625 11.644531 0.160156 11.730469 0.179688 11.765625 C 0.195312 11.796875 0.21875 11.84375 0.226562 11.859375 C 0.238281 11.882812 0.246094 11.914062 0.246094 11.933594 C 0.246094 11.957031 0.253906 11.980469 0.261719 11.988281 C 0.269531 12.003906 0.300781 12.066406 0.328125 12.132812 C 0.351562 12.199219 0.378906 12.257812 0.386719 12.265625 C 0.394531 12.269531 0.421875 12.328125 0.453125 12.386719 C 0.484375 12.449219 0.539062 12.550781 0.578125 12.609375 C 0.621094 12.667969 0.652344 12.726562 0.652344 12.738281 C 0.652344 12.746094 0.664062 12.753906 0.671875 12.753906 C 0.6875 12.753906 0.695312 12.765625 0.695312 12.785156 C 0.695312 12.800781 0.710938 12.828125 0.730469 12.839844 C 0.75 12.855469 0.785156 12.894531 0.804688 12.929688 C 0.824219 12.960938 0.875 13.023438 0.910156 13.0625 C 0.945312 13.101562 1.023438 13.183594 1.082031 13.25 C 1.140625 13.3125 1.21875 13.386719 1.257812 13.414062 C 1.296875 13.4375 1.332031 13.472656 1.335938 13.492188 C 1.34375 13.511719 1.371094 13.53125 1.398438 13.539062 C 1.425781 13.542969 1.457031 13.570312 1.46875 13.59375 C 1.480469 13.613281 1.503906 13.632812 1.523438 13.632812 C 1.539062 13.632812 1.558594 13.648438 1.566406 13.664062 C 1.570312 13.679688 1.621094 13.71875 1.671875 13.746094 C 1.722656 13.769531 1.78125 13.808594 1.792969 13.824219 C 1.808594 13.84375 1.832031 13.855469 1.84375 13.855469 C 1.859375 13.855469 1.90625 13.882812 1.949219 13.917969 C 1.992188 13.949219 2.039062 13.980469 2.050781 13.980469 C 2.0625 13.980469 2.117188 14.003906 2.171875 14.027344 C 2.332031 14.105469 2.511719 14.183594 2.527344 14.183594 C 2.554688 14.183594 2.753906 14.246094 2.804688 14.265625 C 2.828125 14.277344 2.96875 14.308594 3.113281 14.339844 L 3.378906 14.394531 L 5.285156 14.402344 L 7.195312 14.40625 L 7.285156 14.359375 C 7.34375 14.332031 7.402344 14.277344 7.445312 14.214844 C 7.554688 14.050781 7.53125 13.855469 7.378906 13.703125 C 7.289062 13.613281 7.335938 13.613281 5.40625 13.605469 C 3.433594 13.597656 3.359375 13.59375 2.980469 13.484375 C 2.339844 13.296875 1.84375 12.960938 1.398438 12.40625 C 1.25 12.21875 1.050781 11.839844 0.949219 11.550781 C 0.769531 11.011719 0.746094 10.375 0.886719 9.828125 C 0.957031 9.554688 1.167969 9.078125 1.289062 8.921875 C 1.652344 8.441406 1.808594 8.285156 2.183594 8.039062 C 2.335938 7.941406 2.433594 7.890625 2.726562 7.761719 C 2.761719 7.75 2.863281 7.710938 2.957031 7.679688 C 3.21875 7.597656 3.304688 7.46875 3.304688 7.15625 C 3.304688 6.425781 3.710938 5.769531 4.378906 5.425781 C 4.542969 5.335938 4.816406 5.25 4.96875 5.238281 C 5.050781 5.230469 5.144531 5.21875 5.179688 5.210938 C 5.285156 5.191406 5.867188 5.265625 5.898438 5.304688 C 5.917969 5.328125 6.023438 5.367188 6.0625 5.367188 C 6.082031 5.367188 6.101562 5.375 6.101562 5.386719 C 6.101562 5.394531 6.132812 5.414062 6.167969 5.429688 C 6.269531 5.46875 6.488281 5.617188 6.601562 5.722656 C 6.65625 5.773438 6.714844 5.816406 6.730469 5.816406 C 6.742188 5.816406 6.753906 5.828125 6.753906 5.835938 C 6.753906 5.871094 6.855469 5.898438 6.960938 5.902344 C 7.027344 5.902344 7.078125 5.886719 7.144531 5.847656 C 7.25 5.78125 7.300781 5.714844 7.378906 5.519531 C 7.445312 5.34375 7.554688 5.132812 7.65625 4.964844 C 7.699219 4.890625 7.734375 4.828125 7.734375 4.824219 C 7.734375 4.800781 8.046875 4.386719 8.164062 4.257812 C 8.683594 3.675781 9.3125 3.253906 10.03125 3.007812 C 10.109375 2.980469 10.210938 2.949219 10.253906 2.9375 C 10.300781 2.929688 10.410156 2.902344 10.5 2.878906 C 10.984375 2.75 11.890625 2.742188 12.351562 2.859375 C 12.445312 2.882812 12.574219 2.914062 12.644531 2.929688 C 12.710938 2.945312 12.808594 2.976562 12.859375 2.996094 C 12.90625 3.023438 12.964844 3.039062 12.980469 3.039062 C 12.996094 3.039062 13.0625 3.0625 13.117188 3.09375 C 13.175781 3.121094 13.234375 3.144531 13.242188 3.144531 C 13.25 3.144531 13.320312 3.175781 13.394531 3.214844 C 13.472656 3.253906 13.546875 3.285156 13.5625 3.285156 C 13.578125 3.285156 13.59375 3.296875 13.59375 3.308594 C 13.59375 3.320312 13.625 3.34375 13.667969 3.359375 C 13.710938 3.378906 13.75 3.398438 13.753906 3.40625 C 13.769531 3.425781 14.015625 3.59375 14.03125 3.59375 C 14.050781 3.59375 14.214844 3.726562 14.328125 3.832031 C 14.378906 3.878906 14.433594 3.921875 14.449219 3.929688 C 14.46875 3.933594 14.496094 3.960938 14.511719 3.988281 C 14.523438 4.015625 14.546875 4.039062 14.558594 4.042969 C 14.574219 4.050781 14.632812 4.109375 14.699219 4.183594 C 14.761719 4.257812 14.84375 4.34375 14.875 4.378906 C 14.90625 4.414062 14.949219 4.46875 14.96875 4.507812 C 14.984375 4.542969 15.015625 4.578125 15.03125 4.585938 C 15.046875 4.59375 15.0625 4.605469 15.0625 4.613281 C 15.0625 4.621094 15.113281 4.703125 15.171875 4.792969 C 15.234375 4.882812 15.285156 4.964844 15.285156 4.976562 C 15.285156 4.984375 15.328125 5.0625 15.378906 5.148438 C 15.429688 5.234375 15.46875 5.3125 15.46875 5.328125 C 15.46875 5.34375 15.492188 5.402344 15.523438 5.460938 C 15.550781 5.515625 15.597656 5.632812 15.625 5.722656 C 15.652344 5.8125 15.683594 5.902344 15.695312 5.921875 C 15.703125 5.9375 15.722656 6.011719 15.738281 6.082031 C 15.75 6.15625 15.769531 6.21875 15.78125 6.226562 C 15.789062 6.234375 15.804688 6.359375 15.816406 6.511719 C 15.828125 6.664062 15.847656 6.832031 15.859375 6.886719 C 15.882812 7.007812 15.875 7.28125 15.835938 7.605469 L 15.808594 7.832031 L 15.863281 7.921875 C 15.894531 7.96875 15.9375 8.03125 15.960938 8.058594 C 16.007812 8.113281 16.171875 8.164062 16.324219 8.164062 C 16.621094 8.164062 17.242188 8.3125 17.394531 8.417969 C 17.417969 8.433594 17.449219 8.449219 17.46875 8.449219 C 17.484375 8.449219 17.527344 8.472656 17.5625 8.5 C 17.601562 8.527344 17.640625 8.550781 17.652344 8.550781 C 17.675781 8.550781 17.703125 8.570312 17.777344 8.636719 C 17.796875 8.65625 17.824219 8.671875 17.832031 8.671875 C 17.851562 8.671875 17.96875 8.769531 18.035156 8.839844 C 18.066406 8.875 18.101562 8.898438 18.117188 8.898438 C 18.128906 8.898438 18.144531 8.910156 18.144531 8.925781 C 18.144531 8.941406 18.164062 8.964844 18.195312 8.980469 C 18.222656 8.992188 18.246094 9.015625 18.246094 9.023438 C 18.246094 9.03125 18.265625 9.0625 18.292969 9.085938 C 18.371094 9.175781 18.433594 9.253906 18.484375 9.332031 C 18.511719 9.375 18.539062 9.40625 18.550781 9.40625 C 18.5625 9.40625 18.570312 9.429688 18.570312 9.460938 C 18.570312 9.488281 18.578125 9.511719 18.589844 9.511719 C 18.613281 9.511719 18.789062 9.871094 18.816406 9.980469 C 18.851562 10.113281 18.882812 10.203125 18.898438 10.203125 C 18.90625 10.203125 18.917969 10.285156 18.925781 10.382812 C 18.933594 10.480469 18.949219 10.570312 18.960938 10.578125 C 18.984375 10.605469 18.984375 11.15625 18.960938 11.171875 C 18.949219 11.179688 18.9375 11.261719 18.929688 11.363281 C 18.921875 11.460938 18.902344 11.558594 18.886719 11.582031 C 18.875 11.605469 18.839844 11.6875 18.816406 11.765625 C 18.777344 11.898438 18.640625 12.203125 18.609375 12.222656 C 18.601562 12.230469 18.589844 12.253906 18.582031 12.28125 C 18.574219 12.304688 18.546875 12.351562 18.519531 12.378906 C 18.492188 12.402344 18.46875 12.4375 18.46875 12.449219 C 18.46875 12.464844 18.445312 12.496094 18.417969 12.523438 C 18.390625 12.550781 18.367188 12.574219 18.367188 12.582031 C 18.367188 12.59375 18.273438 12.691406 18.160156 12.800781 C 17.898438 13.050781 17.90625 13.042969 17.796875 13.113281 C 17.746094 13.148438 17.699219 13.179688 17.695312 13.1875 C 17.667969 13.21875 17.179688 13.449219 17.140625 13.449219 C 17.125 13.449219 17.066406 13.46875 17.007812 13.488281 C 16.738281 13.589844 16.578125 13.597656 14.46875 13.609375 C 12.308594 13.625 12.445312 13.613281 12.328125 13.746094 C 12.28125 13.796875 12.277344 13.8125 12.277344 14.003906 L 12.277344 14.203125 L 12.367188 14.285156 C 12.414062 14.332031 12.488281 14.378906 12.527344 14.390625 C 12.609375 14.414062 16.550781 14.40625 16.664062 14.382812 C 16.699219 14.375 16.824219 14.351562 16.941406 14.328125 C 17.0625 14.304688 17.199219 14.273438 17.25 14.253906 C 17.296875 14.238281 17.390625 14.203125 17.460938 14.179688 C 18.316406 13.886719 19.121094 13.117188 19.488281 12.246094 C 19.597656 11.980469 19.714844 11.519531 19.75 11.21875 C 19.839844 10.417969 19.585938 9.523438 19.085938 8.847656 C 18.886719 8.585938 18.5625 8.261719 18.347656 8.117188 C 18.320312 8.097656 18.253906 8.054688 18.207031 8.019531 C 18.085938 7.933594 17.699219 7.734375 17.53125 7.667969 C 17.414062 7.621094 17.167969 7.546875 16.9375 7.488281 C 16.898438 7.480469 16.828125 7.46875 16.78125 7.46875 C 16.636719 7.46875 16.644531 7.480469 16.648438 7.160156 C 16.664062 6.59375 16.574219 6.050781 16.363281 5.4375 C 16.277344 5.195312 16.101562 4.804688 15.996094 4.625 C 15.960938 4.570312 15.921875 4.503906 15.910156 4.480469 C 15.890625 4.441406 15.714844 4.183594 15.601562 4.019531 C 15.398438 3.738281 14.855469 3.203125 14.539062 2.984375 C 14.449219 2.921875 14.375 2.863281 14.367188 2.855469 C 14.359375 2.847656 14.285156 2.800781 14.152344 2.71875 C 14.128906 2.707031 14.097656 2.691406 14.082031 2.679688 C 14.066406 2.671875 14.046875 2.660156 14.039062 2.652344 C 14.03125 2.640625 13.753906 2.503906 13.4375 2.355469 C 13.371094 2.328125 13.289062 2.292969 13.253906 2.285156 C 13.222656 2.277344 13.152344 2.253906 13.101562 2.234375 C 13.015625 2.203125 12.960938 2.1875 12.679688 2.113281 C 12.613281 2.097656 12.425781 2.058594 12.253906 2.027344 C 11.914062 1.972656 11.308594 1.945312 11.011719 1.980469 Z M 11.011719 1.980469 "/>
<path style=" stroke:none;fill-rule:nonzero;fill:rgb(0%,0%,0%);fill-opacity:1;" d="M 9.804688 10.039062 C 9.71875 10.0625 9.671875 10.089844 9.59375 10.171875 L 9.519531 10.246094 L 9.511719 13.792969 C 9.503906 16.660156 9.496094 17.335938 9.472656 17.335938 C 9.460938 17.335938 9.160156 17.050781 8.808594 16.703125 C 8.460938 16.351562 8.144531 16.046875 8.105469 16.019531 C 8.042969 15.980469 8.007812 15.972656 7.898438 15.972656 C 7.824219 15.972656 7.742188 15.984375 7.714844 16 C 7.632812 16.042969 7.53125 16.15625 7.53125 16.199219 C 7.53125 16.222656 7.523438 16.25 7.511719 16.253906 C 7.460938 16.285156 7.523438 16.613281 7.578125 16.613281 C 7.59375 16.613281 7.617188 16.640625 7.636719 16.671875 C 7.65625 16.707031 7.6875 16.734375 7.703125 16.734375 C 7.71875 16.734375 7.734375 16.746094 7.734375 16.753906 C 7.734375 16.78125 8.035156 17.082031 8.0625 17.082031 C 8.074219 17.082031 8.082031 17.09375 8.082031 17.105469 C 8.082031 17.128906 8.335938 17.378906 8.390625 17.410156 C 8.414062 17.421875 8.429688 17.4375 8.429688 17.449219 C 8.429688 17.476562 8.710938 17.753906 8.738281 17.753906 C 8.746094 17.753906 8.753906 17.765625 8.753906 17.777344 C 8.753906 17.792969 8.789062 17.832031 8.832031 17.871094 C 8.9375 17.964844 8.933594 17.964844 8.980469 18.023438 C 9.003906 18.058594 9.035156 18.082031 9.054688 18.082031 C 9.070312 18.082031 9.082031 18.089844 9.082031 18.101562 C 9.082031 18.125 9.566406 18.613281 9.59375 18.613281 C 9.605469 18.613281 9.613281 18.621094 9.613281 18.632812 C 9.613281 18.65625 9.859375 18.898438 9.882812 18.898438 C 9.890625 18.898438 10.410156 18.386719 11.039062 17.757812 C 11.796875 17.003906 12.195312 16.59375 12.222656 16.535156 C 12.304688 16.371094 12.257812 16.191406 12.097656 16.054688 C 12.011719 15.976562 11.96875 15.96875 11.785156 15.976562 C 11.742188 15.980469 11.683594 15.996094 11.660156 16.011719 C 11.632812 16.027344 11.328125 16.328125 10.980469 16.671875 C 10.632812 17.023438 10.339844 17.304688 10.328125 17.304688 C 10.316406 17.304688 10.304688 17.3125 10.304688 17.328125 C 10.304688 17.335938 10.296875 17.347656 10.285156 17.347656 C 10.269531 17.347656 10.265625 16.160156 10.265625 13.832031 L 10.265625 10.320312 L 10.214844 10.238281 C 10.144531 10.113281 10.070312 10.066406 9.898438 10.03125 C 9.882812 10.027344 9.839844 10.03125 9.804688 10.039062 Z M 9.804688 10.039062 "/>
</g>
</svg>
